<?xml version="1.0" encoding="UTF-8" standalone="no"?>
<!DOCTYPE svg PUBLIC "-//W3C//DTD SVG 1.1//EN"
 "http://www.w3.org/Graphics/SVG/1.1/DTD/svg11.dtd">
<!-- Generated by graphviz version 2.36.0 (20140111.2315)
 -->
<!-- Title: IControl.h Pages: 1 -->
<!--zoomable 308 -->
<svg id="main" version="1.1" xmlns="http://www.w3.org/2000/svg" xmlns:xlink="http://www.w3.org/1999/xlink" xml:space="preserve" onload="init(evt)">
<style type="text/css"><![CDATA[
.edge:hover path { stroke: red; }
.edge:hover polygon { stroke: red; fill: red; }
]]></style>
<script type="text/javascript"><![CDATA[
var edges = document.getElementsByTagName('g');
if (edges && edges.length) {
  for (var i=0;i<edges.length;i++) {
    if (edges[i].id.substr(0,4)=='edge') {
      edges[i].setAttribute('class','edge');
    }
  }
}
]]></script>
        <defs>
                <circle id="rim" cx="0" cy="0" r="7"/>
                <circle id="rim2" cx="0" cy="0" r="3.5"/>
                <g id="zoomPlus">
                        <use xlink:href="#rim" fill="#404040">
                                <set attributeName="fill" to="#808080" begin="zoomplus.mouseover" end="zoomplus.mouseout"/>
                        </use>
                        <path d="M-4,0h8M0,-4v8" fill="none" stroke="white" stroke-width="1.5" pointer-events="none"/>
                </g>
                <g id="zoomMin">
                        <use xlink:href="#rim" fill="#404040">
                                <set attributeName="fill" to="#808080" begin="zoomminus.mouseover" end="zoomminus.mouseout"/>
                        </use>
                        <path d="M-4,0h8" fill="none" stroke="white" stroke-width="1.5" pointer-events="none"/>
                </g>
                <g id="dirArrow">
                        <path fill="none" stroke="white" stroke-width="1.5" d="M0,-3.0v7 M-2.5,-0.5L0,-3.0L2.5,-0.5"/>
                </g>
               <g id="resetDef">
                       <use xlink:href="#rim2" fill="#404040">
                               <set attributeName="fill" to="#808080" begin="reset.mouseover" end="reset.mouseout"/>
                       </use>
               </g>
        </defs>

<script type="text/javascript">
var viewWidth = 860;
var viewHeight = 308;
var sectionId = 'dynsection-1';
</script>
<script xlink:href="svgpan.js"/>
<svg id="graph" class="graph">
<g id="viewport">
<title>IControl.h</title>
<polygon fill="white" stroke="none" points="-4,4 -4,-304 856,-304 856,4 -4,4"/>
<!-- Node1 -->
<g id="node1" class="node"><title>Node1</title>
<polygon fill="#bfbfbf" stroke="black" points="551.5,-280.5 551.5,-299.5 610.5,-299.5 610.5,-280.5 551.5,-280.5"/>
<text text-anchor="middle" x="581" y="-287.5" font-family="Helvetica,sans-Serif" font-size="10.00">IControl.h</text>
</g>
<!-- Node2 -->
<g id="node2" class="node"><title>Node2</title>
<g id="a_node2"><a xlink:href="_i_auto_g_u_i_8h_source.html" target="_top" xlink:title="IAutoGUI.h">
<polygon fill="white" stroke="black" points="360,-224.5 360,-243.5 426,-243.5 426,-224.5 360,-224.5"/>
<text text-anchor="middle" x="393" y="-231.5" font-family="Helvetica,sans-Serif" font-size="10.00">IAutoGUI.h</text>
</a>
</g>
</g>
<!-- Node1&#45;&gt;Node2 -->
<g id="edge1" class="edge"><title>Node1&#45;&gt;Node2</title>
<path fill="none" stroke="midnightblue" d="M541.199,-277.568C505.734,-267.381 454.634,-252.703 422.65,-243.516"/>
<polygon fill="midnightblue" stroke="midnightblue" points="540.633,-281.047 551.211,-280.444 542.566,-274.319 540.633,-281.047"/>
</g>
<!-- Node3 -->
<g id="node3" class="node"><title>Node3</title>
<g id="a_node3"><a xlink:href="_i_graphics_8h.html" target="_top" xlink:title="The lowest level base class of an IGraphics context. ">
<polygon fill="white" stroke="black" points="444.5,-224.5 444.5,-243.5 511.5,-243.5 511.5,-224.5 444.5,-224.5"/>
<text text-anchor="middle" x="478" y="-231.5" font-family="Helvetica,sans-Serif" font-size="10.00">IGraphics.h</text>
</a>
</g>
</g>
<!-- Node1&#45;&gt;Node3 -->
<g id="edge2" class="edge"><title>Node1&#45;&gt;Node3</title>
<path fill="none" stroke="midnightblue" d="M550.532,-276.096C529.877,-266.007 503.932,-252.27 489.164,-243.516"/>
<polygon fill="midnightblue" stroke="midnightblue" points="549.061,-279.272 559.591,-280.444 552.089,-272.961 549.061,-279.272"/>
</g>
<!-- Node11 -->
<g id="node11" class="node"><title>Node11</title>
<g id="a_node11"><a xlink:href="_i_graphics_mac_8mm_source.html" target="_top" xlink:title="IGraphicsMac.mm">
<polygon fill="white" stroke="black" points="582.5,-0.5 582.5,-19.5 679.5,-19.5 679.5,-0.5 582.5,-0.5"/>
<text text-anchor="middle" x="631" y="-7.5" font-family="Helvetica,sans-Serif" font-size="10.00">IGraphicsMac.mm</text>
</a>
</g>
</g>
<!-- Node1&#45;&gt;Node11 -->
<g id="edge28" class="edge"><title>Node1&#45;&gt;Node11</title>
<path fill="none" stroke="midnightblue" d="M621.08,-287.026C654.303,-283.262 700.538,-272.77 729,-244 750.167,-222.603 748,-209.098 748,-179 748,-179 748,-179 748,-121 748,-69.143 686.237,-34.5724 652.46,-19.5439"/>
<polygon fill="midnightblue" stroke="midnightblue" points="620.404,-283.575 610.789,-288.026 621.081,-290.542 620.404,-283.575"/>
</g>
<!-- Node20 -->
<g id="node20" class="node"><title>Node20</title>
<g id="a_node20"><a xlink:href="_i_control_8cpp_source.html" target="_top" xlink:title="IControl.cpp">
<polygon fill="white" stroke="black" points="650,-224.5 650,-243.5 720,-243.5 720,-224.5 650,-224.5"/>
<text text-anchor="middle" x="685" y="-231.5" font-family="Helvetica,sans-Serif" font-size="10.00">IControl.cpp</text>
</a>
</g>
</g>
<!-- Node1&#45;&gt;Node20 -->
<g id="edge23" class="edge"><title>Node1&#45;&gt;Node20</title>
<path fill="none" stroke="midnightblue" d="M606.828,-275.59C626.057,-265.605 651.745,-252.267 668.332,-243.655"/>
<polygon fill="midnightblue" stroke="midnightblue" points="604.971,-272.61 597.709,-280.324 608.197,-278.822 604.971,-272.61"/>
</g>
<!-- Node21 -->
<g id="node21" class="node"><title>Node21</title>
<g id="a_node21"><a xlink:href="_i_controls_8h.html" target="_top" xlink:title="A collection of IControls for common UI widgets, such as knobs, sliders, switches. ">
<polygon fill="white" stroke="black" points="778.5,-224.5 778.5,-243.5 843.5,-243.5 843.5,-224.5 778.5,-224.5"/>
<text text-anchor="middle" x="811" y="-231.5" font-family="Helvetica,sans-Serif" font-size="10.00">IControls.h</text>
</a>
</g>
</g>
<!-- Node1&#45;&gt;Node21 -->
<g id="edge24" class="edge"><title>Node1&#45;&gt;Node21</title>
<path fill="none" stroke="midnightblue" d="M620.482,-279.73C665.004,-269.277 736.594,-252.469 778.176,-242.707"/>
<polygon fill="midnightblue" stroke="midnightblue" points="619.533,-276.358 610.598,-282.051 621.133,-283.173 619.533,-276.358"/>
</g>
<!-- Node23 -->
<g id="node23" class="node"><title>Node23</title>
<g id="a_node23"><a xlink:href="_i_graphics_live_edit_8h_source.html" target="_top" xlink:title="IGraphicsLiveEdit.h">
<polygon fill="white" stroke="black" points="530,-224.5 530,-243.5 632,-243.5 632,-224.5 530,-224.5"/>
<text text-anchor="middle" x="581" y="-231.5" font-family="Helvetica,sans-Serif" font-size="10.00">IGraphicsLiveEdit.h</text>
</a>
</g>
</g>
<!-- Node1&#45;&gt;Node23 -->
<g id="edge26" class="edge"><title>Node1&#45;&gt;Node23</title>
<path fill="none" stroke="midnightblue" d="M581,-269.805C581,-260.91 581,-250.78 581,-243.751"/>
<polygon fill="midnightblue" stroke="midnightblue" points="577.5,-270.083 581,-280.083 584.5,-270.083 577.5,-270.083"/>
</g>
<!-- Node3&#45;&gt;Node1 -->
<g id="edge3" class="edge"><title>Node3&#45;&gt;Node1</title>
<path fill="none" stroke="midnightblue" d="M508.896,-248.113C529.354,-258.12 554.857,-271.625 569.566,-280.324"/>
<polygon fill="midnightblue" stroke="midnightblue" points="510.147,-244.831 499.618,-243.655 507.115,-251.141 510.147,-244.831"/>
</g>
<!-- Node4 -->
<g id="node4" class="node"><title>Node4</title>
<g id="a_node4"><a xlink:href="_i_graphics_8cpp_source.html" target="_top" xlink:title="IGraphics.cpp">
<polygon fill="white" stroke="black" points="583.5,-168.5 583.5,-187.5 660.5,-187.5 660.5,-168.5 583.5,-168.5"/>
<text text-anchor="middle" x="622" y="-175.5" font-family="Helvetica,sans-Serif" font-size="10.00">IGraphics.cpp</text>
</a>
</g>
</g>
<!-- Node3&#45;&gt;Node4 -->
<g id="edge4" class="edge"><title>Node3&#45;&gt;Node4</title>
<path fill="none" stroke="midnightblue" d="M510.251,-220.906C537.324,-210.754 575.317,-196.506 599.29,-187.516"/>
<polygon fill="midnightblue" stroke="midnightblue" points="508.952,-217.655 500.817,-224.444 511.409,-224.209 508.952,-217.655"/>
</g>
<!-- Node5 -->
<g id="node5" class="node"><title>Node5</title>
<g id="a_node5"><a xlink:href="_i_graphics_a_g_g_8h_source.html" target="_top" xlink:title="IGraphicsAGG.h">
<polygon fill="white" stroke="black" points="264.5,-168.5 264.5,-187.5 353.5,-187.5 353.5,-168.5 264.5,-168.5"/>
<text text-anchor="middle" x="309" y="-175.5" font-family="Helvetica,sans-Serif" font-size="10.00">IGraphicsAGG.h</text>
</a>
</g>
</g>
<!-- Node3&#45;&gt;Node5 -->
<g id="edge5" class="edge"><title>Node3&#45;&gt;Node5</title>
<path fill="none" stroke="midnightblue" d="M441.397,-221.304C409.553,-211.129 364.158,-196.625 335.653,-187.516"/>
<polygon fill="midnightblue" stroke="midnightblue" points="440.631,-224.734 451.221,-224.444 442.761,-218.066 440.631,-224.734"/>
</g>
<!-- Node7 -->
<g id="node7" class="node"><title>Node7</title>
<g id="a_node7"><a xlink:href="_i_graphics_cairo_8h_source.html" target="_top" xlink:title="IGraphicsCairo.h">
<polygon fill="white" stroke="black" points="372,-168.5 372,-187.5 462,-187.5 462,-168.5 372,-168.5"/>
<text text-anchor="middle" x="417" y="-175.5" font-family="Helvetica,sans-Serif" font-size="10.00">IGraphicsCairo.h</text>
</a>
</g>
</g>
<!-- Node3&#45;&gt;Node7 -->
<g id="edge7" class="edge"><title>Node3&#45;&gt;Node7</title>
<path fill="none" stroke="midnightblue" d="M460.533,-217.537C449.656,-207.909 436.056,-195.869 426.979,-187.834"/>
<polygon fill="midnightblue" stroke="midnightblue" points="458.392,-220.316 468.199,-224.324 463.032,-215.075 458.392,-220.316"/>
</g>
<!-- Node9 -->
<g id="node9" class="node"><title>Node9</title>
<g id="a_node9"><a xlink:href="_i_graphics_lice_8h_source.html" target="_top" xlink:title="IGraphicsLice.h">
<polygon fill="white" stroke="black" points="480.5,-168.5 480.5,-187.5 565.5,-187.5 565.5,-168.5 480.5,-168.5"/>
<text text-anchor="middle" x="523" y="-175.5" font-family="Helvetica,sans-Serif" font-size="10.00">IGraphicsLice.h</text>
</a>
</g>
</g>
<!-- Node3&#45;&gt;Node9 -->
<g id="edge9" class="edge"><title>Node3&#45;&gt;Node9</title>
<path fill="none" stroke="midnightblue" d="M492.047,-216.144C499.887,-206.736 509.329,-195.405 515.707,-187.751"/>
<polygon fill="midnightblue" stroke="midnightblue" points="489.144,-214.16 485.431,-224.083 494.521,-218.641 489.144,-214.16"/>
</g>
<!-- Node17 -->
<g id="node17" class="node"><title>Node17</title>
<g id="a_node17"><a xlink:href="_i_graphics_nano_v_g_8h_source.html" target="_top" xlink:title="IGraphicsNanoVG.h">
<polygon fill="white" stroke="black" points="5,-168.5 5,-187.5 109,-187.5 109,-168.5 5,-168.5"/>
<text text-anchor="middle" x="57" y="-175.5" font-family="Helvetica,sans-Serif" font-size="10.00">IGraphicsNanoVG.h</text>
</a>
</g>
</g>
<!-- Node3&#45;&gt;Node17 -->
<g id="edge20" class="edge"><title>Node3&#45;&gt;Node17</title>
<path fill="none" stroke="midnightblue" d="M434.366,-224.041C293.322,-201.66 255.444,-205.939 118,-188 115.134,-187.626 112.194,-187.231 109.227,-186.823"/>
<polygon fill="midnightblue" stroke="midnightblue" points="433.826,-227.499 444.254,-225.627 434.935,-220.587 433.826,-227.499"/>
</g>
<!-- Node19 -->
<g id="node19" class="node"><title>Node19</title>
<g id="a_node19"><a xlink:href="_i_plug_base_graphics_8cpp_source.html" target="_top" xlink:title="IPlugBaseGraphics.cpp">
<polygon fill="white" stroke="black" points="127.5,-168.5 127.5,-187.5 246.5,-187.5 246.5,-168.5 127.5,-168.5"/>
<text text-anchor="middle" x="187" y="-175.5" font-family="Helvetica,sans-Serif" font-size="10.00">IPlugBaseGraphics.cpp</text>
</a>
</g>
</g>
<!-- Node3&#45;&gt;Node19 -->
<g id="edge22" class="edge"><title>Node3&#45;&gt;Node19</title>
<path fill="none" stroke="midnightblue" d="M434.163,-223.878C359.491,-209.365 284.436,-195.978 236.48,-187.576"/>
<polygon fill="midnightblue" stroke="midnightblue" points="433.731,-227.36 444.216,-225.84 435.072,-220.49 433.731,-227.36"/>
</g>
<!-- Node6 -->
<g id="node6" class="node"><title>Node6</title>
<g id="a_node6"><a xlink:href="_i_graphics_a_g_g_8cpp_source.html" target="_top" xlink:title="IGraphicsAGG.cpp">
<polygon fill="white" stroke="black" points="181.5,-112.5 181.5,-131.5 280.5,-131.5 280.5,-112.5 181.5,-112.5"/>
<text text-anchor="middle" x="231" y="-119.5" font-family="Helvetica,sans-Serif" font-size="10.00">IGraphicsAGG.cpp</text>
</a>
</g>
</g>
<!-- Node5&#45;&gt;Node6 -->
<g id="edge6" class="edge"><title>Node5&#45;&gt;Node6</title>
<path fill="none" stroke="midnightblue" d="M288.232,-162.622C273.983,-152.757 255.544,-139.992 243.501,-131.655"/>
<polygon fill="midnightblue" stroke="midnightblue" points="286.254,-165.51 296.468,-168.324 290.238,-159.754 286.254,-165.51"/>
</g>
<!-- Node8 -->
<g id="node8" class="node"><title>Node8</title>
<g id="a_node8"><a xlink:href="_i_graphics_cairo_8cpp_source.html" target="_top" xlink:title="IGraphicsCairo.cpp">
<polygon fill="white" stroke="black" points="298.5,-112.5 298.5,-131.5 399.5,-131.5 399.5,-112.5 298.5,-112.5"/>
<text text-anchor="middle" x="349" y="-119.5" font-family="Helvetica,sans-Serif" font-size="10.00">IGraphicsCairo.cpp</text>
</a>
</g>
</g>
<!-- Node7&#45;&gt;Node8 -->
<g id="edge8" class="edge"><title>Node7&#45;&gt;Node8</title>
<path fill="none" stroke="midnightblue" d="M398.238,-162.101C386,-152.382 370.441,-140.027 360.124,-131.834"/>
<polygon fill="midnightblue" stroke="midnightblue" points="396.067,-164.846 406.075,-168.324 400.42,-159.364 396.067,-164.846"/>
</g>
<!-- Node10 -->
<g id="node10" class="node"><title>Node10</title>
<g id="a_node10"><a xlink:href="_i_graphics_lice_8cpp_source.html" target="_top" xlink:title="IGraphicsLice.cpp">
<polygon fill="white" stroke="black" points="624.5,-112.5 624.5,-131.5 719.5,-131.5 719.5,-112.5 624.5,-112.5"/>
<text text-anchor="middle" x="672" y="-119.5" font-family="Helvetica,sans-Serif" font-size="10.00">IGraphicsLice.cpp</text>
</a>
</g>
</g>
<!-- Node9&#45;&gt;Node10 -->
<g id="edge10" class="edge"><title>Node9&#45;&gt;Node10</title>
<path fill="none" stroke="midnightblue" d="M556.371,-164.906C584.384,-154.754 623.696,-140.506 648.501,-131.516"/>
<polygon fill="midnightblue" stroke="midnightblue" points="554.819,-161.746 546.609,-168.444 557.204,-168.327 554.819,-161.746"/>
</g>
<!-- Node13 -->
<g id="node13" class="node"><title>Node13</title>
<g id="a_node13"><a xlink:href="_i_graphics_mac_8h_source.html" target="_top" xlink:title="IGraphicsMac.h">
<polygon fill="white" stroke="black" points="418,-112.5 418,-131.5 504,-131.5 504,-112.5 418,-112.5"/>
<text text-anchor="middle" x="461" y="-119.5" font-family="Helvetica,sans-Serif" font-size="10.00">IGraphicsMac.h</text>
</a>
</g>
</g>
<!-- Node9&#45;&gt;Node13 -->
<g id="edge13" class="edge"><title>Node9&#45;&gt;Node13</title>
<path fill="none" stroke="midnightblue" d="M505.246,-161.537C494.192,-151.909 480.369,-139.869 471.143,-131.834"/>
<polygon fill="midnightblue" stroke="midnightblue" points="503.199,-164.395 513.039,-168.324 507.797,-159.117 503.199,-164.395"/>
</g>
<!-- Node16 -->
<g id="node16" class="node"><title>Node16</title>
<g id="a_node16"><a xlink:href="_i_graphics_win_8h_source.html" target="_top" xlink:title="IGraphicsWin.h">
<polygon fill="white" stroke="black" points="522,-112.5 522,-131.5 606,-131.5 606,-112.5 522,-112.5"/>
<text text-anchor="middle" x="564" y="-119.5" font-family="Helvetica,sans-Serif" font-size="10.00">IGraphicsWin.h</text>
</a>
</g>
</g>
<!-- Node9&#45;&gt;Node16 -->
<g id="edge18" class="edge"><title>Node9&#45;&gt;Node16</title>
<path fill="none" stroke="midnightblue" d="M536.017,-159.855C543.117,-150.505 551.604,-139.327 557.356,-131.751"/>
<polygon fill="midnightblue" stroke="midnightblue" points="533.03,-158.002 529.77,-168.083 538.605,-162.235 533.03,-158.002"/>
</g>
<!-- Node10&#45;&gt;Node11 -->
<g id="edge11" class="edge"><title>Node10&#45;&gt;Node11</title>
<path fill="none" stroke="midnightblue" d="M672.592,-101.933C672.38,-88.6264 670.819,-70.6907 665,-56 659.374,-41.7985 647.98,-28.1949 639.936,-19.734"/>
<polygon fill="midnightblue" stroke="midnightblue" points="669.09,-102.208 672.505,-112.237 676.089,-102.267 669.09,-102.208"/>
</g>
<!-- Node12 -->
<g id="node12" class="node"><title>Node12</title>
<g id="a_node12"><a xlink:href="_i_graphics_win_8cpp_source.html" target="_top" xlink:title="IGraphicsWin.cpp">
<polygon fill="white" stroke="black" points="561.5,-56.5 561.5,-75.5 656.5,-75.5 656.5,-56.5 561.5,-56.5"/>
<text text-anchor="middle" x="609" y="-63.5" font-family="Helvetica,sans-Serif" font-size="10.00">IGraphicsWin.cpp</text>
</a>
</g>
</g>
<!-- Node10&#45;&gt;Node12 -->
<g id="edge12" class="edge"><title>Node10&#45;&gt;Node12</title>
<path fill="none" stroke="midnightblue" d="M653.96,-105.537C642.727,-95.9087 628.681,-83.8694 619.306,-75.8339"/>
<polygon fill="midnightblue" stroke="midnightblue" points="652.008,-108.473 661.878,-112.324 656.563,-103.159 652.008,-108.473"/>
</g>
<!-- Node13&#45;&gt;Node11 -->
<g id="edge14" class="edge"><title>Node13&#45;&gt;Node11</title>
<path fill="none" stroke="midnightblue" d="M480.287,-106.346C498.438,-92.7667 526.559,-72.2715 552,-56 573.143,-42.4776 598.497,-28.3935 614.675,-19.6618"/>
<polygon fill="midnightblue" stroke="midnightblue" points="478.118,-103.598 472.232,-112.407 482.327,-109.191 478.118,-103.598"/>
</g>
<!-- Node14 -->
<g id="node14" class="node"><title>Node14</title>
<g id="a_node14"><a xlink:href="_i_graphics_mac__view_8h_source.html" target="_top" xlink:title="IGraphicsMac_view.h">
<polygon fill="white" stroke="black" points="393.5,-56.5 393.5,-75.5 504.5,-75.5 504.5,-56.5 393.5,-56.5"/>
<text text-anchor="middle" x="449" y="-63.5" font-family="Helvetica,sans-Serif" font-size="10.00">IGraphicsMac_view.h</text>
</a>
</g>
</g>
<!-- Node13&#45;&gt;Node14 -->
<g id="edge15" class="edge"><title>Node13&#45;&gt;Node14</title>
<path fill="none" stroke="midnightblue" d="M456.8,-102.101C454.808,-93.1357 452.524,-82.8579 450.945,-75.7511"/>
<polygon fill="midnightblue" stroke="midnightblue" points="453.432,-103.08 459.018,-112.083 460.266,-101.562 453.432,-103.08"/>
</g>
<!-- Node14&#45;&gt;Node11 -->
<g id="edge16" class="edge"><title>Node14&#45;&gt;Node11</title>
<path fill="none" stroke="midnightblue" d="M487.531,-53.5677C521.864,-43.381 571.333,-28.7034 602.296,-19.5164"/>
<polygon fill="midnightblue" stroke="midnightblue" points="486.43,-50.2436 477.838,-56.4435 488.421,-56.9544 486.43,-50.2436"/>
</g>
<!-- Node15 -->
<g id="node15" class="node"><title>Node15</title>
<g id="a_node15"><a xlink:href="_i_graphics_mac__view_8mm_source.html" target="_top" xlink:title="IGraphicsMac_view.mm">
<polygon fill="white" stroke="black" points="388,-0.5 388,-19.5 510,-19.5 510,-0.5 388,-0.5"/>
<text text-anchor="middle" x="449" y="-7.5" font-family="Helvetica,sans-Serif" font-size="10.00">IGraphicsMac_view.mm</text>
</a>
</g>
</g>
<!-- Node14&#45;&gt;Node15 -->
<g id="edge17" class="edge"><title>Node14&#45;&gt;Node15</title>
<path fill="none" stroke="midnightblue" d="M449,-45.8045C449,-36.9102 449,-26.7798 449,-19.7511"/>
<polygon fill="midnightblue" stroke="midnightblue" points="445.5,-46.083 449,-56.083 452.5,-46.083 445.5,-46.083"/>
</g>
<!-- Node16&#45;&gt;Node12 -->
<g id="edge19" class="edge"><title>Node16&#45;&gt;Node12</title>
<path fill="none" stroke="midnightblue" d="M578.047,-104.144C585.887,-94.7357 595.329,-83.4046 601.707,-75.7511"/>
<polygon fill="midnightblue" stroke="midnightblue" points="575.144,-102.16 571.431,-112.083 580.521,-106.641 575.144,-102.16"/>
</g>
<!-- Node18 -->
<g id="node18" class="node"><title>Node18</title>
<g id="a_node18"><a xlink:href="_i_graphics_nano_v_g_8cpp_source.html" target="_top" xlink:title="IGraphicsNanoVG.cpp">
<polygon fill="white" stroke="black" points="-0.5,-112.5 -0.5,-131.5 114.5,-131.5 114.5,-112.5 -0.5,-112.5"/>
<text text-anchor="middle" x="57" y="-119.5" font-family="Helvetica,sans-Serif" font-size="10.00">IGraphicsNanoVG.cpp</text>
</a>
</g>
</g>
<!-- Node17&#45;&gt;Node18 -->
<g id="edge21" class="edge"><title>Node17&#45;&gt;Node18</title>
<path fill="none" stroke="midnightblue" d="M57,-157.805C57,-148.91 57,-138.78 57,-131.751"/>
<polygon fill="midnightblue" stroke="midnightblue" points="53.5001,-158.083 57,-168.083 60.5001,-158.083 53.5001,-158.083"/>
</g>
<!-- Node22 -->
<g id="node22" class="node"><title>Node22</title>
<g id="a_node22"><a xlink:href="_i_controls_8cpp_source.html" target="_top" xlink:title="IControls.cpp">
<polygon fill="white" stroke="black" points="776.5,-168.5 776.5,-187.5 851.5,-187.5 851.5,-168.5 776.5,-168.5"/>
<text text-anchor="middle" x="814" y="-175.5" font-family="Helvetica,sans-Serif" font-size="10.00">IControls.cpp</text>
</a>
</g>
</g>
<!-- Node21&#45;&gt;Node22 -->
<g id="edge25" class="edge"><title>Node21&#45;&gt;Node22</title>
<path fill="none" stroke="midnightblue" d="M812.066,-213.805C812.561,-204.91 813.123,-194.78 813.514,-187.751"/>
<polygon fill="midnightblue" stroke="midnightblue" points="808.556,-213.904 811.495,-224.083 815.545,-214.293 808.556,-213.904"/>
</g>
<!-- Node23&#45;&gt;Node4 -->
<g id="edge27" class="edge"><title>Node23&#45;&gt;Node4</title>
<path fill="none" stroke="midnightblue" d="M594.017,-215.855C601.117,-206.505 609.604,-195.327 615.356,-187.751"/>
<polygon fill="midnightblue" stroke="midnightblue" points="591.03,-214.002 587.77,-224.083 596.605,-218.235 591.03,-214.002"/>
</g>
</g>
</svg>
        <g id="navigator" transform="translate(0 0)" fill="#404254">
                <rect fill="#f2f5e9" fill-opacity="0.5" stroke="#606060" stroke-width=".5" x="0" y="0" width="60" height="60"/>
                <use id="zoomplus" xlink:href="#zoomPlus" x="17" y="9" onmousedown="handleZoom(evt,'in')"/>
                <use id="zoomminus" xlink:href="#zoomMin" x="42" y="9" onmousedown="handleZoom(evt,'out')"/>
                <use id="reset" xlink:href="#resetDef" x="30" y="36" onmousedown="handleReset()"/>
                <g id="arrowUp" xlink:href="#dirArrow" transform="translate(30 24)" onmousedown="handlePan(0,-1)">
                  <use xlink:href="#rim" fill="#404040">
                        <set attributeName="fill" to="#808080" begin="arrowUp.mouseover" end="arrowUp.mouseout"/>
                  </use>
                  <path fill="none" stroke="white" stroke-width="1.5" d="M0,-3.0v7 M-2.5,-0.5L0,-3.0L2.5,-0.5"/>
                </g>
                <g id="arrowRight" xlink:href="#dirArrow" transform="rotate(90) translate(36 -43)" onmousedown="handlePan(1,0)">
                  <use xlink:href="#rim" fill="#404040">
                        <set attributeName="fill" to="#808080" begin="arrowRight.mouseover" end="arrowRight.mouseout"/>
                  </use>
                  <path fill="none" stroke="white" stroke-width="1.5" d="M0,-3.0v7 M-2.5,-0.5L0,-3.0L2.5,-0.5"/>
                </g>
                <g id="arrowDown" xlink:href="#dirArrow" transform="rotate(180) translate(-30 -48)" onmousedown="handlePan(0,1)">
                  <use xlink:href="#rim" fill="#404040">
                        <set attributeName="fill" to="#808080" begin="arrowDown.mouseover" end="arrowDown.mouseout"/>
                  </use>
                  <path fill="none" stroke="white" stroke-width="1.5" d="M0,-3.0v7 M-2.5,-0.5L0,-3.0L2.5,-0.5"/>
                </g>
                <g id="arrowLeft" xlink:href="#dirArrow" transform="rotate(270) translate(-36 17)" onmousedown="handlePan(-1,0)">
                  <use xlink:href="#rim" fill="#404040">
                        <set attributeName="fill" to="#808080" begin="arrowLeft.mouseover" end="arrowLeft.mouseout"/>
                  </use>
                  <path fill="none" stroke="white" stroke-width="1.5" d="M0,-3.0v7 M-2.5,-0.5L0,-3.0L2.5,-0.5"/>
                </g>
        </g>
        <svg viewBox="0 0 15 15" width="100%" height="30px" preserveAspectRatio="xMaxYMin meet">
         <g id="arrow_out" transform="scale(0.3 0.3)">
          <a xlink:href="_i_control_8h__dep__incl_org.svg" target="_base">
           <rect id="button" ry="5" rx="5" y="6" x="6" height="38" width="38"
                fill="#f2f5e9" fill-opacity="0.5" stroke="#606060" stroke-width="1.0"/>
           <path id="arrow"
             d="M 11.500037,31.436501 C 11.940474,20.09759 22.043105,11.32322 32.158766,21.979434 L 37.068811,17.246167 C 37.068811,17.246167 37.088388,32 37.088388,32 L 22.160133,31.978069 C 22.160133,31.978069 26.997745,27.140456 26.997745,27.140456 C 18.528582,18.264221 13.291696,25.230495 11.500037,31.436501 z"
             style="fill:#404040;"/>
          </a>
         </g>
        </svg>
</svg>
