<?xml version="1.0" encoding="UTF-8" standalone="no"?>
<!DOCTYPE svg PUBLIC "-//W3C//DTD SVG 1.1//EN"
 "http://www.w3.org/Graphics/SVG/1.1/DTD/svg11.dtd">
<!-- Generated by graphviz version 2.36.0 (20140111.2315)
 -->
<!-- Title: IGraphics.h Pages: 1 -->
<!--zoomable 252 -->
<svg id="main" version="1.1" xmlns="http://www.w3.org/2000/svg" xmlns:xlink="http://www.w3.org/1999/xlink" xml:space="preserve" onload="init(evt)">
<style type="text/css"><![CDATA[
.edge:hover path { stroke: red; }
.edge:hover polygon { stroke: red; fill: red; }
]]></style>
<script type="text/javascript"><![CDATA[
var edges = document.getElementsByTagName('g');
if (edges && edges.length) {
  for (var i=0;i<edges.length;i++) {
    if (edges[i].id.substr(0,4)=='edge') {
      edges[i].setAttribute('class','edge');
    }
  }
}
]]></script>
        <defs>
                <circle id="rim" cx="0" cy="0" r="7"/>
                <circle id="rim2" cx="0" cy="0" r="3.5"/>
                <g id="zoomPlus">
                        <use xlink:href="#rim" fill="#404040">
                                <set attributeName="fill" to="#808080" begin="zoomplus.mouseover" end="zoomplus.mouseout"/>
                        </use>
                        <path d="M-4,0h8M0,-4v8" fill="none" stroke="white" stroke-width="1.5" pointer-events="none"/>
                </g>
                <g id="zoomMin">
                        <use xlink:href="#rim" fill="#404040">
                                <set attributeName="fill" to="#808080" begin="zoomminus.mouseover" end="zoomminus.mouseout"/>
                        </use>
                        <path d="M-4,0h8" fill="none" stroke="white" stroke-width="1.5" pointer-events="none"/>
                </g>
                <g id="dirArrow">
                        <path fill="none" stroke="white" stroke-width="1.5" d="M0,-3.0v7 M-2.5,-0.5L0,-3.0L2.5,-0.5"/>
                </g>
               <g id="resetDef">
                       <use xlink:href="#rim2" fill="#404040">
                               <set attributeName="fill" to="#808080" begin="reset.mouseover" end="reset.mouseout"/>
                       </use>
               </g>
        </defs>

<script type="text/javascript">
var viewWidth = 1140;
var viewHeight = 252;
var sectionId = 'dynsection-1';
</script>
<script xlink:href="svgpan.js"/>
<svg id="graph" class="graph">
<g id="viewport">
<title>IGraphics.h</title>
<polygon fill="white" stroke="none" points="-4,4 -4,-248 1136,-248 1136,4 -4,4"/>
<!-- Node1 -->
<g id="node1" class="node"><title>Node1</title>
<polygon fill="#bfbfbf" stroke="black" points="535.5,-224.5 535.5,-243.5 602.5,-243.5 602.5,-224.5 535.5,-224.5"/>
<text text-anchor="middle" x="569" y="-231.5" font-family="Helvetica,sans-Serif" font-size="10.00">IGraphics.h</text>
</g>
<!-- Node2 -->
<g id="node2" class="node"><title>Node2</title>
<g id="a_node2"><a xlink:href="_i_control_8h.html" target="_top" xlink:title="The lowest level base class of an IGraphics control. ">
<polygon fill="white" stroke="black" points="254.5,-168.5 254.5,-187.5 313.5,-187.5 313.5,-168.5 254.5,-168.5"/>
<text text-anchor="middle" x="284" y="-175.5" font-family="Helvetica,sans-Serif" font-size="10.00">IControl.h</text>
</a>
</g>
</g>
<!-- Node1&#45;&gt;Node2 -->
<g id="edge1" class="edge"><title>Node1&#45;&gt;Node2</title>
<path fill="none" stroke="midnightblue" d="M525.176,-225.609C466.416,-214.979 363.942,-195.548 313.529,-185.461"/>
<polygon fill="midnightblue" stroke="midnightblue" points="524.804,-229.098 535.266,-227.424 526.044,-222.209 524.804,-229.098"/>
</g>
<!-- Node8 -->
<g id="node8" class="node"><title>Node8</title>
<g id="a_node8"><a xlink:href="_i_graphics_8cpp_source.html" target="_top" xlink:title="IGraphics.cpp">
<polygon fill="white" stroke="black" points="268.5,-56.5 268.5,-75.5 345.5,-75.5 345.5,-56.5 268.5,-56.5"/>
<text text-anchor="middle" x="307" y="-63.5" font-family="Helvetica,sans-Serif" font-size="10.00">IGraphics.cpp</text>
</a>
</g>
</g>
<!-- Node1&#45;&gt;Node8 -->
<g id="edge10" class="edge"><title>Node1&#45;&gt;Node8</title>
<path fill="none" stroke="midnightblue" d="M525.477,-222.339C503.677,-215.336 477.96,-204.372 459,-188 429.289,-162.345 443.586,-137.8 414,-112 393.344,-93.9868 364.437,-82.4125 341.875,-75.5195"/>
<polygon fill="midnightblue" stroke="midnightblue" points="524.594,-225.729 535.179,-225.284 526.627,-219.03 524.594,-225.729"/>
</g>
<!-- Node10 -->
<g id="node10" class="node"><title>Node10</title>
<g id="a_node10"><a xlink:href="_i_graphics_a_g_g_8h_source.html" target="_top" xlink:title="IGraphicsAGG.h">
<polygon fill="white" stroke="black" points="468.5,-168.5 468.5,-187.5 557.5,-187.5 557.5,-168.5 468.5,-168.5"/>
<text text-anchor="middle" x="513" y="-175.5" font-family="Helvetica,sans-Serif" font-size="10.00">IGraphicsAGG.h</text>
</a>
</g>
</g>
<!-- Node1&#45;&gt;Node10 -->
<g id="edge11" class="edge"><title>Node1&#45;&gt;Node10</title>
<path fill="none" stroke="midnightblue" d="M552.67,-217.253C542.735,-207.673 530.412,-195.791 522.161,-187.834"/>
<polygon fill="midnightblue" stroke="midnightblue" points="550.375,-219.902 560.003,-224.324 555.234,-214.863 550.375,-219.902"/>
</g>
<!-- Node12 -->
<g id="node12" class="node"><title>Node12</title>
<g id="a_node12"><a xlink:href="_i_graphics_cairo_8h_source.html" target="_top" xlink:title="IGraphicsCairo.h">
<polygon fill="white" stroke="black" points="581,-168.5 581,-187.5 671,-187.5 671,-168.5 581,-168.5"/>
<text text-anchor="middle" x="626" y="-175.5" font-family="Helvetica,sans-Serif" font-size="10.00">IGraphicsCairo.h</text>
</a>
</g>
</g>
<!-- Node1&#45;&gt;Node12 -->
<g id="edge13" class="edge"><title>Node1&#45;&gt;Node12</title>
<path fill="none" stroke="midnightblue" d="M585.621,-217.253C595.734,-207.673 608.277,-195.791 616.675,-187.834"/>
<polygon fill="midnightblue" stroke="midnightblue" points="583.01,-214.906 578.158,-224.324 587.825,-219.987 583.01,-214.906"/>
</g>
<!-- Node14 -->
<g id="node14" class="node"><title>Node14</title>
<g id="a_node14"><a xlink:href="_i_graphics_lice_8h_source.html" target="_top" xlink:title="IGraphicsLice.h">
<polygon fill="white" stroke="black" points="702.5,-168.5 702.5,-187.5 787.5,-187.5 787.5,-168.5 702.5,-168.5"/>
<text text-anchor="middle" x="745" y="-175.5" font-family="Helvetica,sans-Serif" font-size="10.00">IGraphicsLice.h</text>
</a>
</g>
</g>
<!-- Node1&#45;&gt;Node14 -->
<g id="edge15" class="edge"><title>Node1&#45;&gt;Node14</title>
<path fill="none" stroke="midnightblue" d="M606.689,-221.436C639.872,-211.255 687.428,-196.664 717.243,-187.516"/>
<polygon fill="midnightblue" stroke="midnightblue" points="605.421,-218.164 596.888,-224.444 607.475,-224.856 605.421,-218.164"/>
</g>
<!-- Node21 -->
<g id="node21" class="node"><title>Node21</title>
<g id="a_node21"><a xlink:href="_i_graphics_nano_v_g_8h_source.html" target="_top" xlink:title="IGraphicsNanoVG.h">
<polygon fill="white" stroke="black" points="806,-168.5 806,-187.5 910,-187.5 910,-168.5 806,-168.5"/>
<text text-anchor="middle" x="858" y="-175.5" font-family="Helvetica,sans-Serif" font-size="10.00">IGraphicsNanoVG.h</text>
</a>
</g>
</g>
<!-- Node1&#45;&gt;Node21 -->
<g id="edge26" class="edge"><title>Node1&#45;&gt;Node21</title>
<path fill="none" stroke="midnightblue" d="M612.632,-224.847C666.409,-214.799 757.377,-197.802 812.152,-187.567"/>
<polygon fill="midnightblue" stroke="midnightblue" points="611.905,-221.423 602.718,-226.7 613.19,-228.303 611.905,-221.423"/>
</g>
<!-- Node23 -->
<g id="node23" class="node"><title>Node23</title>
<g id="a_node23"><a xlink:href="_i_plug_base_graphics_8cpp_source.html" target="_top" xlink:title="IPlugBaseGraphics.cpp">
<polygon fill="white" stroke="black" points="928.5,-168.5 928.5,-187.5 1047.5,-187.5 1047.5,-168.5 928.5,-168.5"/>
<text text-anchor="middle" x="988" y="-175.5" font-family="Helvetica,sans-Serif" font-size="10.00">IPlugBaseGraphics.cpp</text>
</a>
</g>
</g>
<!-- Node1&#45;&gt;Node23 -->
<g id="edge28" class="edge"><title>Node1&#45;&gt;Node23</title>
<path fill="none" stroke="midnightblue" d="M612.873,-227.385C679.172,-218.895 808.848,-202.265 919,-188 921.995,-187.612 925.063,-187.214 928.162,-186.812"/>
<polygon fill="midnightblue" stroke="midnightblue" points="612.264,-223.935 602.79,-228.677 613.153,-230.878 612.264,-223.935"/>
</g>
<!-- Node2&#45;&gt;Node1 -->
<g id="edge3" class="edge"><title>Node2&#45;&gt;Node1</title>
<path fill="none" stroke="midnightblue" d="M323.676,-185.642C380.141,-195.814 482.381,-215.175 535.352,-225.717"/>
<polygon fill="midnightblue" stroke="midnightblue" points="324.148,-182.171 313.688,-183.854 322.915,-189.062 324.148,-182.171"/>
</g>
<!-- Node3 -->
<g id="node3" class="node"><title>Node3</title>
<g id="a_node3"><a xlink:href="_i_auto_g_u_i_8h_source.html" target="_top" xlink:title="IAutoGUI.h">
<polygon fill="white" stroke="black" points="251,-112.5 251,-131.5 317,-131.5 317,-112.5 251,-112.5"/>
<text text-anchor="middle" x="284" y="-119.5" font-family="Helvetica,sans-Serif" font-size="10.00">IAutoGUI.h</text>
</a>
</g>
</g>
<!-- Node2&#45;&gt;Node3 -->
<g id="edge2" class="edge"><title>Node2&#45;&gt;Node3</title>
<path fill="none" stroke="midnightblue" d="M284,-157.805C284,-148.91 284,-138.78 284,-131.751"/>
<polygon fill="midnightblue" stroke="midnightblue" points="280.5,-158.083 284,-168.083 287.5,-158.083 280.5,-158.083"/>
</g>
<!-- Node4 -->
<g id="node4" class="node"><title>Node4</title>
<g id="a_node4"><a xlink:href="_i_control_8cpp_source.html" target="_top" xlink:title="IControl.cpp">
<polygon fill="white" stroke="black" points="335,-112.5 335,-131.5 405,-131.5 405,-112.5 335,-112.5"/>
<text text-anchor="middle" x="370" y="-119.5" font-family="Helvetica,sans-Serif" font-size="10.00">IControl.cpp</text>
</a>
</g>
</g>
<!-- Node2&#45;&gt;Node4 -->
<g id="edge4" class="edge"><title>Node2&#45;&gt;Node4</title>
<path fill="none" stroke="midnightblue" d="M306.455,-162.901C322.224,-152.999 342.814,-140.071 356.217,-131.655"/>
<polygon fill="midnightblue" stroke="midnightblue" points="304.425,-160.042 297.817,-168.324 308.148,-165.97 304.425,-160.042"/>
</g>
<!-- Node5 -->
<g id="node5" class="node"><title>Node5</title>
<g id="a_node5"><a xlink:href="_i_controls_8h.html" target="_top" xlink:title="A collection of IControls for common UI widgets, such as knobs, sliders, switches. ">
<polygon fill="white" stroke="black" points="6.5,-112.5 6.5,-131.5 71.5,-131.5 71.5,-112.5 6.5,-112.5"/>
<text text-anchor="middle" x="39" y="-119.5" font-family="Helvetica,sans-Serif" font-size="10.00">IControls.h</text>
</a>
</g>
</g>
<!-- Node2&#45;&gt;Node5 -->
<g id="edge5" class="edge"><title>Node2&#45;&gt;Node5</title>
<path fill="none" stroke="midnightblue" d="M244.429,-168.278C196.449,-157.703 116.472,-140.075 71.7777,-130.224"/>
<polygon fill="midnightblue" stroke="midnightblue" points="243.928,-171.752 254.447,-170.486 245.435,-164.916 243.928,-171.752"/>
</g>
<!-- Node7 -->
<g id="node7" class="node"><title>Node7</title>
<g id="a_node7"><a xlink:href="_i_graphics_live_edit_8h_source.html" target="_top" xlink:title="IGraphicsLiveEdit.h">
<polygon fill="white" stroke="black" points="131,-112.5 131,-131.5 233,-131.5 233,-112.5 131,-112.5"/>
<text text-anchor="middle" x="182" y="-119.5" font-family="Helvetica,sans-Serif" font-size="10.00">IGraphicsLiveEdit.h</text>
</a>
</g>
</g>
<!-- Node2&#45;&gt;Node7 -->
<g id="edge7" class="edge"><title>Node2&#45;&gt;Node7</title>
<path fill="none" stroke="midnightblue" d="M258.669,-163.59C239.81,-153.605 214.616,-140.267 198.347,-131.655"/>
<polygon fill="midnightblue" stroke="midnightblue" points="257.136,-166.738 267.612,-168.324 260.412,-160.552 257.136,-166.738"/>
</g>
<!-- Node9 -->
<g id="node9" class="node"><title>Node9</title>
<g id="a_node9"><a xlink:href="_i_graphics_mac_8mm_source.html" target="_top" xlink:title="IGraphicsMac.mm">
<polygon fill="white" stroke="black" points="737.5,-0.5 737.5,-19.5 834.5,-19.5 834.5,-0.5 737.5,-0.5"/>
<text text-anchor="middle" x="786" y="-7.5" font-family="Helvetica,sans-Serif" font-size="10.00">IGraphicsMac.mm</text>
</a>
</g>
</g>
<!-- Node2&#45;&gt;Node9 -->
<g id="edge9" class="edge"><title>Node2&#45;&gt;Node9</title>
<path fill="none" stroke="midnightblue" d="M244.106,-175.365C186.764,-171.418 91.1442,-157.947 122,-112 158.672,-57.3919 195.053,-71.4191 259,-56 431.286,-14.4574 643.331,-9.97641 737.262,-10.2868"/>
<polygon fill="midnightblue" stroke="midnightblue" points="244.132,-178.873 254.329,-175.997 244.564,-171.887 244.132,-178.873"/>
</g>
<!-- Node6 -->
<g id="node6" class="node"><title>Node6</title>
<g id="a_node6"><a xlink:href="_i_controls_8cpp_source.html" target="_top" xlink:title="IControls.cpp">
<polygon fill="white" stroke="black" points="-0.5,-56.5 -0.5,-75.5 74.5,-75.5 74.5,-56.5 -0.5,-56.5"/>
<text text-anchor="middle" x="37" y="-63.5" font-family="Helvetica,sans-Serif" font-size="10.00">IControls.cpp</text>
</a>
</g>
</g>
<!-- Node5&#45;&gt;Node6 -->
<g id="edge6" class="edge"><title>Node5&#45;&gt;Node6</title>
<path fill="none" stroke="midnightblue" d="M38.2891,-101.805C37.9596,-92.9102 37.5844,-82.7798 37.3241,-75.7511"/>
<polygon fill="midnightblue" stroke="midnightblue" points="34.8019,-102.219 38.6697,-112.083 41.7971,-101.96 34.8019,-102.219"/>
</g>
<!-- Node7&#45;&gt;Node8 -->
<g id="edge8" class="edge"><title>Node7&#45;&gt;Node8</title>
<path fill="none" stroke="midnightblue" d="M211.241,-108.368C234.65,-98.2553 266.841,-84.3486 287.286,-75.5164"/>
<polygon fill="midnightblue" stroke="midnightblue" points="209.599,-105.265 201.807,-112.444 212.375,-111.691 209.599,-105.265"/>
</g>
<!-- Node11 -->
<g id="node11" class="node"><title>Node11</title>
<g id="a_node11"><a xlink:href="_i_graphics_a_g_g_8cpp_source.html" target="_top" xlink:title="IGraphicsAGG.cpp">
<polygon fill="white" stroke="black" points="461.5,-112.5 461.5,-131.5 560.5,-131.5 560.5,-112.5 461.5,-112.5"/>
<text text-anchor="middle" x="511" y="-119.5" font-family="Helvetica,sans-Serif" font-size="10.00">IGraphicsAGG.cpp</text>
</a>
</g>
</g>
<!-- Node10&#45;&gt;Node11 -->
<g id="edge12" class="edge"><title>Node10&#45;&gt;Node11</title>
<path fill="none" stroke="midnightblue" d="M512.289,-157.805C511.96,-148.91 511.584,-138.78 511.324,-131.751"/>
<polygon fill="midnightblue" stroke="midnightblue" points="508.802,-158.219 512.67,-168.083 515.797,-157.96 508.802,-158.219"/>
</g>
<!-- Node13 -->
<g id="node13" class="node"><title>Node13</title>
<g id="a_node13"><a xlink:href="_i_graphics_cairo_8cpp_source.html" target="_top" xlink:title="IGraphicsCairo.cpp">
<polygon fill="white" stroke="black" points="578.5,-112.5 578.5,-131.5 679.5,-131.5 679.5,-112.5 578.5,-112.5"/>
<text text-anchor="middle" x="629" y="-119.5" font-family="Helvetica,sans-Serif" font-size="10.00">IGraphicsCairo.cpp</text>
</a>
</g>
</g>
<!-- Node12&#45;&gt;Node13 -->
<g id="edge14" class="edge"><title>Node12&#45;&gt;Node13</title>
<path fill="none" stroke="midnightblue" d="M627.066,-157.805C627.561,-148.91 628.123,-138.78 628.514,-131.751"/>
<polygon fill="midnightblue" stroke="midnightblue" points="623.556,-157.904 626.495,-168.083 630.545,-158.293 623.556,-157.904"/>
</g>
<!-- Node15 -->
<g id="node15" class="node"><title>Node15</title>
<g id="a_node15"><a xlink:href="_i_graphics_lice_8cpp_source.html" target="_top" xlink:title="IGraphicsLice.cpp">
<polygon fill="white" stroke="black" points="697.5,-112.5 697.5,-131.5 792.5,-131.5 792.5,-112.5 697.5,-112.5"/>
<text text-anchor="middle" x="745" y="-119.5" font-family="Helvetica,sans-Serif" font-size="10.00">IGraphicsLice.cpp</text>
</a>
</g>
</g>
<!-- Node14&#45;&gt;Node15 -->
<g id="edge16" class="edge"><title>Node14&#45;&gt;Node15</title>
<path fill="none" stroke="midnightblue" d="M745,-157.805C745,-148.91 745,-138.78 745,-131.751"/>
<polygon fill="midnightblue" stroke="midnightblue" points="741.5,-158.083 745,-168.083 748.5,-158.083 741.5,-158.083"/>
</g>
<!-- Node17 -->
<g id="node17" class="node"><title>Node17</title>
<g id="a_node17"><a xlink:href="_i_graphics_mac_8h_source.html" target="_top" xlink:title="IGraphicsMac.h">
<polygon fill="white" stroke="black" points="913,-112.5 913,-131.5 999,-131.5 999,-112.5 913,-112.5"/>
<text text-anchor="middle" x="956" y="-119.5" font-family="Helvetica,sans-Serif" font-size="10.00">IGraphicsMac.h</text>
</a>
</g>
</g>
<!-- Node14&#45;&gt;Node17 -->
<g id="edge19" class="edge"><title>Node14&#45;&gt;Node17</title>
<path fill="none" stroke="midnightblue" d="M788.142,-165.959C827.994,-155.76 886.363,-140.822 922.723,-131.516"/>
<polygon fill="midnightblue" stroke="midnightblue" points="787.254,-162.573 778.434,-168.444 788.989,-169.355 787.254,-162.573"/>
</g>
<!-- Node20 -->
<g id="node20" class="node"><title>Node20</title>
<g id="a_node20"><a xlink:href="_i_graphics_win_8h_source.html" target="_top" xlink:title="IGraphicsWin.h">
<polygon fill="white" stroke="black" points="811,-112.5 811,-131.5 895,-131.5 895,-112.5 811,-112.5"/>
<text text-anchor="middle" x="853" y="-119.5" font-family="Helvetica,sans-Serif" font-size="10.00">IGraphicsWin.h</text>
</a>
</g>
</g>
<!-- Node14&#45;&gt;Node20 -->
<g id="edge24" class="edge"><title>Node14&#45;&gt;Node20</title>
<path fill="none" stroke="midnightblue" d="M771.548,-163.726C791.546,-153.727 818.387,-140.307 835.691,-131.655"/>
<polygon fill="midnightblue" stroke="midnightblue" points="769.731,-160.721 762.352,-168.324 772.862,-166.982 769.731,-160.721"/>
</g>
<!-- Node15&#45;&gt;Node9 -->
<g id="edge17" class="edge"><title>Node15&#45;&gt;Node9</title>
<path fill="none" stroke="midnightblue" d="M743.985,-101.921C743.933,-88.6093 745.199,-70.6719 751,-56 756.677,-41.6418 768.432,-28.0725 776.75,-19.6623"/>
<polygon fill="midnightblue" stroke="midnightblue" points="740.496,-102.339 744.289,-112.231 747.492,-102.132 740.496,-102.339"/>
</g>
<!-- Node16 -->
<g id="node16" class="node"><title>Node16</title>
<g id="a_node16"><a xlink:href="_i_graphics_win_8cpp_source.html" target="_top" xlink:title="IGraphicsWin.cpp">
<polygon fill="white" stroke="black" points="760.5,-56.5 760.5,-75.5 855.5,-75.5 855.5,-56.5 760.5,-56.5"/>
<text text-anchor="middle" x="808" y="-63.5" font-family="Helvetica,sans-Serif" font-size="10.00">IGraphicsWin.cpp</text>
</a>
</g>
</g>
<!-- Node15&#45;&gt;Node16 -->
<g id="edge18" class="edge"><title>Node15&#45;&gt;Node16</title>
<path fill="none" stroke="midnightblue" d="M763.04,-105.537C774.273,-95.9087 788.319,-83.8694 797.694,-75.8339"/>
<polygon fill="midnightblue" stroke="midnightblue" points="760.437,-103.159 755.122,-112.324 764.992,-108.473 760.437,-103.159"/>
</g>
<!-- Node17&#45;&gt;Node9 -->
<g id="edge20" class="edge"><title>Node17&#45;&gt;Node9</title>
<path fill="none" stroke="midnightblue" d="M936.456,-106.402C918.074,-92.8631 889.624,-72.3944 864,-56 842.93,-42.5189 817.729,-28.311 801.791,-19.5509"/>
<polygon fill="midnightblue" stroke="midnightblue" points="934.496,-109.306 944.615,-112.444 938.662,-103.68 934.496,-109.306"/>
</g>
<!-- Node18 -->
<g id="node18" class="node"><title>Node18</title>
<g id="a_node18"><a xlink:href="_i_graphics_mac__view_8h_source.html" target="_top" xlink:title="IGraphicsMac_view.h">
<polygon fill="white" stroke="black" points="912.5,-56.5 912.5,-75.5 1023.5,-75.5 1023.5,-56.5 912.5,-56.5"/>
<text text-anchor="middle" x="968" y="-63.5" font-family="Helvetica,sans-Serif" font-size="10.00">IGraphicsMac_view.h</text>
</a>
</g>
</g>
<!-- Node17&#45;&gt;Node18 -->
<g id="edge21" class="edge"><title>Node17&#45;&gt;Node18</title>
<path fill="none" stroke="midnightblue" d="M960.2,-102.101C962.192,-93.1357 964.476,-82.8579 966.055,-75.7511"/>
<polygon fill="midnightblue" stroke="midnightblue" points="956.734,-101.562 957.982,-112.083 963.568,-103.08 956.734,-101.562"/>
</g>
<!-- Node18&#45;&gt;Node9 -->
<g id="edge22" class="edge"><title>Node18&#45;&gt;Node9</title>
<path fill="none" stroke="midnightblue" d="M929.469,-53.5677C895.136,-43.381 845.667,-28.7034 814.704,-19.5164"/>
<polygon fill="midnightblue" stroke="midnightblue" points="928.579,-56.9544 939.162,-56.4435 930.57,-50.2436 928.579,-56.9544"/>
</g>
<!-- Node19 -->
<g id="node19" class="node"><title>Node19</title>
<g id="a_node19"><a xlink:href="_i_graphics_mac__view_8mm_source.html" target="_top" xlink:title="IGraphicsMac_view.mm">
<polygon fill="white" stroke="black" points="907,-0.5 907,-19.5 1029,-19.5 1029,-0.5 907,-0.5"/>
<text text-anchor="middle" x="968" y="-7.5" font-family="Helvetica,sans-Serif" font-size="10.00">IGraphicsMac_view.mm</text>
</a>
</g>
</g>
<!-- Node18&#45;&gt;Node19 -->
<g id="edge23" class="edge"><title>Node18&#45;&gt;Node19</title>
<path fill="none" stroke="midnightblue" d="M968,-45.8045C968,-36.9102 968,-26.7798 968,-19.7511"/>
<polygon fill="midnightblue" stroke="midnightblue" points="964.5,-46.083 968,-56.083 971.5,-46.083 964.5,-46.083"/>
</g>
<!-- Node20&#45;&gt;Node16 -->
<g id="edge25" class="edge"><title>Node20&#45;&gt;Node16</title>
<path fill="none" stroke="midnightblue" d="M838.953,-104.144C831.113,-94.7357 821.671,-83.4046 815.293,-75.7511"/>
<polygon fill="midnightblue" stroke="midnightblue" points="836.479,-106.641 845.569,-112.083 841.856,-102.16 836.479,-106.641"/>
</g>
<!-- Node22 -->
<g id="node22" class="node"><title>Node22</title>
<g id="a_node22"><a xlink:href="_i_graphics_nano_v_g_8cpp_source.html" target="_top" xlink:title="IGraphicsNanoVG.cpp">
<polygon fill="white" stroke="black" points="1017.5,-112.5 1017.5,-131.5 1132.5,-131.5 1132.5,-112.5 1017.5,-112.5"/>
<text text-anchor="middle" x="1075" y="-119.5" font-family="Helvetica,sans-Serif" font-size="10.00">IGraphicsNanoVG.cpp</text>
</a>
</g>
</g>
<!-- Node21&#45;&gt;Node22 -->
<g id="edge27" class="edge"><title>Node21&#45;&gt;Node22</title>
<path fill="none" stroke="midnightblue" d="M902.108,-166.024C943.1,-155.823 1003.3,-140.841 1040.78,-131.516"/>
<polygon fill="midnightblue" stroke="midnightblue" points="901.243,-162.632 892.384,-168.444 902.934,-169.425 901.243,-162.632"/>
</g>
</g>
</svg>
        <g id="navigator" transform="translate(0 0)" fill="#404254">
                <rect fill="#f2f5e9" fill-opacity="0.5" stroke="#606060" stroke-width=".5" x="0" y="0" width="60" height="60"/>
                <use id="zoomplus" xlink:href="#zoomPlus" x="17" y="9" onmousedown="handleZoom(evt,'in')"/>
                <use id="zoomminus" xlink:href="#zoomMin" x="42" y="9" onmousedown="handleZoom(evt,'out')"/>
                <use id="reset" xlink:href="#resetDef" x="30" y="36" onmousedown="handleReset()"/>
                <g id="arrowUp" xlink:href="#dirArrow" transform="translate(30 24)" onmousedown="handlePan(0,-1)">
                  <use xlink:href="#rim" fill="#404040">
                        <set attributeName="fill" to="#808080" begin="arrowUp.mouseover" end="arrowUp.mouseout"/>
                  </use>
                  <path fill="none" stroke="white" stroke-width="1.5" d="M0,-3.0v7 M-2.5,-0.5L0,-3.0L2.5,-0.5"/>
                </g>
                <g id="arrowRight" xlink:href="#dirArrow" transform="rotate(90) translate(36 -43)" onmousedown="handlePan(1,0)">
                  <use xlink:href="#rim" fill="#404040">
                        <set attributeName="fill" to="#808080" begin="arrowRight.mouseover" end="arrowRight.mouseout"/>
                  </use>
                  <path fill="none" stroke="white" stroke-width="1.5" d="M0,-3.0v7 M-2.5,-0.5L0,-3.0L2.5,-0.5"/>
                </g>
                <g id="arrowDown" xlink:href="#dirArrow" transform="rotate(180) translate(-30 -48)" onmousedown="handlePan(0,1)">
                  <use xlink:href="#rim" fill="#404040">
                        <set attributeName="fill" to="#808080" begin="arrowDown.mouseover" end="arrowDown.mouseout"/>
                  </use>
                  <path fill="none" stroke="white" stroke-width="1.5" d="M0,-3.0v7 M-2.5,-0.5L0,-3.0L2.5,-0.5"/>
                </g>
                <g id="arrowLeft" xlink:href="#dirArrow" transform="rotate(270) translate(-36 17)" onmousedown="handlePan(-1,0)">
                  <use xlink:href="#rim" fill="#404040">
                        <set attributeName="fill" to="#808080" begin="arrowLeft.mouseover" end="arrowLeft.mouseout"/>
                  </use>
                  <path fill="none" stroke="white" stroke-width="1.5" d="M0,-3.0v7 M-2.5,-0.5L0,-3.0L2.5,-0.5"/>
                </g>
        </g>
        <svg viewBox="0 0 15 15" width="100%" height="30px" preserveAspectRatio="xMaxYMin meet">
         <g id="arrow_out" transform="scale(0.3 0.3)">
          <a xlink:href="_i_graphics_8h__dep__incl_org.svg" target="_base">
           <rect id="button" ry="5" rx="5" y="6" x="6" height="38" width="38"
                fill="#f2f5e9" fill-opacity="0.5" stroke="#606060" stroke-width="1.0"/>
           <path id="arrow"
             d="M 11.500037,31.436501 C 11.940474,20.09759 22.043105,11.32322 32.158766,21.979434 L 37.068811,17.246167 C 37.068811,17.246167 37.088388,32 37.088388,32 L 22.160133,31.978069 C 22.160133,31.978069 26.997745,27.140456 26.997745,27.140456 C 18.528582,18.264221 13.291696,25.230495 11.500037,31.436501 z"
             style="fill:#404040;"/>
          </a>
         </g>
        </svg>
</svg>
