<?xml version="1.0" encoding="UTF-8" standalone="no"?>
<!DOCTYPE svg PUBLIC "-//W3C//DTD SVG 1.1//EN"
 "http://www.w3.org/Graphics/SVG/1.1/DTD/svg11.dtd">
<!-- Generated by graphviz version 2.36.0 (20140111.2315)
 -->
<!-- Title: IPlugConstants.h Pages: 1 -->
<svg width="1524pt" height="656pt"
 viewBox="0.00 0.00 1524.00 656.00" xmlns="http://www.w3.org/2000/svg" xmlns:xlink="http://www.w3.org/1999/xlink">
<g id="graph0" class="graph" transform="scale(1 1) rotate(0) translate(4 652)">
<title>IPlugConstants.h</title>
<polygon fill="white" stroke="none" points="-4,4 -4,-652 1520,-652 1520,4 -4,4"/>
<!-- Node1 -->
<g id="node1" class="node"><title>Node1</title>
<polygon fill="#bfbfbf" stroke="black" points="615,-628.5 615,-647.5 707,-647.5 707,-628.5 615,-628.5"/>
<text text-anchor="middle" x="661" y="-635.5" font-family="Helvetica,sans-Serif" font-size="10.00">IPlugConstants.h</text>
</g>
<!-- Node2 -->
<g id="node2" class="node"><title>Node2</title>
<g id="a_node2"><a xlink:href="_i_plug_utilities_8h.html" target="_top" xlink:title="Utility functions and macros. ">
<polygon fill="white" stroke="black" points="794,-572.5 794,-591.5 874,-591.5 874,-572.5 794,-572.5"/>
<text text-anchor="middle" x="834" y="-579.5" font-family="Helvetica,sans-Serif" font-size="10.00">IPlugUtilities.h</text>
</a>
</g>
</g>
<!-- Node1&#45;&gt;Node2 -->
<g id="edge1" class="edge"><title>Node1&#45;&gt;Node2</title>
<path fill="none" stroke="midnightblue" d="M698.047,-625.436C730.664,-615.255 777.41,-600.664 806.716,-591.516"/>
<polygon fill="midnightblue" stroke="midnightblue" points="696.915,-622.123 688.412,-628.444 699.001,-628.805 696.915,-622.123"/>
</g>
<!-- Node31 -->
<g id="node31" class="node"><title>Node31</title>
<g id="a_node31"><a xlink:href="_i_plug_base_8h.html" target="_top" xlink:title="The lowest level base class of an IPlug plug&#45;in. ">
<polygon fill="white" stroke="black" points="635,-336.5 635,-355.5 705,-355.5 705,-336.5 635,-336.5"/>
<text text-anchor="middle" x="670" y="-343.5" font-family="Helvetica,sans-Serif" font-size="10.00">IPlugBase.h</text>
</a>
</g>
</g>
<!-- Node1&#45;&gt;Node31 -->
<g id="edge67" class="edge"><title>Node1&#45;&gt;Node31</title>
<path fill="none" stroke="midnightblue" d="M639.948,-622.451C615.359,-603.556 578,-568.089 578,-527 578,-527 578,-527 578,-469 578,-433.751 576.229,-420.479 597,-392 609.545,-374.799 630.853,-362.774 647.22,-355.509"/>
<polygon fill="midnightblue" stroke="midnightblue" points="637.909,-625.296 648.031,-628.425 642.07,-619.667 637.909,-625.296"/>
</g>
<!-- Node47 -->
<g id="node47" class="node"><title>Node47</title>
<g id="a_node47"><a xlink:href="_i_plug_structs_8h_source.html" target="_top" xlink:title="IPlugStructs.h">
<polygon fill="white" stroke="black" points="606.5,-398.5 606.5,-417.5 685.5,-417.5 685.5,-398.5 606.5,-398.5"/>
<text text-anchor="middle" x="646" y="-405.5" font-family="Helvetica,sans-Serif" font-size="10.00">IPlugStructs.h</text>
</a>
</g>
</g>
<!-- Node1&#45;&gt;Node47 -->
<g id="edge68" class="edge"><title>Node1&#45;&gt;Node47</title>
<path fill="none" stroke="midnightblue" d="M659.757,-618.1C656.672,-571.22 648.762,-450.977 646.57,-417.668"/>
<polygon fill="midnightblue" stroke="midnightblue" points="656.281,-618.592 660.43,-628.341 663.266,-618.132 656.281,-618.592"/>
</g>
<!-- Node48 -->
<g id="node48" class="node"><title>Node48</title>
<g id="a_node48"><a xlink:href="_i_plug_midi_8h_source.html" target="_top" xlink:title="IPlugMidi.h">
<polygon fill="white" stroke="black" points="664.5,-516.5 664.5,-535.5 729.5,-535.5 729.5,-516.5 664.5,-516.5"/>
<text text-anchor="middle" x="697" y="-523.5" font-family="Helvetica,sans-Serif" font-size="10.00">IPlugMidi.h</text>
</a>
</g>
</g>
<!-- Node1&#45;&gt;Node48 -->
<g id="edge69" class="edge"><title>Node1&#45;&gt;Node48</title>
<path fill="none" stroke="midnightblue" d="M666.998,-618.674C674.868,-594.625 688.364,-553.388 694.188,-535.591"/>
<polygon fill="midnightblue" stroke="midnightblue" points="663.609,-617.776 663.825,-628.368 670.262,-619.953 663.609,-617.776"/>
</g>
<!-- Node3 -->
<g id="node3" class="node"><title>Node3</title>
<g id="a_node3"><a xlink:href="_i_plug_logger_8h_source.html" target="_top" xlink:title="IPlugLogger.h">
<polygon fill="white" stroke="black" points="975.5,-516.5 975.5,-535.5 1052.5,-535.5 1052.5,-516.5 975.5,-516.5"/>
<text text-anchor="middle" x="1014" y="-523.5" font-family="Helvetica,sans-Serif" font-size="10.00">IPlugLogger.h</text>
</a>
</g>
</g>
<!-- Node2&#45;&gt;Node3 -->
<g id="edge2" class="edge"><title>Node2&#45;&gt;Node3</title>
<path fill="none" stroke="midnightblue" d="M872.108,-569.568C906.063,-559.381 954.989,-544.703 985.612,-535.516"/>
<polygon fill="midnightblue" stroke="midnightblue" points="871.094,-566.218 862.522,-572.444 873.106,-572.922 871.094,-566.218"/>
</g>
<!-- Node2&#45;&gt;Node31 -->
<g id="edge63" class="edge"><title>Node2&#45;&gt;Node31</title>
<path fill="none" stroke="midnightblue" d="M843.507,-563.532C855.526,-538.869 872.546,-493.154 854,-460 821.149,-401.274 743.904,-369.346 700.672,-355.509"/>
<polygon fill="midnightblue" stroke="midnightblue" points="840.388,-561.945 838.93,-572.439 846.614,-565.144 840.388,-561.945"/>
</g>
<!-- Node2&#45;&gt;Node48 -->
<g id="edge61" class="edge"><title>Node2&#45;&gt;Node48</title>
<path fill="none" stroke="midnightblue" d="M802.977,-568.772C777.243,-558.629 741.314,-544.467 718.606,-535.516"/>
<polygon fill="midnightblue" stroke="midnightblue" points="801.705,-572.033 812.292,-572.444 804.272,-565.52 801.705,-572.033"/>
</g>
<!-- Node49 -->
<g id="node49" class="node"><title>Node49</title>
<g id="a_node49"><a xlink:href="_i_plug_parameter_8h_source.html" target="_top" xlink:title="IPlugParameter.h">
<polygon fill="white" stroke="black" points="748,-516.5 748,-535.5 840,-535.5 840,-516.5 748,-516.5"/>
<text text-anchor="middle" x="794" y="-523.5" font-family="Helvetica,sans-Serif" font-size="10.00">IPlugParameter.h</text>
</a>
</g>
</g>
<!-- Node2&#45;&gt;Node49 -->
<g id="edge64" class="edge"><title>Node2&#45;&gt;Node49</title>
<path fill="none" stroke="midnightblue" d="M821.3,-563.855C814.374,-554.505 806.094,-543.327 800.482,-535.751"/>
<polygon fill="midnightblue" stroke="midnightblue" points="818.63,-566.131 827.395,-572.083 824.255,-561.964 818.63,-566.131"/>
</g>
<!-- Node4 -->
<g id="node4" class="node"><title>Node4</title>
<g id="a_node4"><a xlink:href="_i_plug_platform_8h.html" target="_top" xlink:title="Include to get consistently named preprocessor macros for different platforms and logging functionali...">
<polygon fill="white" stroke="black" points="978,-460.5 978,-479.5 1062,-479.5 1062,-460.5 978,-460.5"/>
<text text-anchor="middle" x="1020" y="-467.5" font-family="Helvetica,sans-Serif" font-size="10.00">IPlugPlatform.h</text>
</a>
</g>
</g>
<!-- Node3&#45;&gt;Node4 -->
<g id="edge3" class="edge"><title>Node3&#45;&gt;Node4</title>
<path fill="none" stroke="midnightblue" d="M1016.1,-506.101C1017.1,-497.136 1018.24,-486.858 1019.03,-479.751"/>
<polygon fill="midnightblue" stroke="midnightblue" points="1012.62,-505.758 1014.99,-516.083 1019.57,-506.531 1012.62,-505.758"/>
</g>
<!-- Node4&#45;&gt;Node2 -->
<g id="edge36" class="edge"><title>Node4&#45;&gt;Node2</title>
<path fill="none" stroke="midnightblue" d="M996.425,-484.942C957.435,-508.001 880.649,-553.412 848.595,-572.368"/>
<polygon fill="midnightblue" stroke="midnightblue" points="998.647,-487.694 1005.47,-479.591 995.084,-481.669 998.647,-487.694"/>
</g>
<!-- Node5 -->
<g id="node5" class="node"><title>Node5</title>
<g id="a_node5"><a xlink:href="_i_graphics_constants_8h_source.html" target="_top" xlink:title="IGraphicsConstants.h">
<polygon fill="white" stroke="black" points="1219,-398.5 1219,-417.5 1331,-417.5 1331,-398.5 1219,-398.5"/>
<text text-anchor="middle" x="1275" y="-405.5" font-family="Helvetica,sans-Serif" font-size="10.00">IGraphicsConstants.h</text>
</a>
</g>
</g>
<!-- Node4&#45;&gt;Node5 -->
<g id="edge4" class="edge"><title>Node4&#45;&gt;Node5</title>
<path fill="none" stroke="midnightblue" d="M1066.09,-458.155C1115.68,-446.487 1193.51,-428.174 1238.86,-417.503"/>
<polygon fill="midnightblue" stroke="midnightblue" points="1065.2,-454.77 1056.26,-460.467 1066.8,-461.584 1065.2,-454.77"/>
</g>
<!-- Node16 -->
<g id="node16" class="node"><title>Node16</title>
<g id="a_node16"><a xlink:href="_i_graphics_cairo_8h_source.html" target="_top" xlink:title="IGraphicsCairo.h">
<polygon fill="white" stroke="black" points="1293,-112.5 1293,-131.5 1383,-131.5 1383,-112.5 1293,-112.5"/>
<text text-anchor="middle" x="1338" y="-119.5" font-family="Helvetica,sans-Serif" font-size="10.00">IGraphicsCairo.h</text>
</a>
</g>
</g>
<!-- Node4&#45;&gt;Node16 -->
<g id="edge32" class="edge"><title>Node4&#45;&gt;Node16</title>
<path fill="none" stroke="midnightblue" d="M1072.41,-468.452C1152.62,-466.514 1300.6,-458.251 1339,-424 1365.39,-400.463 1359,-382.358 1359,-347 1359,-347 1359,-347 1359,-233 1359,-194.699 1346.56,-150.206 1340.83,-131.732"/>
<polygon fill="midnightblue" stroke="midnightblue" points="1071.95,-464.961 1062.03,-468.676 1072.1,-471.959 1071.95,-464.961"/>
</g>
<!-- Node18 -->
<g id="node18" class="node"><title>Node18</title>
<g id="a_node18"><a xlink:href="_i_graphics_lice_8h_source.html" target="_top" xlink:title="IGraphicsLice.h">
<polygon fill="white" stroke="black" points="1082.5,-112.5 1082.5,-131.5 1167.5,-131.5 1167.5,-112.5 1082.5,-112.5"/>
<text text-anchor="middle" x="1125" y="-119.5" font-family="Helvetica,sans-Serif" font-size="10.00">IGraphicsLice.h</text>
</a>
</g>
</g>
<!-- Node4&#45;&gt;Node18 -->
<g id="edge33" class="edge"><title>Node4&#45;&gt;Node18</title>
<path fill="none" stroke="midnightblue" d="M1020.75,-450.291C1021.63,-426.351 1023,-383.597 1023,-347 1023,-347 1023,-347 1023,-233 1023,-183.777 1078.6,-147.278 1107.7,-131.545"/>
<polygon fill="midnightblue" stroke="midnightblue" points="1017.24,-450.296 1020.36,-460.423 1024.24,-450.565 1017.24,-450.296"/>
</g>
<!-- Node22 -->
<g id="node22" class="node"><title>Node22</title>
<g id="a_node22"><a xlink:href="_i_graphics_nano_v_g_8h_source.html" target="_top" xlink:title="IGraphicsNanoVG.h">
<polygon fill="white" stroke="black" points="1401,-112.5 1401,-131.5 1505,-131.5 1505,-112.5 1401,-112.5"/>
<text text-anchor="middle" x="1453" y="-119.5" font-family="Helvetica,sans-Serif" font-size="10.00">IGraphicsNanoVG.h</text>
</a>
</g>
</g>
<!-- Node4&#45;&gt;Node22 -->
<g id="edge34" class="edge"><title>Node4&#45;&gt;Node22</title>
<path fill="none" stroke="midnightblue" d="M1072.32,-466.864C1155.72,-462.681 1314.36,-451.312 1363,-424 1401.31,-402.487 1425,-390.937 1425,-347 1425,-347 1425,-347 1425,-233 1425,-194.179 1441.58,-149.966 1449.22,-131.649"/>
<polygon fill="midnightblue" stroke="midnightblue" points="1072.11,-463.37 1062.29,-467.351 1072.45,-470.362 1072.11,-463.37"/>
</g>
<!-- Node27 -->
<g id="node27" class="node"><title>Node27</title>
<g id="a_node27"><a xlink:href="_i_graphics_structs_8h_source.html" target="_top" xlink:title="IGraphicsStructs.h">
<polygon fill="white" stroke="black" points="1076,-336.5 1076,-355.5 1174,-355.5 1174,-336.5 1076,-336.5"/>
<text text-anchor="middle" x="1125" y="-343.5" font-family="Helvetica,sans-Serif" font-size="10.00">IGraphicsStructs.h</text>
</a>
</g>
</g>
<!-- Node4&#45;&gt;Node27 -->
<g id="edge30" class="edge"><title>Node4&#45;&gt;Node27</title>
<path fill="none" stroke="midnightblue" d="M1072.47,-468.403C1106.47,-464.939 1148.48,-454.211 1171,-424 1179.5,-412.597 1176.51,-405.11 1171,-392 1164.5,-376.553 1149.83,-363.759 1138.79,-355.811"/>
<polygon fill="midnightblue" stroke="midnightblue" points="1071.89,-464.94 1062.21,-469.259 1072.47,-471.916 1071.89,-464.94"/>
</g>
<!-- Node28 -->
<g id="node28" class="node"><title>Node28</title>
<g id="a_node28"><a xlink:href="_i_plug__include__in__plug__hdr_8h.html" target="_top" xlink:title="IPlug header include. ">
<polygon fill="white" stroke="black" points="1051.5,-393 1051.5,-423 1162.5,-423 1162.5,-393 1051.5,-393"/>
<text text-anchor="start" x="1059.5" y="-411" font-family="Helvetica,sans-Serif" font-size="10.00">IPlug_include_in_plug</text>
<text text-anchor="middle" x="1107" y="-400" font-family="Helvetica,sans-Serif" font-size="10.00">_hdr.h</text>
</a>
</g>
</g>
<!-- Node4&#45;&gt;Node28 -->
<g id="edge35" class="edge"><title>Node4&#45;&gt;Node28</title>
<path fill="none" stroke="midnightblue" d="M1040.85,-454.619C1054.68,-445.083 1072.74,-432.627 1086.5,-423.141"/>
<polygon fill="midnightblue" stroke="midnightblue" points="1038.71,-451.845 1032.46,-460.403 1042.68,-457.607 1038.71,-451.845"/>
</g>
<!-- Node29 -->
<g id="node29" class="node"><title>Node29</title>
<g id="a_node29"><a xlink:href="_i_plug_a_a_x_8h.html" target="_top" xlink:title="AAX API base class for an IPlug plug&#45;in, inherits from IPlugBase or IPlugBaseGraphics. ">
<polygon fill="white" stroke="black" points="665,-168.5 665,-187.5 733,-187.5 733,-168.5 665,-168.5"/>
<text text-anchor="middle" x="699" y="-175.5" font-family="Helvetica,sans-Serif" font-size="10.00">IPlugAAX.h</text>
</a>
</g>
</g>
<!-- Node4&#45;&gt;Node29 -->
<g id="edge37" class="edge"><title>Node4&#45;&gt;Node29</title>
<path fill="none" stroke="midnightblue" d="M1007.72,-451.72C975,-405.71 887.933,-283.473 884,-280 833.12,-235.068 758.84,-202.222 721.787,-187.538"/>
<polygon fill="midnightblue" stroke="midnightblue" points="1005.02,-453.958 1013.66,-460.081 1010.72,-449.902 1005.02,-453.958"/>
</g>
<!-- Node4&#45;&gt;Node31 -->
<g id="edge39" class="edge"><title>Node4&#45;&gt;Node31</title>
<path fill="none" stroke="midnightblue" d="M992.992,-455.995C975.6,-447.386 952.653,-435.585 933,-424 910.913,-410.979 908.644,-401.917 885,-392 824.689,-366.702 748.694,-355.104 705.097,-350.203"/>
<polygon fill="midnightblue" stroke="midnightblue" points="991.507,-459.165 1002.03,-460.428 994.59,-452.881 991.507,-459.165"/>
</g>
<!-- Node34 -->
<g id="node34" class="node"><title>Node34</title>
<g id="a_node34"><a xlink:href="_i_plug_a_p_p_8h.html" target="_top" xlink:title="Standalone application base class for an IPlug plug&#45;in, inherits from IPlugBase or IPlugBaseGraphics...">
<polygon fill="white" stroke="black" points="751,-168.5 751,-187.5 819,-187.5 819,-168.5 751,-168.5"/>
<text text-anchor="middle" x="785" y="-175.5" font-family="Helvetica,sans-Serif" font-size="10.00">IPlugAPP.h</text>
</a>
</g>
</g>
<!-- Node4&#45;&gt;Node34 -->
<g id="edge60" class="edge"><title>Node4&#45;&gt;Node34</title>
<path fill="none" stroke="midnightblue" d="M1011.43,-451.041C1001.06,-427.648 985,-385.217 985,-347 985,-347 985,-347 985,-289 985,-249.077 956.78,-245.278 923,-224 905.249,-212.819 852.213,-197.146 817.299,-187.555"/>
<polygon fill="midnightblue" stroke="midnightblue" points="1008.36,-452.739 1015.71,-460.367 1014.72,-449.819 1008.36,-452.739"/>
</g>
<!-- Node4&#45;&gt;Node47 -->
<g id="edge58" class="edge"><title>Node4&#45;&gt;Node47</title>
<path fill="none" stroke="midnightblue" d="M967.573,-460.589C891.88,-448.446 753.64,-426.268 685.757,-415.378"/>
<polygon fill="midnightblue" stroke="midnightblue" points="967.396,-464.106 977.824,-462.234 968.505,-457.194 967.396,-464.106"/>
</g>
<!-- Node6 -->
<g id="node6" class="node"><title>Node6</title>
<g id="a_node6"><a xlink:href="_i_graphics_8h.html" target="_top" xlink:title="The lowest level base class of an IGraphics context. ">
<polygon fill="white" stroke="black" points="1091.5,-168.5 1091.5,-187.5 1158.5,-187.5 1158.5,-168.5 1091.5,-168.5"/>
<text text-anchor="middle" x="1125" y="-175.5" font-family="Helvetica,sans-Serif" font-size="10.00">IGraphics.h</text>
</a>
</g>
</g>
<!-- Node5&#45;&gt;Node6 -->
<g id="edge5" class="edge"><title>Node5&#45;&gt;Node6</title>
<path fill="none" stroke="midnightblue" d="M1257.09,-391.4C1246.7,-381.812 1233.78,-368.922 1224,-356 1178.96,-296.473 1140.63,-214.153 1128.78,-187.613"/>
<polygon fill="midnightblue" stroke="midnightblue" points="1255,-394.228 1264.77,-398.319 1259.69,-389.026 1255,-394.228"/>
</g>
<!-- Node25 -->
<g id="node25" class="node"><title>Node25</title>
<g id="a_node25"><a xlink:href="_i_graphics_web_8h_source.html" target="_top" xlink:title="IGraphicsWeb.h">
<polygon fill="white" stroke="black" points="1233.5,-336.5 1233.5,-355.5 1320.5,-355.5 1320.5,-336.5 1233.5,-336.5"/>
<text text-anchor="middle" x="1277" y="-343.5" font-family="Helvetica,sans-Serif" font-size="10.00">IGraphicsWeb.h</text>
</a>
</g>
</g>
<!-- Node5&#45;&gt;Node25 -->
<g id="edge28" class="edge"><title>Node5&#45;&gt;Node25</title>
<path fill="none" stroke="midnightblue" d="M1275.63,-388.16C1275.99,-377.248 1276.43,-364.04 1276.71,-355.581"/>
<polygon fill="midnightblue" stroke="midnightblue" points="1272.12,-388.292 1275.29,-398.403 1279.12,-388.526 1272.12,-388.292"/>
</g>
<!-- Node7 -->
<g id="node7" class="node"><title>Node7</title>
<g id="a_node7"><a xlink:href="_i_control_8h.html" target="_top" xlink:title="The lowest level base class of an IGraphics control. ">
<polygon fill="white" stroke="black" points="611.5,-224.5 611.5,-243.5 670.5,-243.5 670.5,-224.5 611.5,-224.5"/>
<text text-anchor="middle" x="641" y="-231.5" font-family="Helvetica,sans-Serif" font-size="10.00">IControl.h</text>
</a>
</g>
</g>
<!-- Node6&#45;&gt;Node7 -->
<g id="edge6" class="edge"><title>Node6&#45;&gt;Node7</title>
<path fill="none" stroke="midnightblue" d="M1081.13,-184.368C983.919,-195.62 752.962,-221.352 670.648,-230.058"/>
<polygon fill="midnightblue" stroke="midnightblue" points="1081.68,-187.828 1091.21,-183.197 1080.87,-180.875 1081.68,-187.828"/>
</g>
<!-- Node13 -->
<g id="node13" class="node"><title>Node13</title>
<g id="a_node13"><a xlink:href="_i_graphics_8cpp_source.html" target="_top" xlink:title="IGraphics.cpp">
<polygon fill="white" stroke="black" points="850.5,-112.5 850.5,-131.5 927.5,-131.5 927.5,-112.5 850.5,-112.5"/>
<text text-anchor="middle" x="889" y="-119.5" font-family="Helvetica,sans-Serif" font-size="10.00">IGraphics.cpp</text>
</a>
</g>
</g>
<!-- Node6&#45;&gt;Node13 -->
<g id="edge15" class="edge"><title>Node6&#45;&gt;Node13</title>
<path fill="none" stroke="midnightblue" d="M1081.49,-167.045C1036.96,-156.856 968.486,-141.188 926.34,-131.544"/>
<polygon fill="midnightblue" stroke="midnightblue" points="1080.91,-170.502 1091.44,-169.32 1082.47,-163.678 1080.91,-170.502"/>
</g>
<!-- Node15 -->
<g id="node15" class="node"><title>Node15</title>
<g id="a_node15"><a xlink:href="_i_graphics_a_g_g_8h_source.html" target="_top" xlink:title="IGraphicsAGG.h">
<polygon fill="white" stroke="red" points="1185.5,-112.5 1185.5,-131.5 1274.5,-131.5 1274.5,-112.5 1185.5,-112.5"/>
<text text-anchor="middle" x="1230" y="-119.5" font-family="Helvetica,sans-Serif" font-size="10.00">IGraphicsAGG.h</text>
</a>
</g>
</g>
<!-- Node6&#45;&gt;Node15 -->
<g id="edge16" class="edge"><title>Node6&#45;&gt;Node15</title>
<path fill="none" stroke="midnightblue" d="M1150.81,-163.726C1170.25,-153.727 1196.35,-140.307 1213.17,-131.655"/>
<polygon fill="midnightblue" stroke="midnightblue" points="1149.16,-160.638 1141.87,-168.324 1152.36,-166.863 1149.16,-160.638"/>
</g>
<!-- Node6&#45;&gt;Node16 -->
<g id="edge17" class="edge"><title>Node6&#45;&gt;Node16</title>
<path fill="none" stroke="midnightblue" d="M1168.55,-165.959C1208.78,-155.76 1267.7,-140.822 1304.41,-131.516"/>
<polygon fill="midnightblue" stroke="midnightblue" points="1167.58,-162.593 1158.75,-168.444 1169.3,-169.379 1167.58,-162.593"/>
</g>
<!-- Node6&#45;&gt;Node18 -->
<g id="edge19" class="edge"><title>Node6&#45;&gt;Node18</title>
<path fill="none" stroke="midnightblue" d="M1125,-157.805C1125,-148.91 1125,-138.78 1125,-131.751"/>
<polygon fill="midnightblue" stroke="midnightblue" points="1121.5,-158.083 1125,-168.083 1128.5,-158.083 1121.5,-158.083"/>
</g>
<!-- Node6&#45;&gt;Node22 -->
<g id="edge25" class="edge"><title>Node6&#45;&gt;Node22</title>
<path fill="none" stroke="midnightblue" d="M1168.5,-169.839C1228.64,-159.937 1337.03,-142.092 1401.26,-131.519"/>
<polygon fill="midnightblue" stroke="midnightblue" points="1167.86,-166.397 1158.56,-171.475 1169,-173.304 1167.86,-166.397"/>
</g>
<!-- Node24 -->
<g id="node24" class="node"><title>Node24</title>
<g id="a_node24"><a xlink:href="_i_plug_base_graphics_8cpp_source.html" target="_top" xlink:title="IPlugBaseGraphics.cpp">
<polygon fill="white" stroke="black" points="945.5,-112.5 945.5,-131.5 1064.5,-131.5 1064.5,-112.5 945.5,-112.5"/>
<text text-anchor="middle" x="1005" y="-119.5" font-family="Helvetica,sans-Serif" font-size="10.00">IPlugBaseGraphics.cpp</text>
</a>
</g>
</g>
<!-- Node6&#45;&gt;Node24 -->
<g id="edge27" class="edge"><title>Node6&#45;&gt;Node24</title>
<path fill="none" stroke="midnightblue" d="M1096.63,-164.232C1074.18,-154.131 1043.46,-140.309 1023.93,-131.516"/>
<polygon fill="midnightblue" stroke="midnightblue" points="1095.43,-167.532 1105.99,-168.444 1098.3,-161.148 1095.43,-167.532"/>
</g>
<!-- Node7&#45;&gt;Node6 -->
<g id="edge8" class="edge"><title>Node7&#45;&gt;Node6</title>
<path fill="none" stroke="midnightblue" d="M680.786,-228.106C774.02,-217.285 1004.77,-191.562 1091.48,-182.352"/>
<polygon fill="midnightblue" stroke="midnightblue" points="680.163,-224.654 670.636,-229.288 680.974,-231.607 680.163,-224.654"/>
</g>
<!-- Node8 -->
<g id="node8" class="node"><title>Node8</title>
<g id="a_node8"><a xlink:href="_i_auto_g_u_i_8h_source.html" target="_top" xlink:title="IAutoGUI.h">
<polygon fill="white" stroke="black" points="455,-168.5 455,-187.5 521,-187.5 521,-168.5 455,-168.5"/>
<text text-anchor="middle" x="488" y="-175.5" font-family="Helvetica,sans-Serif" font-size="10.00">IAutoGUI.h</text>
</a>
</g>
</g>
<!-- Node7&#45;&gt;Node8 -->
<g id="edge7" class="edge"><title>Node7&#45;&gt;Node8</title>
<path fill="none" stroke="midnightblue" d="M607.111,-221.039C578.323,-210.879 537.713,-196.546 512.13,-187.516"/>
<polygon fill="midnightblue" stroke="midnightblue" points="606.162,-224.416 616.757,-224.444 608.492,-217.815 606.162,-224.416"/>
</g>
<!-- Node9 -->
<g id="node9" class="node"><title>Node9</title>
<g id="a_node9"><a xlink:href="_i_control_8cpp_source.html" target="_top" xlink:title="IControl.cpp">
<polygon fill="white" stroke="black" points="539,-168.5 539,-187.5 609,-187.5 609,-168.5 539,-168.5"/>
<text text-anchor="middle" x="574" y="-175.5" font-family="Helvetica,sans-Serif" font-size="10.00">IControl.cpp</text>
</a>
</g>
</g>
<!-- Node7&#45;&gt;Node9 -->
<g id="edge9" class="edge"><title>Node7&#45;&gt;Node9</title>
<path fill="none" stroke="midnightblue" d="M622.165,-217.82C610.162,-208.145 595.028,-195.948 584.961,-187.834"/>
<polygon fill="midnightblue" stroke="midnightblue" points="620.253,-220.774 630.235,-224.324 624.646,-215.324 620.253,-220.774"/>
</g>
<!-- Node10 -->
<g id="node10" class="node"><title>Node10</title>
<g id="a_node10"><a xlink:href="_i_controls_8h.html" target="_top" xlink:title="A collection of IControls for common UI widgets, such as knobs, sliders, switches. ">
<polygon fill="white" stroke="black" points="371.5,-168.5 371.5,-187.5 436.5,-187.5 436.5,-168.5 371.5,-168.5"/>
<text text-anchor="middle" x="404" y="-175.5" font-family="Helvetica,sans-Serif" font-size="10.00">IControls.h</text>
</a>
</g>
</g>
<!-- Node7&#45;&gt;Node10 -->
<g id="edge10" class="edge"><title>Node7&#45;&gt;Node10</title>
<path fill="none" stroke="midnightblue" d="M601.507,-224.002C555.28,-213.469 479.588,-196.223 436.572,-186.422"/>
<polygon fill="midnightblue" stroke="midnightblue" points="600.935,-227.461 611.463,-226.27 602.49,-220.636 600.935,-227.461"/>
</g>
<!-- Node12 -->
<g id="node12" class="node"><title>Node12</title>
<g id="a_node12"><a xlink:href="_i_graphics_live_edit_8h_source.html" target="_top" xlink:title="IGraphicsLiveEdit.h">
<polygon fill="white" stroke="black" points="837,-168.5 837,-187.5 939,-187.5 939,-168.5 837,-168.5"/>
<text text-anchor="middle" x="888" y="-175.5" font-family="Helvetica,sans-Serif" font-size="10.00">IGraphicsLiveEdit.h</text>
</a>
</g>
</g>
<!-- Node7&#45;&gt;Node12 -->
<g id="edge12" class="edge"><title>Node7&#45;&gt;Node12</title>
<path fill="none" stroke="midnightblue" d="M680.745,-224.311C726.951,-214.209 802.738,-197.64 848.737,-187.584"/>
<polygon fill="midnightblue" stroke="midnightblue" points="679.816,-220.931 670.794,-226.486 681.311,-227.77 679.816,-220.931"/>
</g>
<!-- Node14 -->
<g id="node14" class="node"><title>Node14</title>
<g id="a_node14"><a xlink:href="_i_graphics_mac_8mm_source.html" target="_top" xlink:title="IGraphicsMac.mm">
<polygon fill="white" stroke="black" points="912.5,-0.5 912.5,-19.5 1009.5,-19.5 1009.5,-0.5 912.5,-0.5"/>
<text text-anchor="middle" x="961" y="-7.5" font-family="Helvetica,sans-Serif" font-size="10.00">IGraphicsMac.mm</text>
</a>
</g>
</g>
<!-- Node7&#45;&gt;Node14 -->
<g id="edge14" class="edge"><title>Node7&#45;&gt;Node14</title>
<path fill="none" stroke="midnightblue" d="M636.335,-214.249C631.081,-188.356 626.007,-141.512 649,-112 712.247,-30.8214 841.718,-13.926 912.369,-11.0075"/>
<polygon fill="midnightblue" stroke="midnightblue" points="632.975,-215.259 638.589,-224.244 639.803,-213.719 632.975,-215.259"/>
</g>
<!-- Node11 -->
<g id="node11" class="node"><title>Node11</title>
<g id="a_node11"><a xlink:href="_i_controls_8cpp_source.html" target="_top" xlink:title="IControls.cpp">
<polygon fill="white" stroke="black" points="387.5,-112.5 387.5,-131.5 462.5,-131.5 462.5,-112.5 387.5,-112.5"/>
<text text-anchor="middle" x="425" y="-119.5" font-family="Helvetica,sans-Serif" font-size="10.00">IControls.cpp</text>
</a>
</g>
</g>
<!-- Node10&#45;&gt;Node11 -->
<g id="edge11" class="edge"><title>Node10&#45;&gt;Node11</title>
<path fill="none" stroke="midnightblue" d="M411.121,-158.69C414.66,-149.589 418.772,-139.014 421.597,-131.751"/>
<polygon fill="midnightblue" stroke="midnightblue" points="407.83,-157.494 407.468,-168.083 414.354,-160.032 407.83,-157.494"/>
</g>
<!-- Node12&#45;&gt;Node13 -->
<g id="edge13" class="edge"><title>Node12&#45;&gt;Node13</title>
<path fill="none" stroke="midnightblue" d="M888.355,-157.805C888.52,-148.91 888.708,-138.78 888.838,-131.751"/>
<polygon fill="midnightblue" stroke="midnightblue" points="884.851,-158.02 888.165,-168.083 891.85,-158.15 884.851,-158.02"/>
</g>
<!-- Node17 -->
<g id="node17" class="node"><title>Node17</title>
<g id="a_node17"><a xlink:href="_i_graphics_cairo_8cpp_source.html" target="_top" xlink:title="IGraphicsCairo.cpp">
<polygon fill="white" stroke="black" points="1281.5,-56.5 1281.5,-75.5 1382.5,-75.5 1382.5,-56.5 1281.5,-56.5"/>
<text text-anchor="middle" x="1332" y="-63.5" font-family="Helvetica,sans-Serif" font-size="10.00">IGraphicsCairo.cpp</text>
</a>
</g>
</g>
<!-- Node16&#45;&gt;Node17 -->
<g id="edge18" class="edge"><title>Node16&#45;&gt;Node17</title>
<path fill="none" stroke="midnightblue" d="M1335.9,-102.101C1334.9,-93.1357 1333.76,-82.8579 1332.97,-75.7511"/>
<polygon fill="midnightblue" stroke="midnightblue" points="1332.43,-102.531 1337.01,-112.083 1339.38,-101.758 1332.43,-102.531"/>
</g>
<!-- Node19 -->
<g id="node19" class="node"><title>Node19</title>
<g id="a_node19"><a xlink:href="_i_graphics_lice_8cpp_source.html" target="_top" xlink:title="IGraphicsLice.cpp">
<polygon fill="white" stroke="red" points="913.5,-56.5 913.5,-75.5 1008.5,-75.5 1008.5,-56.5 913.5,-56.5"/>
<text text-anchor="middle" x="961" y="-63.5" font-family="Helvetica,sans-Serif" font-size="10.00">IGraphicsLice.cpp</text>
</a>
</g>
</g>
<!-- Node18&#45;&gt;Node19 -->
<g id="edge20" class="edge"><title>Node18&#45;&gt;Node19</title>
<path fill="none" stroke="midnightblue" d="M1089.48,-109.304C1058.58,-99.1294 1014.53,-84.6246 986.865,-75.5164"/>
<polygon fill="midnightblue" stroke="midnightblue" points="1088.42,-112.64 1099.01,-112.444 1090.61,-105.992 1088.42,-112.64"/>
</g>
<!-- Node20 -->
<g id="node20" class="node"><title>Node20</title>
<g id="a_node20"><a xlink:href="_i_graphics_mac_8h_source.html" target="_top" xlink:title="IGraphicsMac.h">
<polygon fill="white" stroke="red" points="1027,-56.5 1027,-75.5 1113,-75.5 1113,-56.5 1027,-56.5"/>
<text text-anchor="middle" x="1070" y="-63.5" font-family="Helvetica,sans-Serif" font-size="10.00">IGraphicsMac.h</text>
</a>
</g>
</g>
<!-- Node18&#45;&gt;Node20 -->
<g id="edge22" class="edge"><title>Node18&#45;&gt;Node20</title>
<path fill="none" stroke="midnightblue" d="M1108.71,-105.002C1098.96,-95.4329 1086.95,-83.6389 1078.91,-75.7511"/>
<polygon fill="midnightblue" stroke="midnightblue" points="1106.33,-107.575 1115.92,-112.083 1111.23,-102.58 1106.33,-107.575"/>
</g>
<!-- Node21 -->
<g id="node21" class="node"><title>Node21</title>
<g id="a_node21"><a xlink:href="_i_graphics_win_8h_source.html" target="_top" xlink:title="IGraphicsWin.h">
<polygon fill="white" stroke="red" points="1131,-56.5 1131,-75.5 1215,-75.5 1215,-56.5 1131,-56.5"/>
<text text-anchor="middle" x="1173" y="-63.5" font-family="Helvetica,sans-Serif" font-size="10.00">IGraphicsWin.h</text>
</a>
</g>
</g>
<!-- Node18&#45;&gt;Node21 -->
<g id="edge24" class="edge"><title>Node18&#45;&gt;Node21</title>
<path fill="none" stroke="midnightblue" d="M1139.73,-104.431C1148.14,-94.9673 1158.35,-83.4827 1165.22,-75.7511"/>
<polygon fill="midnightblue" stroke="midnightblue" points="1136.95,-102.284 1132.93,-112.083 1142.19,-106.934 1136.95,-102.284"/>
</g>
<!-- Node19&#45;&gt;Node14 -->
<g id="edge21" class="edge"><title>Node19&#45;&gt;Node14</title>
<path fill="none" stroke="midnightblue" d="M961,-45.8045C961,-36.9102 961,-26.7798 961,-19.7511"/>
<polygon fill="midnightblue" stroke="midnightblue" points="957.5,-46.083 961,-56.083 964.5,-46.083 957.5,-46.083"/>
</g>
<!-- Node20&#45;&gt;Node14 -->
<g id="edge23" class="edge"><title>Node20&#45;&gt;Node14</title>
<path fill="none" stroke="midnightblue" d="M1043.48,-51.8622C1023.27,-41.8492 996.013,-28.3458 978.469,-19.6545"/>
<polygon fill="midnightblue" stroke="midnightblue" points="1041.97,-55.0209 1052.49,-56.324 1045.08,-48.7485 1041.97,-55.0209"/>
</g>
<!-- Node23 -->
<g id="node23" class="node"><title>Node23</title>
<g id="a_node23"><a xlink:href="_i_graphics_nano_v_g_8cpp_source.html" target="_top" xlink:title="IGraphicsNanoVG.cpp">
<polygon fill="white" stroke="black" points="1400.5,-56.5 1400.5,-75.5 1515.5,-75.5 1515.5,-56.5 1400.5,-56.5"/>
<text text-anchor="middle" x="1458" y="-63.5" font-family="Helvetica,sans-Serif" font-size="10.00">IGraphicsNanoVG.cpp</text>
</a>
</g>
</g>
<!-- Node22&#45;&gt;Node23 -->
<g id="edge26" class="edge"><title>Node22&#45;&gt;Node23</title>
<path fill="none" stroke="midnightblue" d="M1454.75,-102.101C1455.58,-93.1357 1456.53,-82.8579 1457.19,-75.7511"/>
<polygon fill="midnightblue" stroke="midnightblue" points="1451.26,-101.803 1453.83,-112.083 1458.23,-102.448 1451.26,-101.803"/>
</g>
<!-- Node26 -->
<g id="node26" class="node"><title>Node26</title>
<g id="a_node26"><a xlink:href="_i_graphics_web_8cpp_source.html" target="_top" xlink:title="IGraphicsWeb.cpp">
<polygon fill="white" stroke="black" points="1230,-280.5 1230,-299.5 1328,-299.5 1328,-280.5 1230,-280.5"/>
<text text-anchor="middle" x="1279" y="-287.5" font-family="Helvetica,sans-Serif" font-size="10.00">IGraphicsWeb.cpp</text>
</a>
</g>
</g>
<!-- Node25&#45;&gt;Node26 -->
<g id="edge29" class="edge"><title>Node25&#45;&gt;Node26</title>
<path fill="none" stroke="midnightblue" d="M1277.71,-325.805C1278.04,-316.91 1278.42,-306.78 1278.68,-299.751"/>
<polygon fill="midnightblue" stroke="midnightblue" points="1274.2,-325.96 1277.33,-336.083 1281.2,-326.219 1274.2,-325.96"/>
</g>
<!-- Node27&#45;&gt;Node6 -->
<g id="edge31" class="edge"><title>Node27&#45;&gt;Node6</title>
<path fill="none" stroke="midnightblue" d="M1125,-325.93C1125,-289.92 1125,-213.231 1125,-187.568"/>
<polygon fill="midnightblue" stroke="midnightblue" points="1121.5,-326.075 1125,-336.075 1128.5,-326.075 1121.5,-326.075"/>
</g>
<!-- Node30 -->
<g id="node30" class="node"><title>Node30</title>
<g id="a_node30"><a xlink:href="_i_plug_a_a_x_8cpp_source.html" target="_top" xlink:title="IPlugAAX.cpp">
<polygon fill="white" stroke="black" points="658,-112.5 658,-131.5 736,-131.5 736,-112.5 658,-112.5"/>
<text text-anchor="middle" x="697" y="-119.5" font-family="Helvetica,sans-Serif" font-size="10.00">IPlugAAX.cpp</text>
</a>
</g>
</g>
<!-- Node29&#45;&gt;Node30 -->
<g id="edge38" class="edge"><title>Node29&#45;&gt;Node30</title>
<path fill="none" stroke="midnightblue" d="M698.289,-157.805C697.96,-148.91 697.584,-138.78 697.324,-131.751"/>
<polygon fill="midnightblue" stroke="midnightblue" points="694.802,-158.219 698.67,-168.083 701.797,-157.96 694.802,-158.219"/>
</g>
<!-- Node32 -->
<g id="node32" class="node"><title>Node32</title>
<g id="a_node32"><a xlink:href="_i_plug_base_graphics_8h.html" target="_top" xlink:title="An IPlugBase class for an IPlug plug&#45;in that uses IGraphics for it&#39;s UI. ">
<polygon fill="white" stroke="black" points="615.5,-280.5 615.5,-299.5 724.5,-299.5 724.5,-280.5 615.5,-280.5"/>
<text text-anchor="middle" x="670" y="-287.5" font-family="Helvetica,sans-Serif" font-size="10.00">IPlugBaseGraphics.h</text>
</a>
</g>
</g>
<!-- Node31&#45;&gt;Node32 -->
<g id="edge40" class="edge"><title>Node31&#45;&gt;Node32</title>
<path fill="none" stroke="midnightblue" d="M670,-325.805C670,-316.91 670,-306.78 670,-299.751"/>
<polygon fill="midnightblue" stroke="midnightblue" points="666.5,-326.083 670,-336.083 673.5,-326.083 666.5,-326.083"/>
</g>
<!-- Node44 -->
<g id="node44" class="node"><title>Node44</title>
<g id="a_node44"><a xlink:href="_i_plug_a_u___view_factory_8mm_source.html" target="_top" xlink:title="IPlugAU_ViewFactory.mm">
<polygon fill="white" stroke="black" points="742.5,-280.5 742.5,-299.5 875.5,-299.5 875.5,-280.5 742.5,-280.5"/>
<text text-anchor="middle" x="809" y="-287.5" font-family="Helvetica,sans-Serif" font-size="10.00">IPlugAU_ViewFactory.mm</text>
</a>
</g>
</g>
<!-- Node31&#45;&gt;Node44 -->
<g id="edge55" class="edge"><title>Node31&#45;&gt;Node44</title>
<path fill="none" stroke="midnightblue" d="M701.476,-332.772C727.585,-322.629 764.039,-308.467 787.078,-299.516"/>
<polygon fill="midnightblue" stroke="midnightblue" points="700.079,-329.56 692.025,-336.444 702.614,-336.085 700.079,-329.56"/>
</g>
<!-- Node45 -->
<g id="node45" class="node"><title>Node45</title>
<g id="a_node45"><a xlink:href="_i_plug_base_8cpp_source.html" target="_top" xlink:title="IPlugBase.cpp">
<polygon fill="white" stroke="black" points="427,-280.5 427,-299.5 507,-299.5 507,-280.5 427,-280.5"/>
<text text-anchor="middle" x="467" y="-287.5" font-family="Helvetica,sans-Serif" font-size="10.00">IPlugBase.cpp</text>
</a>
</g>
</g>
<!-- Node31&#45;&gt;Node45 -->
<g id="edge56" class="edge"><title>Node31&#45;&gt;Node45</title>
<path fill="none" stroke="midnightblue" d="M628.006,-333.829C589.677,-323.633 533.848,-308.782 499.015,-299.516"/>
<polygon fill="midnightblue" stroke="midnightblue" points="627.27,-337.255 637.834,-336.444 629.07,-330.49 627.27,-337.255"/>
</g>
<!-- Node46 -->
<g id="node46" class="node"><title>Node46</title>
<g id="a_node46"><a xlink:href="_i_plug_w_a_m_8h_source.html" target="_top" xlink:title="IPlugWAM.h">
<polygon fill="white" stroke="black" points="525,-280.5 525,-299.5 597,-299.5 597,-280.5 525,-280.5"/>
<text text-anchor="middle" x="561" y="-287.5" font-family="Helvetica,sans-Serif" font-size="10.00">IPlugWAM.h</text>
</a>
</g>
</g>
<!-- Node31&#45;&gt;Node46 -->
<g id="edge57" class="edge"><title>Node31&#45;&gt;Node46</title>
<path fill="none" stroke="midnightblue" d="M643.481,-331.862C623.27,-321.849 596.013,-308.346 578.469,-299.655"/>
<polygon fill="midnightblue" stroke="midnightblue" points="641.973,-335.021 652.487,-336.324 645.08,-328.748 641.973,-335.021"/>
</g>
<!-- Node32&#45;&gt;Node7 -->
<g id="edge41" class="edge"><title>Node32&#45;&gt;Node7</title>
<path fill="none" stroke="midnightblue" d="M660.324,-270.983C655.402,-261.817 649.642,-251.092 645.7,-243.751"/>
<polygon fill="midnightblue" stroke="midnightblue" points="657.396,-272.929 665.211,-280.083 663.563,-269.617 657.396,-272.929"/>
</g>
<!-- Node32&#45;&gt;Node24 -->
<g id="edge54" class="edge"><title>Node32&#45;&gt;Node24</title>
<path fill="none" stroke="midnightblue" d="M721.667,-278.225C780.106,-264.291 876.317,-235.937 947,-188 970.031,-172.38 989.918,-145.635 999.282,-131.826"/>
<polygon fill="midnightblue" stroke="midnightblue" points="720.86,-274.82 711.917,-280.5 722.45,-281.637 720.86,-274.82"/>
</g>
<!-- Node33 -->
<g id="node33" class="node"><title>Node33</title>
<g id="a_node33"><a xlink:href="_i_plug_base__select_8h_source.html" target="_top" xlink:title="IPlugBase_select.h">
<polygon fill="white" stroke="black" points="266.5,-224.5 266.5,-243.5 367.5,-243.5 367.5,-224.5 266.5,-224.5"/>
<text text-anchor="middle" x="317" y="-231.5" font-family="Helvetica,sans-Serif" font-size="10.00">IPlugBase_select.h</text>
</a>
</g>
</g>
<!-- Node32&#45;&gt;Node33 -->
<g id="edge42" class="edge"><title>Node32&#45;&gt;Node33</title>
<path fill="none" stroke="midnightblue" d="M604.995,-279.056C536.508,-268.579 430.095,-252.301 367.602,-242.741"/>
<polygon fill="midnightblue" stroke="midnightblue" points="604.817,-282.569 615.231,-280.622 605.875,-275.65 604.817,-282.569"/>
</g>
<!-- Node33&#45;&gt;Node29 -->
<g id="edge43" class="edge"><title>Node33&#45;&gt;Node29</title>
<path fill="none" stroke="midnightblue" d="M377.803,-224.405C458.982,-212.929 600.039,-192.989 664.759,-183.84"/>
<polygon fill="midnightblue" stroke="midnightblue" points="377.138,-220.964 367.727,-225.829 378.118,-227.895 377.138,-220.964"/>
</g>
<!-- Node33&#45;&gt;Node34 -->
<g id="edge44" class="edge"><title>Node33&#45;&gt;Node34</title>
<path fill="none" stroke="midnightblue" d="M377.563,-228.521C460.229,-221.966 612.885,-208.295 742,-188 744.863,-187.55 747.824,-187.035 750.79,-186.485"/>
<polygon fill="midnightblue" stroke="midnightblue" points="377.286,-225.031 367.591,-229.304 377.834,-232.01 377.286,-225.031"/>
</g>
<!-- Node36 -->
<g id="node36" class="node"><title>Node36</title>
<g id="a_node36"><a xlink:href="_i_plug_a_u_8h.html" target="_top" xlink:title="AudioUnit v2 API base class for an IPlug plug&#45;in, inherits from IPlugBase or IPlugBaseGraphics. ">
<polygon fill="white" stroke="black" points="201,-168.5 201,-187.5 263,-187.5 263,-168.5 201,-168.5"/>
<text text-anchor="middle" x="232" y="-175.5" font-family="Helvetica,sans-Serif" font-size="10.00">IPlugAU.h</text>
</a>
</g>
</g>
<!-- Node33&#45;&gt;Node36 -->
<g id="edge46" class="edge"><title>Node33&#45;&gt;Node36</title>
<path fill="none" stroke="midnightblue" d="M294.806,-218.901C279.22,-208.999 258.87,-196.071 245.623,-187.655"/>
<polygon fill="midnightblue" stroke="midnightblue" points="293.026,-221.916 303.343,-224.324 296.779,-216.007 293.026,-221.916"/>
</g>
<!-- Node38 -->
<g id="node38" class="node"><title>Node38</title>
<g id="a_node38"><a xlink:href="_i_plug_a_uv3_8h_source.html" target="_top" xlink:title="IPlugAUv3.h">
<polygon fill="white" stroke="black" points="281,-168.5 281,-187.5 353,-187.5 353,-168.5 281,-168.5"/>
<text text-anchor="middle" x="317" y="-175.5" font-family="Helvetica,sans-Serif" font-size="10.00">IPlugAUv3.h</text>
</a>
</g>
</g>
<!-- Node33&#45;&gt;Node38 -->
<g id="edge48" class="edge"><title>Node33&#45;&gt;Node38</title>
<path fill="none" stroke="midnightblue" d="M317,-213.805C317,-204.91 317,-194.78 317,-187.751"/>
<polygon fill="midnightblue" stroke="midnightblue" points="313.5,-214.083 317,-224.083 320.5,-214.083 313.5,-214.083"/>
</g>
<!-- Node40 -->
<g id="node40" class="node"><title>Node40</title>
<g id="a_node40"><a xlink:href="_i_plug_v_s_t_8h.html" target="_top" xlink:title="VST2.4 API base class for an IPlug plug&#45;in, inherits from IPlugBase or IPlugBaseGraphics. ">
<polygon fill="white" stroke="black" points="11.5,-168.5 11.5,-187.5 78.5,-187.5 78.5,-168.5 11.5,-168.5"/>
<text text-anchor="middle" x="45" y="-175.5" font-family="Helvetica,sans-Serif" font-size="10.00">IPlugVST.h</text>
</a>
</g>
</g>
<!-- Node33&#45;&gt;Node40 -->
<g id="edge50" class="edge"><title>Node33&#45;&gt;Node40</title>
<path fill="none" stroke="midnightblue" d="M264.024,-222.483C209.233,-211.605 125.318,-194.946 78.8744,-185.725"/>
<polygon fill="midnightblue" stroke="midnightblue" points="263.411,-225.929 273.901,-224.444 264.774,-219.063 263.411,-225.929"/>
</g>
<!-- Node42 -->
<g id="node42" class="node"><title>Node42</title>
<g id="a_node42"><a xlink:href="_i_plug_v_s_t3_8h.html" target="_top" xlink:title="VST3 base class for an IPlug plug&#45;in, inherits from IPlugBase or IPlugBaseGraphics. ">
<polygon fill="white" stroke="black" points="105,-168.5 105,-187.5 177,-187.5 177,-168.5 105,-168.5"/>
<text text-anchor="middle" x="141" y="-175.5" font-family="Helvetica,sans-Serif" font-size="10.00">IPlugVST3.h</text>
</a>
</g>
</g>
<!-- Node33&#45;&gt;Node42 -->
<g id="edge52" class="edge"><title>Node33&#45;&gt;Node42</title>
<path fill="none" stroke="midnightblue" d="M279.311,-221.436C246.128,-211.255 198.572,-196.664 168.757,-187.516"/>
<polygon fill="midnightblue" stroke="midnightblue" points="278.525,-224.856 289.112,-224.444 280.579,-218.164 278.525,-224.856"/>
</g>
<!-- Node35 -->
<g id="node35" class="node"><title>Node35</title>
<g id="a_node35"><a xlink:href="_i_plug_a_p_p_8cpp_source.html" target="_top" xlink:title="IPlugAPP.cpp">
<polygon fill="white" stroke="black" points="754,-112.5 754,-131.5 832,-131.5 832,-112.5 754,-112.5"/>
<text text-anchor="middle" x="793" y="-119.5" font-family="Helvetica,sans-Serif" font-size="10.00">IPlugAPP.cpp</text>
</a>
</g>
</g>
<!-- Node34&#45;&gt;Node35 -->
<g id="edge45" class="edge"><title>Node34&#45;&gt;Node35</title>
<path fill="none" stroke="midnightblue" d="M787.8,-158.101C789.128,-149.136 790.651,-138.858 791.704,-131.751"/>
<polygon fill="midnightblue" stroke="midnightblue" points="784.324,-157.678 786.321,-168.083 791.249,-158.704 784.324,-157.678"/>
</g>
<!-- Node37 -->
<g id="node37" class="node"><title>Node37</title>
<g id="a_node37"><a xlink:href="_i_plug_a_u_8cpp_source.html" target="_top" xlink:title="IPlugAU.cpp">
<polygon fill="white" stroke="black" points="196,-112.5 196,-131.5 268,-131.5 268,-112.5 196,-112.5"/>
<text text-anchor="middle" x="232" y="-119.5" font-family="Helvetica,sans-Serif" font-size="10.00">IPlugAU.cpp</text>
</a>
</g>
</g>
<!-- Node36&#45;&gt;Node37 -->
<g id="edge47" class="edge"><title>Node36&#45;&gt;Node37</title>
<path fill="none" stroke="midnightblue" d="M232,-157.805C232,-148.91 232,-138.78 232,-131.751"/>
<polygon fill="midnightblue" stroke="midnightblue" points="228.5,-158.083 232,-168.083 235.5,-158.083 228.5,-158.083"/>
</g>
<!-- Node39 -->
<g id="node39" class="node"><title>Node39</title>
<g id="a_node39"><a xlink:href="_i_plug_a_uv3_8mm_source.html" target="_top" xlink:title="IPlugAUv3.mm">
<polygon fill="white" stroke="black" points="286.5,-112.5 286.5,-131.5 369.5,-131.5 369.5,-112.5 286.5,-112.5"/>
<text text-anchor="middle" x="328" y="-119.5" font-family="Helvetica,sans-Serif" font-size="10.00">IPlugAUv3.mm</text>
</a>
</g>
</g>
<!-- Node38&#45;&gt;Node39 -->
<g id="edge49" class="edge"><title>Node38&#45;&gt;Node39</title>
<path fill="none" stroke="midnightblue" d="M320.85,-158.101C322.676,-149.136 324.77,-138.858 326.217,-131.751"/>
<polygon fill="midnightblue" stroke="midnightblue" points="317.383,-157.586 318.816,-168.083 324.242,-158.983 317.383,-157.586"/>
</g>
<!-- Node41 -->
<g id="node41" class="node"><title>Node41</title>
<g id="a_node41"><a xlink:href="_i_plug_v_s_t_8cpp_source.html" target="_top" xlink:title="IPlugVST.cpp">
<polygon fill="white" stroke="black" points="-0.5,-112.5 -0.5,-131.5 76.5,-131.5 76.5,-112.5 -0.5,-112.5"/>
<text text-anchor="middle" x="38" y="-119.5" font-family="Helvetica,sans-Serif" font-size="10.00">IPlugVST.cpp</text>
</a>
</g>
</g>
<!-- Node40&#45;&gt;Node41 -->
<g id="edge51" class="edge"><title>Node40&#45;&gt;Node41</title>
<path fill="none" stroke="midnightblue" d="M42.5501,-158.101C41.388,-149.136 40.0557,-138.858 39.1344,-131.751"/>
<polygon fill="midnightblue" stroke="midnightblue" points="39.0875,-158.616 43.8441,-168.083 46.0294,-157.716 39.0875,-158.616"/>
</g>
<!-- Node43 -->
<g id="node43" class="node"><title>Node43</title>
<g id="a_node43"><a xlink:href="_i_plug_v_s_t3_8cpp_source.html" target="_top" xlink:title="IPlugVST3.cpp">
<polygon fill="white" stroke="black" points="94.5,-112.5 94.5,-131.5 177.5,-131.5 177.5,-112.5 94.5,-112.5"/>
<text text-anchor="middle" x="136" y="-119.5" font-family="Helvetica,sans-Serif" font-size="10.00">IPlugVST3.cpp</text>
</a>
</g>
</g>
<!-- Node42&#45;&gt;Node43 -->
<g id="edge53" class="edge"><title>Node42&#45;&gt;Node43</title>
<path fill="none" stroke="midnightblue" d="M139.25,-158.101C138.42,-149.136 137.468,-138.858 136.81,-131.751"/>
<polygon fill="midnightblue" stroke="midnightblue" points="135.767,-158.448 140.174,-168.083 142.737,-157.803 135.767,-158.448"/>
</g>
<!-- Node47&#45;&gt;Node31 -->
<g id="edge59" class="edge"><title>Node47&#45;&gt;Node31</title>
<path fill="none" stroke="midnightblue" d="M653.262,-388.846C657.677,-377.806 663.113,-364.218 666.568,-355.581"/>
<polygon fill="midnightblue" stroke="midnightblue" points="649.903,-387.819 649.439,-398.403 656.402,-390.419 649.903,-387.819"/>
</g>
<!-- Node48&#45;&gt;Node47 -->
<g id="edge62" class="edge"><title>Node48&#45;&gt;Node47</title>
<path fill="none" stroke="midnightblue" d="M689.109,-507.051C677.949,-481.669 657.999,-436.291 649.739,-417.505"/>
<polygon fill="midnightblue" stroke="midnightblue" points="685.938,-508.536 693.167,-516.281 692.346,-505.718 685.938,-508.536"/>
</g>
<!-- Node49&#45;&gt;Node31 -->
<g id="edge65" class="edge"><title>Node49&#45;&gt;Node31</title>
<path fill="none" stroke="midnightblue" d="M769.352,-511.042C757.167,-503.175 742.976,-492.433 733,-480 706.227,-446.633 712.745,-430.455 694,-392 687.715,-379.107 679.774,-364.511 674.789,-355.531"/>
<polygon fill="midnightblue" stroke="midnightblue" points="767.826,-514.213 778.176,-516.479 771.498,-508.253 767.826,-514.213"/>
</g>
<!-- Node50 -->
<g id="node50" class="node"><title>Node50</title>
<g id="a_node50"><a xlink:href="_i_plug_parameter_8cpp_source.html" target="_top" xlink:title="IPlugParameter.cpp">
<polygon fill="white" stroke="black" points="742.5,-460.5 742.5,-479.5 845.5,-479.5 845.5,-460.5 742.5,-460.5"/>
<text text-anchor="middle" x="794" y="-467.5" font-family="Helvetica,sans-Serif" font-size="10.00">IPlugParameter.cpp</text>
</a>
</g>
</g>
<!-- Node49&#45;&gt;Node50 -->
<g id="edge66" class="edge"><title>Node49&#45;&gt;Node50</title>
<path fill="none" stroke="midnightblue" d="M794,-505.805C794,-496.91 794,-486.78 794,-479.751"/>
<polygon fill="midnightblue" stroke="midnightblue" points="790.5,-506.083 794,-516.083 797.5,-506.083 790.5,-506.083"/>
</g>
</g>
</svg>
