<?xml version="1.0" encoding="UTF-8" standalone="no"?>
<!DOCTYPE svg PUBLIC "-//W3C//DTD SVG 1.1//EN"
 "http://www.w3.org/Graphics/SVG/1.1/DTD/svg11.dtd">
<!-- Generated by graphviz version 2.36.0 (20140111.2315)
 -->
<!-- Title: IPlugBase.h Pages: 1 -->
<svg width="1388pt" height="420pt"
 viewBox="0.00 0.00 1388.00 420.00" xmlns="http://www.w3.org/2000/svg" xmlns:xlink="http://www.w3.org/1999/xlink">
<g id="graph0" class="graph" transform="scale(1 1) rotate(0) translate(4 416)">
<title>IPlugBase.h</title>
<polygon fill="white" stroke="none" points="-4,4 -4,-416 1384,-416 1384,4 -4,4"/>
<!-- Node1 -->
<g id="node1" class="node"><title>Node1</title>
<polygon fill="#bfbfbf" stroke="black" points="906,-392.5 906,-411.5 976,-411.5 976,-392.5 906,-392.5"/>
<text text-anchor="middle" x="941" y="-399.5" font-family="Helvetica,sans-Serif" font-size="10.00">IPlugBase.h</text>
</g>
<!-- Node2 -->
<g id="node2" class="node"><title>Node2</title>
<g id="a_node2"><a xlink:href="_i_plug_base_graphics_8h.html" target="_top" xlink:title="An IPlugBase class for an IPlug plug&#45;in that uses IGraphics for it&#39;s UI. ">
<polygon fill="white" stroke="black" points="685.5,-336.5 685.5,-355.5 794.5,-355.5 794.5,-336.5 685.5,-336.5"/>
<text text-anchor="middle" x="740" y="-343.5" font-family="Helvetica,sans-Serif" font-size="10.00">IPlugBaseGraphics.h</text>
</a>
</g>
</g>
<!-- Node1&#45;&gt;Node2 -->
<g id="edge1" class="edge"><title>Node1&#45;&gt;Node2</title>
<path fill="none" stroke="midnightblue" d="M899.419,-389.829C861.469,-379.633 806.19,-364.782 771.7,-355.516"/>
<polygon fill="midnightblue" stroke="midnightblue" points="898.585,-393.229 909.151,-392.444 900.402,-386.469 898.585,-393.229"/>
</g>
<!-- Node39 -->
<g id="node39" class="node"><title>Node39</title>
<g id="a_node39"><a xlink:href="_i_plug_a_u___view_factory_8mm_source.html" target="_top" xlink:title="IPlugAU_ViewFactory.mm">
<polygon fill="white" stroke="black" points="812.5,-336.5 812.5,-355.5 945.5,-355.5 945.5,-336.5 812.5,-336.5"/>
<text text-anchor="middle" x="879" y="-343.5" font-family="Helvetica,sans-Serif" font-size="10.00">IPlugAU_ViewFactory.mm</text>
</a>
</g>
</g>
<!-- Node1&#45;&gt;Node39 -->
<g id="edge45" class="edge"><title>Node1&#45;&gt;Node39</title>
<path fill="none" stroke="midnightblue" d="M923.246,-385.537C912.192,-375.909 898.369,-363.869 889.143,-355.834"/>
<polygon fill="midnightblue" stroke="midnightblue" points="921.199,-388.395 931.039,-392.324 925.797,-383.117 921.199,-388.395"/>
</g>
<!-- Node40 -->
<g id="node40" class="node"><title>Node40</title>
<g id="a_node40"><a xlink:href="_i_plug_base_8cpp_source.html" target="_top" xlink:title="IPlugBase.cpp">
<polygon fill="white" stroke="black" points="964,-336.5 964,-355.5 1044,-355.5 1044,-336.5 964,-336.5"/>
<text text-anchor="middle" x="1004" y="-343.5" font-family="Helvetica,sans-Serif" font-size="10.00">IPlugBase.cpp</text>
</a>
</g>
</g>
<!-- Node1&#45;&gt;Node40 -->
<g id="edge46" class="edge"><title>Node1&#45;&gt;Node40</title>
<path fill="none" stroke="midnightblue" d="M959.04,-385.537C970.273,-375.909 984.319,-363.869 993.694,-355.834"/>
<polygon fill="midnightblue" stroke="midnightblue" points="956.437,-383.159 951.122,-392.324 960.992,-388.473 956.437,-383.159"/>
</g>
<!-- Node41 -->
<g id="node41" class="node"><title>Node41</title>
<g id="a_node41"><a xlink:href="_i_plug_w_a_m_8h_source.html" target="_top" xlink:title="IPlugWAM.h">
<polygon fill="white" stroke="black" points="1062,-336.5 1062,-355.5 1134,-355.5 1134,-336.5 1062,-336.5"/>
<text text-anchor="middle" x="1098" y="-343.5" font-family="Helvetica,sans-Serif" font-size="10.00">IPlugWAM.h</text>
</a>
</g>
</g>
<!-- Node1&#45;&gt;Node41 -->
<g id="edge47" class="edge"><title>Node1&#45;&gt;Node41</title>
<path fill="none" stroke="midnightblue" d="M975.389,-389.172C1004.95,-379.004 1046.87,-364.585 1073.24,-355.516"/>
<polygon fill="midnightblue" stroke="midnightblue" points="974.195,-385.881 965.877,-392.444 976.472,-392.501 974.195,-385.881"/>
</g>
<!-- Node3 -->
<g id="node3" class="node"><title>Node3</title>
<g id="a_node3"><a xlink:href="_i_control_8h.html" target="_top" xlink:title="The lowest level base class of an IGraphics control. ">
<polygon fill="white" stroke="black" points="328.5,-280.5 328.5,-299.5 387.5,-299.5 387.5,-280.5 328.5,-280.5"/>
<text text-anchor="middle" x="358" y="-287.5" font-family="Helvetica,sans-Serif" font-size="10.00">IControl.h</text>
</a>
</g>
</g>
<!-- Node2&#45;&gt;Node3 -->
<g id="edge2" class="edge"><title>Node2&#45;&gt;Node3</title>
<path fill="none" stroke="midnightblue" d="M675.361,-335.863C591.653,-324.029 449.213,-303.894 387.719,-295.201"/>
<polygon fill="midnightblue" stroke="midnightblue" points="674.877,-339.329 685.269,-337.263 675.857,-332.398 674.877,-339.329"/>
</g>
<!-- Node21 -->
<g id="node21" class="node"><title>Node21</title>
<g id="a_node21"><a xlink:href="_i_plug_base_graphics_8cpp_source.html" target="_top" xlink:title="IPlugBaseGraphics.cpp">
<polygon fill="white" stroke="black" points="680.5,-168.5 680.5,-187.5 799.5,-187.5 799.5,-168.5 680.5,-168.5"/>
<text text-anchor="middle" x="740" y="-175.5" font-family="Helvetica,sans-Serif" font-size="10.00">IPlugBaseGraphics.cpp</text>
</a>
</g>
</g>
<!-- Node2&#45;&gt;Node21 -->
<g id="edge44" class="edge"><title>Node2&#45;&gt;Node21</title>
<path fill="none" stroke="midnightblue" d="M740,-325.93C740,-289.92 740,-213.231 740,-187.568"/>
<polygon fill="midnightblue" stroke="midnightblue" points="736.5,-326.075 740,-336.075 743.5,-326.075 736.5,-326.075"/>
</g>
<!-- Node26 -->
<g id="node26" class="node"><title>Node26</title>
<g id="a_node26"><a xlink:href="_i_plug_base__select_8h_source.html" target="_top" xlink:title="IPlugBase_select.h">
<polygon fill="white" stroke="black" points="995.5,-280.5 995.5,-299.5 1096.5,-299.5 1096.5,-280.5 995.5,-280.5"/>
<text text-anchor="middle" x="1046" y="-287.5" font-family="Helvetica,sans-Serif" font-size="10.00">IPlugBase_select.h</text>
</a>
</g>
</g>
<!-- Node2&#45;&gt;Node26 -->
<g id="edge31" class="edge"><title>Node2&#45;&gt;Node26</title>
<path fill="none" stroke="midnightblue" d="M798.57,-334.664C856.398,-324.459 943.781,-309.039 997.74,-299.516"/>
<polygon fill="midnightblue" stroke="midnightblue" points="797.726,-331.259 788.487,-336.444 798.943,-338.152 797.726,-331.259"/>
</g>
<!-- Node4 -->
<g id="node4" class="node"><title>Node4</title>
<g id="a_node4"><a xlink:href="_i_auto_g_u_i_8h_source.html" target="_top" xlink:title="IAutoGUI.h">
<polygon fill="white" stroke="black" points="454,-224.5 454,-243.5 520,-243.5 520,-224.5 454,-224.5"/>
<text text-anchor="middle" x="487" y="-231.5" font-family="Helvetica,sans-Serif" font-size="10.00">IAutoGUI.h</text>
</a>
</g>
</g>
<!-- Node3&#45;&gt;Node4 -->
<g id="edge3" class="edge"><title>Node3&#45;&gt;Node4</title>
<path fill="none" stroke="midnightblue" d="M387.854,-276.503C412.038,-266.38 445.462,-252.388 466.655,-243.516"/>
<polygon fill="midnightblue" stroke="midnightblue" points="386.313,-273.354 378.44,-280.444 389.016,-279.811 386.313,-273.354"/>
</g>
<!-- Node5 -->
<g id="node5" class="node"><title>Node5</title>
<g id="a_node5"><a xlink:href="_i_graphics_8h.html" target="_top" xlink:title="The lowest level base class of an IGraphics context. ">
<polygon fill="white" stroke="black" points="280.5,-224.5 280.5,-243.5 347.5,-243.5 347.5,-224.5 280.5,-224.5"/>
<text text-anchor="middle" x="314" y="-231.5" font-family="Helvetica,sans-Serif" font-size="10.00">IGraphics.h</text>
</a>
</g>
</g>
<!-- Node3&#45;&gt;Node5 -->
<g id="edge4" class="edge"><title>Node3&#45;&gt;Node5</title>
<path fill="none" stroke="midnightblue" d="M338.48,-272.718C329.795,-263.2 320.686,-251.561 316,-243.751"/>
<polygon fill="midnightblue" stroke="midnightblue" points="336.112,-275.305 345.568,-280.083 341.156,-270.451 336.112,-275.305"/>
</g>
<!-- Node13 -->
<g id="node13" class="node"><title>Node13</title>
<g id="a_node13"><a xlink:href="_i_graphics_mac_8mm_source.html" target="_top" xlink:title="IGraphicsMac.mm">
<polygon fill="white" stroke="black" points="240.5,-0.5 240.5,-19.5 337.5,-19.5 337.5,-0.5 240.5,-0.5"/>
<text text-anchor="middle" x="289" y="-7.5" font-family="Helvetica,sans-Serif" font-size="10.00">IGraphicsMac.mm</text>
</a>
</g>
</g>
<!-- Node3&#45;&gt;Node13 -->
<g id="edge30" class="edge"><title>Node3&#45;&gt;Node13</title>
<path fill="none" stroke="midnightblue" d="M318.222,-285.284C224.953,-275.473 0,-244.973 0,-179 0,-179 0,-179 0,-121 0,-70.2004 157.939,-34.3936 240.302,-19.1746"/>
<polygon fill="midnightblue" stroke="midnightblue" points="318.094,-288.789 328.399,-286.327 318.808,-281.825 318.094,-288.789"/>
</g>
<!-- Node22 -->
<g id="node22" class="node"><title>Node22</title>
<g id="a_node22"><a xlink:href="_i_control_8cpp_source.html" target="_top" xlink:title="IControl.cpp">
<polygon fill="white" stroke="black" points="366,-224.5 366,-243.5 436,-243.5 436,-224.5 366,-224.5"/>
<text text-anchor="middle" x="401" y="-231.5" font-family="Helvetica,sans-Serif" font-size="10.00">IControl.cpp</text>
</a>
</g>
</g>
<!-- Node3&#45;&gt;Node22 -->
<g id="edge25" class="edge"><title>Node3&#45;&gt;Node22</title>
<path fill="none" stroke="midnightblue" d="M371.422,-272.144C378.914,-262.736 387.937,-251.405 394.032,-243.751"/>
<polygon fill="midnightblue" stroke="midnightblue" points="368.592,-270.08 365.101,-280.083 374.068,-274.44 368.592,-270.08"/>
</g>
<!-- Node23 -->
<g id="node23" class="node"><title>Node23</title>
<g id="a_node23"><a xlink:href="_i_controls_8h.html" target="_top" xlink:title="A collection of IControls for common UI widgets, such as knobs, sliders, switches. ">
<polygon fill="white" stroke="black" points="574.5,-224.5 574.5,-243.5 639.5,-243.5 639.5,-224.5 574.5,-224.5"/>
<text text-anchor="middle" x="607" y="-231.5" font-family="Helvetica,sans-Serif" font-size="10.00">IControls.h</text>
</a>
</g>
</g>
<!-- Node3&#45;&gt;Node23 -->
<g id="edge26" class="edge"><title>Node3&#45;&gt;Node23</title>
<path fill="none" stroke="midnightblue" d="M397.443,-280.446C446.351,-269.84 528.811,-251.957 574.344,-242.082"/>
<polygon fill="midnightblue" stroke="midnightblue" points="396.572,-277.053 387.541,-282.593 398.056,-283.894 396.572,-277.053"/>
</g>
<!-- Node25 -->
<g id="node25" class="node"><title>Node25</title>
<g id="a_node25"><a xlink:href="_i_graphics_live_edit_8h_source.html" target="_top" xlink:title="IGraphicsLiveEdit.h">
<polygon fill="white" stroke="black" points="108,-224.5 108,-243.5 210,-243.5 210,-224.5 108,-224.5"/>
<text text-anchor="middle" x="159" y="-231.5" font-family="Helvetica,sans-Serif" font-size="10.00">IGraphicsLiveEdit.h</text>
</a>
</g>
</g>
<!-- Node3&#45;&gt;Node25 -->
<g id="edge28" class="edge"><title>Node3&#45;&gt;Node25</title>
<path fill="none" stroke="midnightblue" d="M318.136,-278.183C280.628,-268.005 225.205,-252.965 190.643,-243.587"/>
<polygon fill="midnightblue" stroke="midnightblue" points="317.64,-281.675 328.208,-280.916 319.473,-274.919 317.64,-281.675"/>
</g>
<!-- Node5&#45;&gt;Node3 -->
<g id="edge5" class="edge"><title>Node5&#45;&gt;Node3</title>
<path fill="none" stroke="midnightblue" d="M333.337,-251.081C342.015,-260.569 351.152,-272.22 355.901,-280.083"/>
<polygon fill="midnightblue" stroke="midnightblue" points="335.725,-248.516 326.262,-243.751 330.688,-253.377 335.725,-248.516"/>
</g>
<!-- Node6 -->
<g id="node6" class="node"><title>Node6</title>
<g id="a_node6"><a xlink:href="_i_graphics_8cpp_source.html" target="_top" xlink:title="IGraphics.cpp">
<polygon fill="white" stroke="black" points="51.5,-168.5 51.5,-187.5 128.5,-187.5 128.5,-168.5 51.5,-168.5"/>
<text text-anchor="middle" x="90" y="-175.5" font-family="Helvetica,sans-Serif" font-size="10.00">IGraphics.cpp</text>
</a>
</g>
</g>
<!-- Node5&#45;&gt;Node6 -->
<g id="edge6" class="edge"><title>Node5&#45;&gt;Node6</title>
<path fill="none" stroke="midnightblue" d="M270.742,-222.572C228.512,-212.391 165.021,-197.085 125.618,-187.587"/>
<polygon fill="midnightblue" stroke="midnightblue" points="269.923,-225.975 280.465,-224.916 271.564,-219.169 269.923,-225.975"/>
</g>
<!-- Node7 -->
<g id="node7" class="node"><title>Node7</title>
<g id="a_node7"><a xlink:href="_i_graphics_a_g_g_8h_source.html" target="_top" xlink:title="IGraphicsAGG.h">
<polygon fill="white" stroke="black" points="146.5,-168.5 146.5,-187.5 235.5,-187.5 235.5,-168.5 146.5,-168.5"/>
<text text-anchor="middle" x="191" y="-175.5" font-family="Helvetica,sans-Serif" font-size="10.00">IGraphicsAGG.h</text>
</a>
</g>
</g>
<!-- Node5&#45;&gt;Node7 -->
<g id="edge7" class="edge"><title>Node5&#45;&gt;Node7</title>
<path fill="none" stroke="midnightblue" d="M285.227,-220.368C262.193,-210.255 230.516,-196.349 210.399,-187.516"/>
<polygon fill="midnightblue" stroke="midnightblue" points="283.947,-223.628 294.51,-224.444 286.761,-217.219 283.947,-223.628"/>
</g>
<!-- Node9 -->
<g id="node9" class="node"><title>Node9</title>
<g id="a_node9"><a xlink:href="_i_graphics_cairo_8h_source.html" target="_top" xlink:title="IGraphicsCairo.h">
<polygon fill="white" stroke="black" points="479,-168.5 479,-187.5 569,-187.5 569,-168.5 479,-168.5"/>
<text text-anchor="middle" x="524" y="-175.5" font-family="Helvetica,sans-Serif" font-size="10.00">IGraphicsCairo.h</text>
</a>
</g>
</g>
<!-- Node5&#45;&gt;Node9 -->
<g id="edge9" class="edge"><title>Node5&#45;&gt;Node9</title>
<path fill="none" stroke="midnightblue" d="M357.19,-221.894C396.847,-211.697 454.77,-196.802 490.881,-187.516"/>
<polygon fill="midnightblue" stroke="midnightblue" points="356.088,-218.563 347.275,-224.444 357.832,-225.343 356.088,-218.563"/>
</g>
<!-- Node11 -->
<g id="node11" class="node"><title>Node11</title>
<g id="a_node11"><a xlink:href="_i_graphics_lice_8h_source.html" target="_top" xlink:title="IGraphicsLice.h">
<polygon fill="white" stroke="black" points="253.5,-168.5 253.5,-187.5 338.5,-187.5 338.5,-168.5 253.5,-168.5"/>
<text text-anchor="middle" x="296" y="-175.5" font-family="Helvetica,sans-Serif" font-size="10.00">IGraphicsLice.h</text>
</a>
</g>
</g>
<!-- Node5&#45;&gt;Node11 -->
<g id="edge11" class="edge"><title>Node5&#45;&gt;Node11</title>
<path fill="none" stroke="midnightblue" d="M307.799,-214.396C304.787,-205.362 301.312,-194.936 298.917,-187.751"/>
<polygon fill="midnightblue" stroke="midnightblue" points="304.545,-215.703 311.028,-224.083 311.186,-213.489 304.545,-215.703"/>
</g>
<!-- Node19 -->
<g id="node19" class="node"><title>Node19</title>
<g id="a_node19"><a xlink:href="_i_graphics_nano_v_g_8h_source.html" target="_top" xlink:title="IGraphicsNanoVG.h">
<polygon fill="white" stroke="black" points="357,-168.5 357,-187.5 461,-187.5 461,-168.5 357,-168.5"/>
<text text-anchor="middle" x="409" y="-175.5" font-family="Helvetica,sans-Serif" font-size="10.00">IGraphicsNanoVG.h</text>
</a>
</g>
</g>
<!-- Node5&#45;&gt;Node19 -->
<g id="edge22" class="edge"><title>Node5&#45;&gt;Node19</title>
<path fill="none" stroke="midnightblue" d="M338.318,-219.177C355.799,-209.241 378.83,-196.149 393.774,-187.655"/>
<polygon fill="midnightblue" stroke="midnightblue" points="336.227,-216.339 329.263,-224.324 339.687,-222.425 336.227,-216.339"/>
</g>
<!-- Node5&#45;&gt;Node21 -->
<g id="edge24" class="edge"><title>Node5&#45;&gt;Node21</title>
<path fill="none" stroke="midnightblue" d="M357.965,-223.984C497.41,-201.74 534.841,-204.684 671,-188 673.998,-187.633 677.068,-187.251 680.168,-186.862"/>
<polygon fill="midnightblue" stroke="midnightblue" points="357.063,-220.585 347.746,-225.63 358.176,-227.496 357.063,-220.585"/>
</g>
<!-- Node8 -->
<g id="node8" class="node"><title>Node8</title>
<g id="a_node8"><a xlink:href="_i_graphics_a_g_g_8cpp_source.html" target="_top" xlink:title="IGraphicsAGG.cpp">
<polygon fill="white" stroke="black" points="28.5,-112.5 28.5,-131.5 127.5,-131.5 127.5,-112.5 28.5,-112.5"/>
<text text-anchor="middle" x="78" y="-119.5" font-family="Helvetica,sans-Serif" font-size="10.00">IGraphicsAGG.cpp</text>
</a>
</g>
</g>
<!-- Node7&#45;&gt;Node8 -->
<g id="edge8" class="edge"><title>Node7&#45;&gt;Node8</title>
<path fill="none" stroke="midnightblue" d="M163.997,-164.096C142.886,-154.007 114.138,-140.27 95.8214,-131.516"/>
<polygon fill="midnightblue" stroke="midnightblue" points="162.563,-167.29 173.095,-168.444 165.581,-160.974 162.563,-167.29"/>
</g>
<!-- Node10 -->
<g id="node10" class="node"><title>Node10</title>
<g id="a_node10"><a xlink:href="_i_graphics_cairo_8cpp_source.html" target="_top" xlink:title="IGraphicsCairo.cpp">
<polygon fill="white" stroke="black" points="599.5,-112.5 599.5,-131.5 700.5,-131.5 700.5,-112.5 599.5,-112.5"/>
<text text-anchor="middle" x="650" y="-119.5" font-family="Helvetica,sans-Serif" font-size="10.00">IGraphicsCairo.cpp</text>
</a>
</g>
</g>
<!-- Node9&#45;&gt;Node10 -->
<g id="edge10" class="edge"><title>Node9&#45;&gt;Node10</title>
<path fill="none" stroke="midnightblue" d="M553.16,-164.503C576.781,-154.38 609.428,-140.388 630.128,-131.516"/>
<polygon fill="midnightblue" stroke="midnightblue" points="551.778,-161.287 543.965,-168.444 554.535,-167.721 551.778,-161.287"/>
</g>
<!-- Node12 -->
<g id="node12" class="node"><title>Node12</title>
<g id="a_node12"><a xlink:href="_i_graphics_lice_8cpp_source.html" target="_top" xlink:title="IGraphicsLice.cpp">
<polygon fill="white" stroke="black" points="248.5,-112.5 248.5,-131.5 343.5,-131.5 343.5,-112.5 248.5,-112.5"/>
<text text-anchor="middle" x="296" y="-119.5" font-family="Helvetica,sans-Serif" font-size="10.00">IGraphicsLice.cpp</text>
</a>
</g>
</g>
<!-- Node11&#45;&gt;Node12 -->
<g id="edge12" class="edge"><title>Node11&#45;&gt;Node12</title>
<path fill="none" stroke="midnightblue" d="M296,-157.805C296,-148.91 296,-138.78 296,-131.751"/>
<polygon fill="midnightblue" stroke="midnightblue" points="292.5,-158.083 296,-168.083 299.5,-158.083 292.5,-158.083"/>
</g>
<!-- Node15 -->
<g id="node15" class="node"><title>Node15</title>
<g id="a_node15"><a xlink:href="_i_graphics_mac_8h_source.html" target="_top" xlink:title="IGraphicsMac.h">
<polygon fill="white" stroke="black" points="362,-112.5 362,-131.5 448,-131.5 448,-112.5 362,-112.5"/>
<text text-anchor="middle" x="405" y="-119.5" font-family="Helvetica,sans-Serif" font-size="10.00">IGraphicsMac.h</text>
</a>
</g>
</g>
<!-- Node11&#45;&gt;Node15 -->
<g id="edge15" class="edge"><title>Node11&#45;&gt;Node15</title>
<path fill="none" stroke="midnightblue" d="M322.519,-163.862C342.73,-153.849 369.987,-140.346 387.531,-131.655"/>
<polygon fill="midnightblue" stroke="midnightblue" points="320.92,-160.748 313.513,-168.324 324.027,-167.021 320.92,-160.748"/>
</g>
<!-- Node18 -->
<g id="node18" class="node"><title>Node18</title>
<g id="a_node18"><a xlink:href="_i_graphics_win_8h_source.html" target="_top" xlink:title="IGraphicsWin.h">
<polygon fill="white" stroke="black" points="146,-112.5 146,-131.5 230,-131.5 230,-112.5 146,-112.5"/>
<text text-anchor="middle" x="188" y="-119.5" font-family="Helvetica,sans-Serif" font-size="10.00">IGraphicsWin.h</text>
</a>
</g>
</g>
<!-- Node11&#45;&gt;Node18 -->
<g id="edge20" class="edge"><title>Node11&#45;&gt;Node18</title>
<path fill="none" stroke="midnightblue" d="M269.452,-163.726C249.454,-153.727 222.613,-140.307 205.309,-131.655"/>
<polygon fill="midnightblue" stroke="midnightblue" points="268.138,-166.982 278.648,-168.324 271.269,-160.721 268.138,-166.982"/>
</g>
<!-- Node12&#45;&gt;Node13 -->
<g id="edge13" class="edge"><title>Node12&#45;&gt;Node13</title>
<path fill="none" stroke="midnightblue" d="M294.813,-102.348C293.28,-78.2538 290.674,-37.3079 289.547,-19.5914"/>
<polygon fill="midnightblue" stroke="midnightblue" points="291.323,-102.611 295.451,-112.368 298.308,-102.166 291.323,-102.611"/>
</g>
<!-- Node14 -->
<g id="node14" class="node"><title>Node14</title>
<g id="a_node14"><a xlink:href="_i_graphics_win_8cpp_source.html" target="_top" xlink:title="IGraphicsWin.cpp">
<polygon fill="white" stroke="black" points="152.5,-56.5 152.5,-75.5 247.5,-75.5 247.5,-56.5 152.5,-56.5"/>
<text text-anchor="middle" x="200" y="-63.5" font-family="Helvetica,sans-Serif" font-size="10.00">IGraphicsWin.cpp</text>
</a>
</g>
</g>
<!-- Node12&#45;&gt;Node14 -->
<g id="edge14" class="edge"><title>Node12&#45;&gt;Node14</title>
<path fill="none" stroke="midnightblue" d="M271.426,-107.177C253.761,-97.2407 230.487,-84.1492 215.386,-75.6545"/>
<polygon fill="midnightblue" stroke="midnightblue" points="270.144,-110.472 280.576,-112.324 273.576,-104.371 270.144,-110.472"/>
</g>
<!-- Node15&#45;&gt;Node13 -->
<g id="edge16" class="edge"><title>Node15&#45;&gt;Node13</title>
<path fill="none" stroke="midnightblue" d="M383.96,-106.525C372.319,-98.1367 357.854,-87.0706 346,-76 326.255,-57.5603 306.097,-32.9164 295.868,-19.9093"/>
<polygon fill="midnightblue" stroke="midnightblue" points="382.037,-109.452 392.221,-112.373 386.082,-103.738 382.037,-109.452"/>
</g>
<!-- Node16 -->
<g id="node16" class="node"><title>Node16</title>
<g id="a_node16"><a xlink:href="_i_graphics_mac__view_8h_source.html" target="_top" xlink:title="IGraphicsMac_view.h">
<polygon fill="white" stroke="black" points="355.5,-56.5 355.5,-75.5 466.5,-75.5 466.5,-56.5 355.5,-56.5"/>
<text text-anchor="middle" x="411" y="-63.5" font-family="Helvetica,sans-Serif" font-size="10.00">IGraphicsMac_view.h</text>
</a>
</g>
</g>
<!-- Node15&#45;&gt;Node16 -->
<g id="edge17" class="edge"><title>Node15&#45;&gt;Node16</title>
<path fill="none" stroke="midnightblue" d="M407.1,-102.101C408.096,-93.1357 409.238,-82.8579 410.028,-75.7511"/>
<polygon fill="midnightblue" stroke="midnightblue" points="403.617,-101.758 405.991,-112.083 410.574,-102.531 403.617,-101.758"/>
</g>
<!-- Node16&#45;&gt;Node13 -->
<g id="edge18" class="edge"><title>Node16&#45;&gt;Node13</title>
<path fill="none" stroke="midnightblue" d="M382.461,-52.3678C359.614,-42.2553 328.195,-28.3486 308.241,-19.5164"/>
<polygon fill="midnightblue" stroke="midnightblue" points="381.108,-55.5965 391.669,-56.4435 383.941,-49.1955 381.108,-55.5965"/>
</g>
<!-- Node17 -->
<g id="node17" class="node"><title>Node17</title>
<g id="a_node17"><a xlink:href="_i_graphics_mac__view_8mm_source.html" target="_top" xlink:title="IGraphicsMac_view.mm">
<polygon fill="white" stroke="black" points="356,-0.5 356,-19.5 478,-19.5 478,-0.5 356,-0.5"/>
<text text-anchor="middle" x="417" y="-7.5" font-family="Helvetica,sans-Serif" font-size="10.00">IGraphicsMac_view.mm</text>
</a>
</g>
</g>
<!-- Node16&#45;&gt;Node17 -->
<g id="edge19" class="edge"><title>Node16&#45;&gt;Node17</title>
<path fill="none" stroke="midnightblue" d="M413.1,-46.1005C414.096,-37.1357 415.238,-26.8579 416.028,-19.7511"/>
<polygon fill="midnightblue" stroke="midnightblue" points="409.617,-45.7576 411.991,-56.083 416.574,-46.5307 409.617,-45.7576"/>
</g>
<!-- Node18&#45;&gt;Node14 -->
<g id="edge21" class="edge"><title>Node18&#45;&gt;Node14</title>
<path fill="none" stroke="midnightblue" d="M192.2,-102.101C194.192,-93.1357 196.476,-82.8579 198.055,-75.7511"/>
<polygon fill="midnightblue" stroke="midnightblue" points="188.734,-101.562 189.982,-112.083 195.568,-103.08 188.734,-101.562"/>
</g>
<!-- Node20 -->
<g id="node20" class="node"><title>Node20</title>
<g id="a_node20"><a xlink:href="_i_graphics_nano_v_g_8cpp_source.html" target="_top" xlink:title="IGraphicsNanoVG.cpp">
<polygon fill="white" stroke="black" points="466.5,-112.5 466.5,-131.5 581.5,-131.5 581.5,-112.5 466.5,-112.5"/>
<text text-anchor="middle" x="524" y="-119.5" font-family="Helvetica,sans-Serif" font-size="10.00">IGraphicsNanoVG.cpp</text>
</a>
</g>
</g>
<!-- Node19&#45;&gt;Node20 -->
<g id="edge23" class="edge"><title>Node19&#45;&gt;Node20</title>
<path fill="none" stroke="midnightblue" d="M436.481,-164.096C457.966,-154.007 487.222,-140.27 505.863,-131.516"/>
<polygon fill="midnightblue" stroke="midnightblue" points="434.786,-161.025 427.222,-168.444 437.762,-167.361 434.786,-161.025"/>
</g>
<!-- Node24 -->
<g id="node24" class="node"><title>Node24</title>
<g id="a_node24"><a xlink:href="_i_controls_8cpp_source.html" target="_top" xlink:title="IControls.cpp">
<polygon fill="white" stroke="black" points="587.5,-168.5 587.5,-187.5 662.5,-187.5 662.5,-168.5 587.5,-168.5"/>
<text text-anchor="middle" x="625" y="-175.5" font-family="Helvetica,sans-Serif" font-size="10.00">IControls.cpp</text>
</a>
</g>
</g>
<!-- Node23&#45;&gt;Node24 -->
<g id="edge27" class="edge"><title>Node23&#45;&gt;Node24</title>
<path fill="none" stroke="midnightblue" d="M613.201,-214.396C616.213,-205.362 619.688,-194.936 622.083,-187.751"/>
<polygon fill="midnightblue" stroke="midnightblue" points="609.814,-213.489 609.972,-224.083 616.455,-215.703 609.814,-213.489"/>
</g>
<!-- Node25&#45;&gt;Node6 -->
<g id="edge29" class="edge"><title>Node25&#45;&gt;Node6</title>
<path fill="none" stroke="midnightblue" d="M139.962,-218.101C127.544,-208.382 111.757,-196.027 101.288,-187.834"/>
<polygon fill="midnightblue" stroke="midnightblue" points="137.882,-220.917 147.914,-224.324 142.196,-215.405 137.882,-220.917"/>
</g>
<!-- Node27 -->
<g id="node27" class="node"><title>Node27</title>
<g id="a_node27"><a xlink:href="_i_plug_a_a_x_8h.html" target="_top" xlink:title="AAX API base class for an IPlug plug&#45;in, inherits from IPlugBase or IPlugBaseGraphics. ">
<polygon fill="white" stroke="black" points="1303,-224.5 1303,-243.5 1371,-243.5 1371,-224.5 1303,-224.5"/>
<text text-anchor="middle" x="1337" y="-231.5" font-family="Helvetica,sans-Serif" font-size="10.00">IPlugAAX.h</text>
</a>
</g>
</g>
<!-- Node26&#45;&gt;Node27 -->
<g id="edge32" class="edge"><title>Node26&#45;&gt;Node27</title>
<path fill="none" stroke="midnightblue" d="M1102.09,-278.592C1161.55,-267.557 1253.56,-250.484 1302.93,-241.323"/>
<polygon fill="midnightblue" stroke="midnightblue" points="1101.3,-275.178 1092.11,-280.444 1102.58,-282.06 1101.3,-275.178"/>
</g>
<!-- Node29 -->
<g id="node29" class="node"><title>Node29</title>
<g id="a_node29"><a xlink:href="_i_plug_a_p_p_8h.html" target="_top" xlink:title="Standalone application base class for an IPlug plug&#45;in, inherits from IPlugBase or IPlugBaseGraphics...">
<polygon fill="white" stroke="black" points="828,-224.5 828,-243.5 896,-243.5 896,-224.5 828,-224.5"/>
<text text-anchor="middle" x="862" y="-231.5" font-family="Helvetica,sans-Serif" font-size="10.00">IPlugAPP.h</text>
</a>
</g>
</g>
<!-- Node26&#45;&gt;Node29 -->
<g id="edge34" class="edge"><title>Node26&#45;&gt;Node29</title>
<path fill="none" stroke="midnightblue" d="M1007.05,-277.568C972.335,-267.381 922.323,-252.703 891.019,-243.516"/>
<polygon fill="midnightblue" stroke="midnightblue" points="1006.26,-280.986 1016.84,-280.444 1008.23,-274.269 1006.26,-280.986"/>
</g>
<!-- Node31 -->
<g id="node31" class="node"><title>Node31</title>
<g id="a_node31"><a xlink:href="_i_plug_a_u_8h.html" target="_top" xlink:title="AudioUnit v2 API base class for an IPlug plug&#45;in, inherits from IPlugBase or IPlugBaseGraphics. ">
<polygon fill="white" stroke="black" points="924,-224.5 924,-243.5 986,-243.5 986,-224.5 924,-224.5"/>
<text text-anchor="middle" x="955" y="-231.5" font-family="Helvetica,sans-Serif" font-size="10.00">IPlugAU.h</text>
</a>
</g>
</g>
<!-- Node26&#45;&gt;Node31 -->
<g id="edge36" class="edge"><title>Node26&#45;&gt;Node31</title>
<path fill="none" stroke="midnightblue" d="M1022.71,-275.177C1005.96,-265.241 983.9,-252.149 969.584,-243.655"/>
<polygon fill="midnightblue" stroke="midnightblue" points="1020.99,-278.231 1031.38,-280.324 1024.57,-272.211 1020.99,-278.231"/>
</g>
<!-- Node33 -->
<g id="node33" class="node"><title>Node33</title>
<g id="a_node33"><a xlink:href="_i_plug_a_uv3_8h_source.html" target="_top" xlink:title="IPlugAUv3.h">
<polygon fill="white" stroke="black" points="1010,-224.5 1010,-243.5 1082,-243.5 1082,-224.5 1010,-224.5"/>
<text text-anchor="middle" x="1046" y="-231.5" font-family="Helvetica,sans-Serif" font-size="10.00">IPlugAUv3.h</text>
</a>
</g>
</g>
<!-- Node26&#45;&gt;Node33 -->
<g id="edge38" class="edge"><title>Node26&#45;&gt;Node33</title>
<path fill="none" stroke="midnightblue" d="M1046,-269.805C1046,-260.91 1046,-250.78 1046,-243.751"/>
<polygon fill="midnightblue" stroke="midnightblue" points="1042.5,-270.083 1046,-280.083 1049.5,-270.083 1042.5,-270.083"/>
</g>
<!-- Node35 -->
<g id="node35" class="node"><title>Node35</title>
<g id="a_node35"><a xlink:href="_i_plug_v_s_t_8h.html" target="_top" xlink:title="VST2.4 API base class for an IPlug plug&#45;in, inherits from IPlugBase or IPlugBaseGraphics. ">
<polygon fill="white" stroke="black" points="1104.5,-224.5 1104.5,-243.5 1171.5,-243.5 1171.5,-224.5 1104.5,-224.5"/>
<text text-anchor="middle" x="1138" y="-231.5" font-family="Helvetica,sans-Serif" font-size="10.00">IPlugVST.h</text>
</a>
</g>
</g>
<!-- Node26&#45;&gt;Node35 -->
<g id="edge40" class="edge"><title>Node26&#45;&gt;Node35</title>
<path fill="none" stroke="midnightblue" d="M1069.55,-275.177C1086.48,-265.241 1108.78,-252.149 1123.26,-243.655"/>
<polygon fill="midnightblue" stroke="midnightblue" points="1067.63,-272.243 1060.78,-280.324 1071.18,-278.28 1067.63,-272.243"/>
</g>
<!-- Node37 -->
<g id="node37" class="node"><title>Node37</title>
<g id="a_node37"><a xlink:href="_i_plug_v_s_t3_8h.html" target="_top" xlink:title="VST3 base class for an IPlug plug&#45;in, inherits from IPlugBase or IPlugBaseGraphics. ">
<polygon fill="white" stroke="black" points="1198,-224.5 1198,-243.5 1270,-243.5 1270,-224.5 1198,-224.5"/>
<text text-anchor="middle" x="1234" y="-231.5" font-family="Helvetica,sans-Serif" font-size="10.00">IPlugVST3.h</text>
</a>
</g>
</g>
<!-- Node26&#45;&gt;Node37 -->
<g id="edge42" class="edge"><title>Node26&#45;&gt;Node37</title>
<path fill="none" stroke="midnightblue" d="M1085.8,-277.568C1121.27,-267.381 1172.37,-252.703 1204.35,-243.516"/>
<polygon fill="midnightblue" stroke="midnightblue" points="1084.43,-274.319 1075.79,-280.444 1086.37,-281.047 1084.43,-274.319"/>
</g>
<!-- Node28 -->
<g id="node28" class="node"><title>Node28</title>
<g id="a_node28"><a xlink:href="_i_plug_a_a_x_8cpp_source.html" target="_top" xlink:title="IPlugAAX.cpp">
<polygon fill="white" stroke="black" points="1302,-168.5 1302,-187.5 1380,-187.5 1380,-168.5 1302,-168.5"/>
<text text-anchor="middle" x="1341" y="-175.5" font-family="Helvetica,sans-Serif" font-size="10.00">IPlugAAX.cpp</text>
</a>
</g>
</g>
<!-- Node27&#45;&gt;Node28 -->
<g id="edge33" class="edge"><title>Node27&#45;&gt;Node28</title>
<path fill="none" stroke="midnightblue" d="M1338.4,-214.101C1339.06,-205.136 1339.83,-194.858 1340.35,-187.751"/>
<polygon fill="midnightblue" stroke="midnightblue" points="1334.91,-213.852 1337.66,-224.083 1341.89,-214.369 1334.91,-213.852"/>
</g>
<!-- Node30 -->
<g id="node30" class="node"><title>Node30</title>
<g id="a_node30"><a xlink:href="_i_plug_a_p_p_8cpp_source.html" target="_top" xlink:title="IPlugAPP.cpp">
<polygon fill="white" stroke="black" points="818,-168.5 818,-187.5 896,-187.5 896,-168.5 818,-168.5"/>
<text text-anchor="middle" x="857" y="-175.5" font-family="Helvetica,sans-Serif" font-size="10.00">IPlugAPP.cpp</text>
</a>
</g>
</g>
<!-- Node29&#45;&gt;Node30 -->
<g id="edge35" class="edge"><title>Node29&#45;&gt;Node30</title>
<path fill="none" stroke="midnightblue" d="M860.25,-214.101C859.42,-205.136 858.468,-194.858 857.81,-187.751"/>
<polygon fill="midnightblue" stroke="midnightblue" points="856.767,-214.448 861.174,-224.083 863.737,-213.803 856.767,-214.448"/>
</g>
<!-- Node32 -->
<g id="node32" class="node"><title>Node32</title>
<g id="a_node32"><a xlink:href="_i_plug_a_u_8cpp_source.html" target="_top" xlink:title="IPlugAU.cpp">
<polygon fill="white" stroke="black" points="914,-168.5 914,-187.5 986,-187.5 986,-168.5 914,-168.5"/>
<text text-anchor="middle" x="950" y="-175.5" font-family="Helvetica,sans-Serif" font-size="10.00">IPlugAU.cpp</text>
</a>
</g>
</g>
<!-- Node31&#45;&gt;Node32 -->
<g id="edge37" class="edge"><title>Node31&#45;&gt;Node32</title>
<path fill="none" stroke="midnightblue" d="M953.25,-214.101C952.42,-205.136 951.468,-194.858 950.81,-187.751"/>
<polygon fill="midnightblue" stroke="midnightblue" points="949.767,-214.448 954.174,-224.083 956.737,-213.803 949.767,-214.448"/>
</g>
<!-- Node34 -->
<g id="node34" class="node"><title>Node34</title>
<g id="a_node34"><a xlink:href="_i_plug_a_uv3_8mm_source.html" target="_top" xlink:title="IPlugAUv3.mm">
<polygon fill="white" stroke="black" points="1004.5,-168.5 1004.5,-187.5 1087.5,-187.5 1087.5,-168.5 1004.5,-168.5"/>
<text text-anchor="middle" x="1046" y="-175.5" font-family="Helvetica,sans-Serif" font-size="10.00">IPlugAUv3.mm</text>
</a>
</g>
</g>
<!-- Node33&#45;&gt;Node34 -->
<g id="edge39" class="edge"><title>Node33&#45;&gt;Node34</title>
<path fill="none" stroke="midnightblue" d="M1046,-213.805C1046,-204.91 1046,-194.78 1046,-187.751"/>
<polygon fill="midnightblue" stroke="midnightblue" points="1042.5,-214.083 1046,-224.083 1049.5,-214.083 1042.5,-214.083"/>
</g>
<!-- Node36 -->
<g id="node36" class="node"><title>Node36</title>
<g id="a_node36"><a xlink:href="_i_plug_v_s_t_8cpp_source.html" target="_top" xlink:title="IPlugVST.cpp">
<polygon fill="white" stroke="black" points="1105.5,-168.5 1105.5,-187.5 1182.5,-187.5 1182.5,-168.5 1105.5,-168.5"/>
<text text-anchor="middle" x="1144" y="-175.5" font-family="Helvetica,sans-Serif" font-size="10.00">IPlugVST.cpp</text>
</a>
</g>
</g>
<!-- Node35&#45;&gt;Node36 -->
<g id="edge41" class="edge"><title>Node35&#45;&gt;Node36</title>
<path fill="none" stroke="midnightblue" d="M1140.1,-214.101C1141.1,-205.136 1142.24,-194.858 1143.03,-187.751"/>
<polygon fill="midnightblue" stroke="midnightblue" points="1136.62,-213.758 1138.99,-224.083 1143.57,-214.531 1136.62,-213.758"/>
</g>
<!-- Node38 -->
<g id="node38" class="node"><title>Node38</title>
<g id="a_node38"><a xlink:href="_i_plug_v_s_t3_8cpp_source.html" target="_top" xlink:title="IPlugVST3.cpp">
<polygon fill="white" stroke="black" points="1200.5,-168.5 1200.5,-187.5 1283.5,-187.5 1283.5,-168.5 1200.5,-168.5"/>
<text text-anchor="middle" x="1242" y="-175.5" font-family="Helvetica,sans-Serif" font-size="10.00">IPlugVST3.cpp</text>
</a>
</g>
</g>
<!-- Node37&#45;&gt;Node38 -->
<g id="edge43" class="edge"><title>Node37&#45;&gt;Node38</title>
<path fill="none" stroke="midnightblue" d="M1236.8,-214.101C1238.13,-205.136 1239.65,-194.858 1240.7,-187.751"/>
<polygon fill="midnightblue" stroke="midnightblue" points="1233.32,-213.678 1235.32,-224.083 1240.25,-214.704 1233.32,-213.678"/>
</g>
</g>
</svg>
