<?xml version="1.0" encoding="UTF-8" standalone="no"?>
<!DOCTYPE svg PUBLIC "-//W3C//DTD SVG 1.1//EN"
 "http://www.w3.org/Graphics/SVG/1.1/DTD/svg11.dtd">
<!-- Generated by graphviz version 2.36.0 (20140111.2315)
 -->
<!-- Title: IKnobControl Pages: 1 -->
<svg width="340pt" height="180pt"
 viewBox="0.00 0.00 340.00 180.00" xmlns="http://www.w3.org/2000/svg" xmlns:xlink="http://www.w3.org/1999/xlink">
<g id="graph0" class="graph" transform="scale(1 1) rotate(0) translate(4 176)">
<title>IKnobControl</title>
<polygon fill="white" stroke="none" points="-4,4 -4,-176 336,-176 336,4 -4,4"/>
<!-- Node1 -->
<g id="node1" class="node"><title>Node1</title>
<polygon fill="#bfbfbf" stroke="black" points="88,-76.5 88,-95.5 162,-95.5 162,-76.5 88,-76.5"/>
<text text-anchor="middle" x="125" y="-83.5" font-family="Helvetica,sans-Serif" font-size="10.00">IKnobControl</text>
</g>
<!-- Node3 -->
<g id="node3" class="node"><title>Node3</title>
<g id="a_node3"><a xlink:href="class_a_g_knob_control.html" target="_top" xlink:title="AGKnobControl">
<polygon fill="white" stroke="black" points="222.5,-152.5 222.5,-171.5 307.5,-171.5 307.5,-152.5 222.5,-152.5"/>
<text text-anchor="middle" x="265" y="-159.5" font-family="Helvetica,sans-Serif" font-size="10.00">AGKnobControl</text>
</a>
</g>
</g>
<!-- Node1&#45;&gt;Node3 -->
<g id="edge2" class="edge"><title>Node1&#45;&gt;Node3</title>
<path fill="none" stroke="midnightblue" d="M143.146,-102.775C156.946,-115.44 177.377,-132.395 198,-143 205.529,-146.872 213.958,-150.057 222.209,-152.639"/>
<polygon fill="midnightblue" stroke="midnightblue" points="145.516,-100.199 135.836,-95.8933 140.718,-105.296 145.516,-100.199"/>
</g>
<!-- Node4 -->
<g id="node4" class="node"><title>Node4</title>
<g id="a_node4"><a xlink:href="class_i_knob_line_control.html" target="_top" xlink:title="A knob that is just a line. ">
<polygon fill="white" stroke="black" points="219,-114.5 219,-133.5 311,-133.5 311,-114.5 219,-114.5"/>
<text text-anchor="middle" x="265" y="-121.5" font-family="Helvetica,sans-Serif" font-size="10.00">IKnobLineControl</text>
</a>
</g>
</g>
<!-- Node1&#45;&gt;Node4 -->
<g id="edge3" class="edge"><title>Node1&#45;&gt;Node4</title>
<path fill="none" stroke="midnightblue" d="M170.473,-98.2462C189.495,-103.484 211.375,-109.509 229.188,-114.414"/>
<polygon fill="midnightblue" stroke="midnightblue" points="171.394,-94.8695 160.823,-95.589 169.535,-101.618 171.394,-94.8695"/>
</g>
<!-- Node5 -->
<g id="node5" class="node"><title>Node5</title>
<g id="a_node5"><a xlink:href="class_i_knob_multi_control.html" target="_top" xlink:title="A multibitmap knob. ">
<polygon fill="white" stroke="black" points="217.5,-76.5 217.5,-95.5 312.5,-95.5 312.5,-76.5 217.5,-76.5"/>
<text text-anchor="middle" x="265" y="-83.5" font-family="Helvetica,sans-Serif" font-size="10.00">IKnobMultiControl</text>
</a>
</g>
</g>
<!-- Node1&#45;&gt;Node5 -->
<g id="edge4" class="edge"><title>Node1&#45;&gt;Node5</title>
<path fill="none" stroke="midnightblue" d="M172.477,-86C186.928,-86 202.86,-86 217.325,-86"/>
<polygon fill="midnightblue" stroke="midnightblue" points="172.258,-82.5001 162.258,-86 172.258,-89.5001 172.258,-82.5001"/>
</g>
<!-- Node6 -->
<g id="node6" class="node"><title>Node6</title>
<g id="a_node6"><a xlink:href="class_i_knob_rotater_control.html" target="_top" xlink:title="A rotating knob. ">
<polygon fill="white" stroke="black" points="212,-38.5 212,-57.5 318,-57.5 318,-38.5 212,-38.5"/>
<text text-anchor="middle" x="265" y="-45.5" font-family="Helvetica,sans-Serif" font-size="10.00">IKnobRotaterControl</text>
</a>
</g>
</g>
<!-- Node1&#45;&gt;Node6 -->
<g id="edge5" class="edge"><title>Node1&#45;&gt;Node6</title>
<path fill="none" stroke="midnightblue" d="M170.473,-73.7538C189.495,-68.516 211.375,-62.4909 229.188,-57.5859"/>
<polygon fill="midnightblue" stroke="midnightblue" points="169.535,-70.3817 160.823,-76.411 171.394,-77.1305 169.535,-70.3817"/>
</g>
<!-- Node7 -->
<g id="node7" class="node"><title>Node7</title>
<g id="a_node7"><a xlink:href="class_i_knob_rotating_mask_control.html" target="_top" xlink:title="A knob that consists of a static base, a rotating mask, and a rotating top. ">
<polygon fill="white" stroke="black" points="198,-0.5 198,-19.5 332,-19.5 332,-0.5 198,-0.5"/>
<text text-anchor="middle" x="265" y="-7.5" font-family="Helvetica,sans-Serif" font-size="10.00">IKnobRotatingMaskControl</text>
</a>
</g>
</g>
<!-- Node1&#45;&gt;Node7 -->
<g id="edge6" class="edge"><title>Node1&#45;&gt;Node7</title>
<path fill="none" stroke="midnightblue" d="M143.146,-69.2254C156.946,-56.5598 177.377,-39.6048 198,-29 205.317,-25.2375 213.484,-22.123 221.512,-19.5804"/>
<polygon fill="midnightblue" stroke="midnightblue" points="140.718,-66.7039 135.836,-76.1067 145.516,-71.801 140.718,-66.7039"/>
</g>
<!-- Node2 -->
<g id="node2" class="node"><title>Node2</title>
<g id="a_node2"><a xlink:href="class_i_control.html" target="_top" xlink:title="The lowest level base class of an IGraphics control. ">
<polygon fill="white" stroke="black" points="0.5,-76.5 0.5,-95.5 51.5,-95.5 51.5,-76.5 0.5,-76.5"/>
<text text-anchor="middle" x="26" y="-83.5" font-family="Helvetica,sans-Serif" font-size="10.00">IControl</text>
</a>
</g>
</g>
<!-- Node2&#45;&gt;Node1 -->
<g id="edge1" class="edge"><title>Node2&#45;&gt;Node1</title>
<path fill="none" stroke="midnightblue" d="M61.733,-86C70.2511,-86 79.387,-86 87.9648,-86"/>
<polygon fill="midnightblue" stroke="midnightblue" points="61.7282,-82.5001 51.7282,-86 61.7281,-89.5001 61.7282,-82.5001"/>
</g>
</g>
</svg>
