<?xml version="1.0" encoding="UTF-8" standalone="no"?>
<!DOCTYPE svg PUBLIC "-//W3C//DTD SVG 1.1//EN"
 "http://www.w3.org/Graphics/SVG/1.1/DTD/svg11.dtd">
<!-- Generated by graphviz version 2.36.0 (20140111.2315)
 -->
<!-- Title: IControl Pages: 1 -->
<!--zoomable 636 -->
<svg id="main" version="1.1" xmlns="http://www.w3.org/2000/svg" xmlns:xlink="http://www.w3.org/1999/xlink" xml:space="preserve" onload="init(evt)">
<style type="text/css"><![CDATA[
.edge:hover path { stroke: red; }
.edge:hover polygon { stroke: red; fill: red; }
]]></style>
<script type="text/javascript"><![CDATA[
var edges = document.getElementsByTagName('g');
if (edges && edges.length) {
  for (var i=0;i<edges.length;i++) {
    if (edges[i].id.substr(0,4)=='edge') {
      edges[i].setAttribute('class','edge');
    }
  }
}
]]></script>
        <defs>
                <circle id="rim" cx="0" cy="0" r="7"/>
                <circle id="rim2" cx="0" cy="0" r="3.5"/>
                <g id="zoomPlus">
                        <use xlink:href="#rim" fill="#404040">
                                <set attributeName="fill" to="#808080" begin="zoomplus.mouseover" end="zoomplus.mouseout"/>
                        </use>
                        <path d="M-4,0h8M0,-4v8" fill="none" stroke="white" stroke-width="1.5" pointer-events="none"/>
                </g>
                <g id="zoomMin">
                        <use xlink:href="#rim" fill="#404040">
                                <set attributeName="fill" to="#808080" begin="zoomminus.mouseover" end="zoomminus.mouseout"/>
                        </use>
                        <path d="M-4,0h8" fill="none" stroke="white" stroke-width="1.5" pointer-events="none"/>
                </g>
                <g id="dirArrow">
                        <path fill="none" stroke="white" stroke-width="1.5" d="M0,-3.0v7 M-2.5,-0.5L0,-3.0L2.5,-0.5"/>
                </g>
               <g id="resetDef">
                       <use xlink:href="#rim2" fill="#404040">
                               <set attributeName="fill" to="#808080" begin="reset.mouseover" end="reset.mouseout"/>
                       </use>
               </g>
        </defs>

<script type="text/javascript">
var viewWidth = 544;
var viewHeight = 636;
var sectionId = 'dynsection-0';
</script>
<script xlink:href="svgpan.js"/>
<svg id="graph" class="graph">
<g id="viewport">
<title>IControl</title>
<polygon fill="white" stroke="none" points="-4,4 -4,-632 540,-632 540,4 -4,4"/>
<!-- Node1 -->
<g id="node1" class="node"><title>Node1</title>
<polygon fill="#bfbfbf" stroke="black" points="0.5,-304.5 0.5,-323.5 51.5,-323.5 51.5,-304.5 0.5,-304.5"/>
<text text-anchor="middle" x="26" y="-311.5" font-family="Helvetica,sans-Serif" font-size="10.00">IControl</text>
</g>
<!-- Node2 -->
<g id="node2" class="node"><title>Node2</title>
<g id="a_node2"><a xlink:href="class_a_g_h_slider_control.html" target="_top" xlink:title="AGHSliderControl">
<polygon fill="white" stroke="black" points="99.5,-608.5 99.5,-627.5 194.5,-627.5 194.5,-608.5 99.5,-608.5"/>
<text text-anchor="middle" x="147" y="-615.5" font-family="Helvetica,sans-Serif" font-size="10.00">AGHSliderControl</text>
</a>
</g>
</g>
<!-- Node1&#45;&gt;Node2 -->
<g id="edge1" class="edge"><title>Node1&#45;&gt;Node2</title>
<path fill="none" stroke="midnightblue" d="M28.6873,-333.695C34.0204,-391.535 52.3103,-559.323 88,-599 91.4722,-602.86 95.7401,-605.939 100.372,-608.393"/>
<polygon fill="midnightblue" stroke="midnightblue" points="32.1672,-333.313 27.7921,-323.664 25.1949,-333.935 32.1672,-333.313"/>
</g>
<!-- Node3 -->
<g id="node3" class="node"><title>Node3</title>
<g id="a_node3"><a xlink:href="class_a_g_panel_tabs.html" target="_top" xlink:title="AGPanelTabs">
<polygon fill="white" stroke="black" points="108.5,-570.5 108.5,-589.5 185.5,-589.5 185.5,-570.5 108.5,-570.5"/>
<text text-anchor="middle" x="147" y="-577.5" font-family="Helvetica,sans-Serif" font-size="10.00">AGPanelTabs</text>
</a>
</g>
</g>
<!-- Node1&#45;&gt;Node3 -->
<g id="edge2" class="edge"><title>Node1&#45;&gt;Node3</title>
<path fill="none" stroke="midnightblue" d="M29.4023,-333.78C36.153,-386.284 56.8556,-527.446 88,-561 93.4784,-566.902 100.816,-570.975 108.426,-573.783"/>
<polygon fill="midnightblue" stroke="midnightblue" points="32.8594,-333.219 28.143,-323.732 25.9138,-334.089 32.8594,-333.219"/>
</g>
<!-- Node4 -->
<g id="node4" class="node"><title>Node4</title>
<g id="a_node4"><a xlink:href="class_i_bitmap_control.html" target="_top" xlink:title="A basic control to draw a bitmap, or one frame of a stacked bitmap depending on the current value...">
<polygon fill="white" stroke="black" points="106,-532.5 106,-551.5 188,-551.5 188,-532.5 106,-532.5"/>
<text text-anchor="middle" x="147" y="-539.5" font-family="Helvetica,sans-Serif" font-size="10.00">IBitmapControl</text>
</a>
</g>
</g>
<!-- Node1&#45;&gt;Node4 -->
<g id="edge3" class="edge"><title>Node1&#45;&gt;Node4</title>
<path fill="none" stroke="midnightblue" d="M26.982,-333.959C28.0458,-375.032 36.3368,-469.625 88,-523 92.9375,-528.101 99.2633,-531.834 105.913,-534.564"/>
<polygon fill="midnightblue" stroke="midnightblue" points="30.4805,-333.823 26.8435,-323.872 23.4812,-333.919 30.4805,-333.823"/>
</g>
<!-- Node10 -->
<g id="node10" class="node"><title>Node10</title>
<g id="a_node10"><a xlink:href="class_i_bitmap_text_control.html" target="_top" xlink:title="Display monospace bitmap font text. ">
<polygon fill="white" stroke="black" points="96.5,-494.5 96.5,-513.5 197.5,-513.5 197.5,-494.5 96.5,-494.5"/>
<text text-anchor="middle" x="147" y="-501.5" font-family="Helvetica,sans-Serif" font-size="10.00">IBitmapTextControl</text>
</a>
</g>
</g>
<!-- Node1&#45;&gt;Node10 -->
<g id="edge9" class="edge"><title>Node1&#45;&gt;Node10</title>
<path fill="none" stroke="midnightblue" d="M28.4961,-333.684C32.2274,-368.95 45.0152,-443.122 88,-485 92.0225,-488.919 96.8654,-492.029 102.017,-494.499"/>
<polygon fill="midnightblue" stroke="midnightblue" points="31.9783,-333.329 27.5761,-323.692 25.0077,-333.97 31.9783,-333.329"/>
</g>
<!-- Node11 -->
<g id="node11" class="node"><title>Node11</title>
<g id="a_node11"><a xlink:href="class_i_fader_control.html" target="_top" xlink:title="A fader with a bitmap for the handle. ">
<polygon fill="white" stroke="black" points="109,-456.5 109,-475.5 185,-475.5 185,-456.5 109,-456.5"/>
<text text-anchor="middle" x="147" y="-463.5" font-family="Helvetica,sans-Serif" font-size="10.00">IFaderControl</text>
</a>
</g>
</g>
<!-- Node1&#45;&gt;Node11 -->
<g id="edge10" class="edge"><title>Node1&#45;&gt;Node11</title>
<path fill="none" stroke="midnightblue" d="M30.8089,-333.685C37.4111,-362.589 53.701,-416.387 88,-447 93.9289,-452.292 101.362,-456.114 108.909,-458.873"/>
<polygon fill="midnightblue" stroke="midnightblue" points="34.1696,-332.661 28.6724,-323.604 27.3217,-334.112 34.1696,-332.661"/>
</g>
<!-- Node12 -->
<g id="node12" class="node"><title>Node12</title>
<g id="a_node12"><a xlink:href="class_i_file_selector_control.html" target="_top" xlink:title="A control to allow selection of a file from the file system. ">
<polygon fill="white" stroke="black" points="95.5,-418.5 95.5,-437.5 198.5,-437.5 198.5,-418.5 95.5,-418.5"/>
<text text-anchor="middle" x="147" y="-425.5" font-family="Helvetica,sans-Serif" font-size="10.00">IFileSelectorControl</text>
</a>
</g>
</g>
<!-- Node1&#45;&gt;Node12 -->
<g id="edge11" class="edge"><title>Node1&#45;&gt;Node12</title>
<path fill="none" stroke="midnightblue" d="M34.5056,-332.98C43.9126,-354.411 62.0174,-388.906 88,-409 93.0291,-412.889 98.8869,-415.999 104.909,-418.481"/>
<polygon fill="midnightblue" stroke="midnightblue" points="37.6807,-331.501 30.5899,-323.628 31.2239,-334.204 37.6807,-331.501"/>
</g>
<!-- Node13 -->
<g id="node13" class="node"><title>Node13</title>
<g id="a_node13"><a xlink:href="class_i_graphics_live_edit.html" target="_top" xlink:title="IGraphicsLiveEdit">
<polygon fill="white" stroke="black" points="100,-380.5 100,-399.5 194,-399.5 194,-380.5 100,-380.5"/>
<text text-anchor="middle" x="147" y="-387.5" font-family="Helvetica,sans-Serif" font-size="10.00">IGraphicsLiveEdit</text>
</a>
</g>
</g>
<!-- Node1&#45;&gt;Node13 -->
<g id="edge12" class="edge"><title>Node1&#45;&gt;Node13</title>
<path fill="none" stroke="midnightblue" d="M41.7991,-331.416C53.2794,-343.962 70.1925,-360.469 88,-371 94.3844,-374.775 101.614,-377.907 108.749,-380.464"/>
<polygon fill="midnightblue" stroke="midnightblue" points="44.3389,-329.005 35.0846,-323.847 39.1022,-333.65 44.3389,-329.005"/>
</g>
<!-- Node14 -->
<g id="node14" class="node"><title>Node14</title>
<g id="a_node14"><a xlink:href="class_i_invisible_switch_control.html" target="_top" xlink:title="On/Off switch that has a target area only. ">
<polygon fill="white" stroke="black" points="88.5,-342.5 88.5,-361.5 205.5,-361.5 205.5,-342.5 88.5,-342.5"/>
<text text-anchor="middle" x="147" y="-349.5" font-family="Helvetica,sans-Serif" font-size="10.00">IInvisibleSwitchControl</text>
</a>
</g>
</g>
<!-- Node1&#45;&gt;Node14 -->
<g id="edge13" class="edge"><title>Node1&#45;&gt;Node14</title>
<path fill="none" stroke="midnightblue" d="M61.3505,-324.969C78.5883,-330.474 99.2776,-337.08 115.887,-342.384"/>
<polygon fill="midnightblue" stroke="midnightblue" points="62.2477,-321.582 51.6569,-321.874 60.1183,-328.25 62.2477,-321.582"/>
</g>
<!-- Node15 -->
<g id="node15" class="node"><title>Node15</title>
<g id="a_node15"><a xlink:href="class_i_keyboard_control.html" target="_top" xlink:title="A (musical) keyboard control. ">
<polygon fill="white" stroke="black" points="101,-304.5 101,-323.5 193,-323.5 193,-304.5 101,-304.5"/>
<text text-anchor="middle" x="147" y="-311.5" font-family="Helvetica,sans-Serif" font-size="10.00">IKeyboardControl</text>
</a>
</g>
</g>
<!-- Node1&#45;&gt;Node15 -->
<g id="edge14" class="edge"><title>Node1&#45;&gt;Node15</title>
<path fill="none" stroke="midnightblue" d="M61.8418,-314C73.9946,-314 87.8148,-314 100.693,-314"/>
<polygon fill="midnightblue" stroke="midnightblue" points="61.6569,-310.5 51.6569,-314 61.6568,-317.5 61.6569,-310.5"/>
</g>
<!-- Node16 -->
<g id="node16" class="node"><title>Node16</title>
<g id="a_node16"><a xlink:href="class_i_knob_control.html" target="_top" xlink:title="Parent for knobs, to handle mouse action and ballistics. ">
<polygon fill="white" stroke="black" points="110,-266.5 110,-285.5 184,-285.5 184,-266.5 110,-266.5"/>
<text text-anchor="middle" x="147" y="-273.5" font-family="Helvetica,sans-Serif" font-size="10.00">IKnobControl</text>
</a>
</g>
</g>
<!-- Node1&#45;&gt;Node16 -->
<g id="edge15" class="edge"><title>Node1&#45;&gt;Node16</title>
<path fill="none" stroke="midnightblue" d="M61.3505,-303.031C78.5883,-297.526 99.2776,-290.92 115.887,-285.616"/>
<polygon fill="midnightblue" stroke="midnightblue" points="60.1183,-299.75 51.6569,-306.126 62.2477,-306.418 60.1183,-299.75"/>
</g>
<!-- Node22 -->
<g id="node22" class="node"><title>Node22</title>
<g id="a_node22"><a xlink:href="class_i_panel_control.html" target="_top" xlink:title="A basic control to fill a rectangle with a color. ">
<polygon fill="white" stroke="black" points="109,-228.5 109,-247.5 185,-247.5 185,-228.5 109,-228.5"/>
<text text-anchor="middle" x="147" y="-235.5" font-family="Helvetica,sans-Serif" font-size="10.00">IPanelControl</text>
</a>
</g>
</g>
<!-- Node1&#45;&gt;Node22 -->
<g id="edge21" class="edge"><title>Node1&#45;&gt;Node22</title>
<path fill="none" stroke="midnightblue" d="M41.7991,-296.584C53.2794,-284.038 70.1925,-267.531 88,-257 94.3844,-253.225 101.614,-250.093 108.749,-247.536"/>
<polygon fill="midnightblue" stroke="midnightblue" points="39.1022,-294.35 35.0846,-304.153 44.3389,-298.995 39.1022,-294.35"/>
</g>
<!-- Node24 -->
<g id="node24" class="node"><title>Node24</title>
<g id="a_node24"><a xlink:href="class_i_radio_buttons_control.html" target="_top" xlink:title="A set of buttons that maps to a single selection. ">
<polygon fill="white" stroke="black" points="92,-190.5 92,-209.5 202,-209.5 202,-190.5 92,-190.5"/>
<text text-anchor="middle" x="147" y="-197.5" font-family="Helvetica,sans-Serif" font-size="10.00">IRadioButtonsControl</text>
</a>
</g>
</g>
<!-- Node1&#45;&gt;Node24 -->
<g id="edge23" class="edge"><title>Node1&#45;&gt;Node24</title>
<path fill="none" stroke="midnightblue" d="M34.5056,-295.02C43.9126,-273.589 62.0174,-239.094 88,-219 93.0291,-215.111 98.8869,-212.001 104.909,-209.519"/>
<polygon fill="midnightblue" stroke="midnightblue" points="31.2239,-293.796 30.5899,-304.372 37.6807,-296.499 31.2239,-293.796"/>
</g>
<!-- Node25 -->
<g id="node25" class="node"><title>Node25</title>
<g id="a_node25"><a xlink:href="class_i_s_v_g_control.html" target="_top" xlink:title="A basic control to draw an SVG image to the screen. ">
<polygon fill="white" stroke="black" points="111,-152.5 111,-171.5 183,-171.5 183,-152.5 111,-152.5"/>
<text text-anchor="middle" x="147" y="-159.5" font-family="Helvetica,sans-Serif" font-size="10.00">ISVGControl</text>
</a>
</g>
</g>
<!-- Node1&#45;&gt;Node25 -->
<g id="edge24" class="edge"><title>Node1&#45;&gt;Node25</title>
<path fill="none" stroke="midnightblue" d="M30.8089,-294.315C37.4111,-265.411 53.701,-211.613 88,-181 94.4032,-175.285 102.561,-171.284 110.722,-168.485"/>
<polygon fill="midnightblue" stroke="midnightblue" points="27.3217,-293.888 28.6724,-304.396 34.1696,-295.339 27.3217,-293.888"/>
</g>
<!-- Node26 -->
<g id="node26" class="node"><title>Node26</title>
<g id="a_node26"><a xlink:href="class_i_text_control.html" target="_top" xlink:title="A basic control to output text to the screen. ">
<polygon fill="white" stroke="black" points="111.5,-114.5 111.5,-133.5 182.5,-133.5 182.5,-114.5 111.5,-114.5"/>
<text text-anchor="middle" x="147" y="-121.5" font-family="Helvetica,sans-Serif" font-size="10.00">ITextControl</text>
</a>
</g>
</g>
<!-- Node1&#45;&gt;Node26 -->
<g id="edge25" class="edge"><title>Node1&#45;&gt;Node26</title>
<path fill="none" stroke="midnightblue" d="M28.4961,-294.316C32.2274,-259.05 45.0152,-184.878 88,-143 94.3752,-136.789 102.811,-132.608 111.269,-129.794"/>
<polygon fill="midnightblue" stroke="midnightblue" points="25.0077,-294.03 27.5761,-304.308 31.9783,-294.671 25.0077,-294.03"/>
</g>
<!-- Node28 -->
<g id="node28" class="node"><title>Node28</title>
<g id="a_node28"><a xlink:href="class_i_u_r_l_control.html" target="_top" xlink:title="Clickable URL area. ">
<polygon fill="white" stroke="black" points="111.5,-76.5 111.5,-95.5 182.5,-95.5 182.5,-76.5 111.5,-76.5"/>
<text text-anchor="middle" x="147" y="-83.5" font-family="Helvetica,sans-Serif" font-size="10.00">IURLControl</text>
</a>
</g>
</g>
<!-- Node1&#45;&gt;Node28 -->
<g id="edge27" class="edge"><title>Node1&#45;&gt;Node28</title>
<path fill="none" stroke="midnightblue" d="M26.982,-294.041C28.0458,-252.968 36.3368,-158.375 88,-105 94.264,-98.5285 102.762,-94.2598 111.321,-91.4446"/>
<polygon fill="midnightblue" stroke="midnightblue" points="23.4812,-294.081 26.8435,-304.128 30.4805,-294.177 23.4812,-294.081"/>
</g>
<!-- Node29 -->
<g id="node29" class="node"><title>Node29</title>
<g id="a_node29"><a xlink:href="class_i_v_switch_control.html" target="_top" xlink:title="A vector switch control. ">
<polygon fill="white" stroke="black" points="103,-38.5 103,-57.5 191,-57.5 191,-38.5 103,-38.5"/>
<text text-anchor="middle" x="147" y="-45.5" font-family="Helvetica,sans-Serif" font-size="10.00">IVSwitchControl</text>
</a>
</g>
</g>
<!-- Node1&#45;&gt;Node29 -->
<g id="edge28" class="edge"><title>Node1&#45;&gt;Node29</title>
<path fill="none" stroke="midnightblue" d="M29.4023,-294.22C36.153,-241.716 56.8556,-100.554 88,-67 92.1088,-62.5733 97.2633,-59.1759 102.794,-56.569"/>
<polygon fill="midnightblue" stroke="midnightblue" points="25.9138,-293.911 28.143,-304.268 32.8594,-294.781 25.9138,-293.911"/>
</g>
<!-- Node30 -->
<g id="node30" class="node"><title>Node30</title>
<g id="a_node30"><a xlink:href="class_i_x_y_pad.html" target="_top" xlink:title="IXYPad">
<polygon fill="white" stroke="black" points="122,-0.5 122,-19.5 172,-19.5 172,-0.5 122,-0.5"/>
<text text-anchor="middle" x="147" y="-7.5" font-family="Helvetica,sans-Serif" font-size="10.00">IXYPad</text>
</a>
</g>
</g>
<!-- Node1&#45;&gt;Node30 -->
<g id="edge29" class="edge"><title>Node1&#45;&gt;Node30</title>
<path fill="none" stroke="midnightblue" d="M28.6873,-294.305C34.0204,-236.465 52.3103,-68.6772 88,-29 96.5743,-19.4678 110.001,-14.7018 121.777,-12.326"/>
<polygon fill="midnightblue" stroke="midnightblue" points="25.1949,-294.065 27.7921,-304.336 32.1672,-294.687 25.1949,-294.065"/>
</g>
<!-- Node5 -->
<g id="node5" class="node"><title>Node5</title>
<g id="a_node5"><a xlink:href="class_i_switch_control.html" target="_top" xlink:title="A switch. ">
<polygon fill="white" stroke="black" points="272.5,-532.5 272.5,-551.5 353.5,-551.5 353.5,-532.5 272.5,-532.5"/>
<text text-anchor="middle" x="313" y="-539.5" font-family="Helvetica,sans-Serif" font-size="10.00">ISwitchControl</text>
</a>
</g>
</g>
<!-- Node4&#45;&gt;Node5 -->
<g id="edge4" class="edge"><title>Node4&#45;&gt;Node5</title>
<path fill="none" stroke="midnightblue" d="M198.359,-542C222.118,-542 250.063,-542 272.295,-542"/>
<polygon fill="midnightblue" stroke="midnightblue" points="198.119,-538.5 188.119,-542 198.119,-545.5 198.119,-538.5"/>
</g>
<!-- Node6 -->
<g id="node6" class="node"><title>Node6</title>
<g id="a_node6"><a xlink:href="class_i_bitmap_overlay_control.html" target="_top" xlink:title="Bitmap shows when value = 0, then toggles its target area to the whole bitmap and waits for another c...">
<polygon fill="white" stroke="black" points="420,-589.5 420,-608.5 536,-608.5 536,-589.5 420,-589.5"/>
<text text-anchor="middle" x="478" y="-596.5" font-family="Helvetica,sans-Serif" font-size="10.00">IBitmapOverlayControl</text>
</a>
</g>
</g>
<!-- Node5&#45;&gt;Node6 -->
<g id="edge5" class="edge"><title>Node5&#45;&gt;Node6</title>
<path fill="none" stroke="midnightblue" d="M349.656,-555.008C370.187,-562.441 396.501,-571.873 420,-580 429.07,-583.137 438.982,-586.473 447.96,-589.46"/>
<polygon fill="midnightblue" stroke="midnightblue" points="350.673,-551.654 340.079,-551.534 348.286,-558.234 350.673,-551.654"/>
</g>
<!-- Node7 -->
<g id="node7" class="node"><title>Node7</title>
<g id="a_node7"><a xlink:href="class_i_contact_control.html" target="_top" xlink:title="A switch that reverts to 0.0 when released. ">
<polygon fill="white" stroke="black" points="435,-551.5 435,-570.5 521,-570.5 521,-551.5 435,-551.5"/>
<text text-anchor="middle" x="478" y="-558.5" font-family="Helvetica,sans-Serif" font-size="10.00">IContactControl</text>
</a>
</g>
</g>
<!-- Node5&#45;&gt;Node7 -->
<g id="edge6" class="edge"><title>Node5&#45;&gt;Node7</title>
<path fill="none" stroke="midnightblue" d="M364.01,-547.829C386.73,-550.478 413.307,-553.576 434.976,-556.102"/>
<polygon fill="midnightblue" stroke="midnightblue" points="364.212,-544.329 353.874,-546.648 363.402,-551.282 364.212,-544.329"/>
</g>
<!-- Node8 -->
<g id="node8" class="node"><title>Node8</title>
<g id="a_node8"><a xlink:href="class_i_switch_frames_control.html" target="_top" xlink:title="A switch where each frame of the bitmap contains images for multiple button states. ">
<polygon fill="white" stroke="black" points="421,-513.5 421,-532.5 535,-532.5 535,-513.5 421,-513.5"/>
<text text-anchor="middle" x="478" y="-520.5" font-family="Helvetica,sans-Serif" font-size="10.00">ISwitchFramesControl</text>
</a>
</g>
</g>
<!-- Node5&#45;&gt;Node8 -->
<g id="edge7" class="edge"><title>Node5&#45;&gt;Node8</title>
<path fill="none" stroke="midnightblue" d="M363.892,-536.184C381.923,-534.083 402.395,-531.696 420.921,-529.537"/>
<polygon fill="midnightblue" stroke="midnightblue" points="363.402,-532.718 353.874,-537.352 364.212,-539.671 363.402,-532.718"/>
</g>
<!-- Node9 -->
<g id="node9" class="node"><title>Node9</title>
<g id="a_node9"><a xlink:href="class_i_switch_pop_up_control.html" target="_top" xlink:title="Like ISwitchControl except it puts up a popup menu instead of cycling through states on click...">
<polygon fill="white" stroke="black" points="422.5,-475.5 422.5,-494.5 533.5,-494.5 533.5,-475.5 422.5,-475.5"/>
<text text-anchor="middle" x="478" y="-482.5" font-family="Helvetica,sans-Serif" font-size="10.00">ISwitchPopUpControl</text>
</a>
</g>
</g>
<!-- Node5&#45;&gt;Node9 -->
<g id="edge8" class="edge"><title>Node5&#45;&gt;Node9</title>
<path fill="none" stroke="midnightblue" d="M349.656,-528.992C370.187,-521.559 396.501,-512.127 420,-504 429.07,-500.863 438.982,-497.527 447.96,-494.54"/>
<polygon fill="midnightblue" stroke="midnightblue" points="348.286,-525.766 340.079,-532.466 350.673,-532.346 348.286,-525.766"/>
</g>
<!-- Node17 -->
<g id="node17" class="node"><title>Node17</title>
<g id="a_node17"><a xlink:href="class_a_g_knob_control.html" target="_top" xlink:title="AGKnobControl">
<polygon fill="white" stroke="black" points="270.5,-361.5 270.5,-380.5 355.5,-380.5 355.5,-361.5 270.5,-361.5"/>
<text text-anchor="middle" x="313" y="-368.5" font-family="Helvetica,sans-Serif" font-size="10.00">AGKnobControl</text>
</a>
</g>
</g>
<!-- Node16&#45;&gt;Node17 -->
<g id="edge16" class="edge"><title>Node16&#45;&gt;Node17</title>
<path fill="none" stroke="midnightblue" d="M193.552,-287.454C197.985,-289.567 202.229,-292.061 206,-295 229.633,-313.419 217.9,-334.196 242,-352 250.305,-358.136 260.472,-362.29 270.456,-365.103"/>
<polygon fill="midnightblue" stroke="midnightblue" points="194.858,-284.207 184.279,-283.629 192.189,-290.678 194.858,-284.207"/>
</g>
<!-- Node18 -->
<g id="node18" class="node"><title>Node18</title>
<g id="a_node18"><a xlink:href="class_i_knob_line_control.html" target="_top" xlink:title="A knob that is just a line. ">
<polygon fill="white" stroke="black" points="267,-323.5 267,-342.5 359,-342.5 359,-323.5 267,-323.5"/>
<text text-anchor="middle" x="313" y="-330.5" font-family="Helvetica,sans-Serif" font-size="10.00">IKnobLineControl</text>
</a>
</g>
</g>
<!-- Node16&#45;&gt;Node18 -->
<g id="edge17" class="edge"><title>Node16&#45;&gt;Node18</title>
<path fill="none" stroke="midnightblue" d="M190.168,-288.882C195.548,-290.797 200.94,-292.854 206,-295 222.656,-302.063 225.168,-307.368 242,-314 251.138,-317.601 261.206,-320.771 270.789,-323.439"/>
<polygon fill="midnightblue" stroke="midnightblue" points="191.165,-285.524 180.57,-285.599 188.899,-292.147 191.165,-285.524"/>
</g>
<!-- Node19 -->
<g id="node19" class="node"><title>Node19</title>
<g id="a_node19"><a xlink:href="class_i_knob_multi_control.html" target="_top" xlink:title="A multibitmap knob. ">
<polygon fill="white" stroke="black" points="265.5,-285.5 265.5,-304.5 360.5,-304.5 360.5,-285.5 265.5,-285.5"/>
<text text-anchor="middle" x="313" y="-292.5" font-family="Helvetica,sans-Serif" font-size="10.00">IKnobMultiControl</text>
</a>
</g>
</g>
<!-- Node16&#45;&gt;Node19 -->
<g id="edge18" class="edge"><title>Node16&#45;&gt;Node19</title>
<path fill="none" stroke="midnightblue" d="M194.579,-281.396C216.76,-283.966 243.222,-287.032 265.405,-289.602"/>
<polygon fill="midnightblue" stroke="midnightblue" points="194.733,-277.891 184.397,-280.217 193.928,-284.844 194.733,-277.891"/>
</g>
<!-- Node20 -->
<g id="node20" class="node"><title>Node20</title>
<g id="a_node20"><a xlink:href="class_i_knob_rotater_control.html" target="_top" xlink:title="A rotating knob. ">
<polygon fill="white" stroke="black" points="260,-247.5 260,-266.5 366,-266.5 366,-247.5 260,-247.5"/>
<text text-anchor="middle" x="313" y="-254.5" font-family="Helvetica,sans-Serif" font-size="10.00">IKnobRotaterControl</text>
</a>
</g>
</g>
<!-- Node16&#45;&gt;Node20 -->
<g id="edge19" class="edge"><title>Node16&#45;&gt;Node20</title>
<path fill="none" stroke="midnightblue" d="M194.389,-270.626C214.783,-268.263 238.824,-265.478 259.838,-263.043"/>
<polygon fill="midnightblue" stroke="midnightblue" points="193.928,-267.156 184.397,-271.783 194.733,-274.109 193.928,-267.156"/>
</g>
<!-- Node21 -->
<g id="node21" class="node"><title>Node21</title>
<g id="a_node21"><a xlink:href="class_i_knob_rotating_mask_control.html" target="_top" xlink:title="A knob that consists of a static base, a rotating mask, and a rotating top. ">
<polygon fill="white" stroke="black" points="246,-209.5 246,-228.5 380,-228.5 380,-209.5 246,-209.5"/>
<text text-anchor="middle" x="313" y="-216.5" font-family="Helvetica,sans-Serif" font-size="10.00">IKnobRotatingMaskControl</text>
</a>
</g>
</g>
<!-- Node16&#45;&gt;Node21 -->
<g id="edge20" class="edge"><title>Node16&#45;&gt;Node21</title>
<path fill="none" stroke="midnightblue" d="M190.168,-263.118C195.548,-261.203 200.94,-259.146 206,-257 222.656,-249.937 225.168,-244.632 242,-238 251.138,-234.399 261.206,-231.229 270.789,-228.561"/>
<polygon fill="midnightblue" stroke="midnightblue" points="188.899,-259.853 180.57,-266.401 191.165,-266.476 188.899,-259.853"/>
</g>
<!-- Node23 -->
<g id="node23" class="node"><title>Node23</title>
<g id="a_node23"><a xlink:href="class_a_g_preset_save_button_control.html" target="_top" xlink:title="AGPresetSaveButtonControl">
<polygon fill="white" stroke="black" points="242,-171.5 242,-190.5 384,-190.5 384,-171.5 242,-171.5"/>
<text text-anchor="middle" x="313" y="-178.5" font-family="Helvetica,sans-Serif" font-size="10.00">AGPresetSaveButtonControl</text>
</a>
</g>
</g>
<!-- Node22&#45;&gt;Node23 -->
<g id="edge22" class="edge"><title>Node22&#45;&gt;Node23</title>
<path fill="none" stroke="midnightblue" d="M190.168,-225.118C195.548,-223.203 200.94,-221.146 206,-219 222.656,-211.937 225.168,-206.632 242,-200 251.138,-196.399 261.206,-193.229 270.789,-190.561"/>
<polygon fill="midnightblue" stroke="midnightblue" points="188.899,-221.853 180.57,-228.401 191.165,-228.476 188.899,-221.853"/>
</g>
<!-- Node27 -->
<g id="node27" class="node"><title>Node27</title>
<g id="a_node27"><a xlink:href="class_i_caption_control.html" target="_top" xlink:title="Displays the value of a parameter. ">
<polygon fill="white" stroke="black" points="270.5,-114.5 270.5,-133.5 355.5,-133.5 355.5,-114.5 270.5,-114.5"/>
<text text-anchor="middle" x="313" y="-121.5" font-family="Helvetica,sans-Serif" font-size="10.00">ICaptionControl</text>
</a>
</g>
</g>
<!-- Node26&#45;&gt;Node27 -->
<g id="edge26" class="edge"><title>Node26&#45;&gt;Node27</title>
<path fill="none" stroke="midnightblue" d="M193.097,-124C217.215,-124 246.716,-124 270.298,-124"/>
<polygon fill="midnightblue" stroke="midnightblue" points="192.78,-120.5 182.78,-124 192.78,-127.5 192.78,-120.5"/>
</g>
</g>
</svg>
        <g id="navigator" transform="translate(0 0)" fill="#404254">
                <rect fill="#f2f5e9" fill-opacity="0.5" stroke="#606060" stroke-width=".5" x="0" y="0" width="60" height="60"/>
                <use id="zoomplus" xlink:href="#zoomPlus" x="17" y="9" onmousedown="handleZoom(evt,'in')"/>
                <use id="zoomminus" xlink:href="#zoomMin" x="42" y="9" onmousedown="handleZoom(evt,'out')"/>
                <use id="reset" xlink:href="#resetDef" x="30" y="36" onmousedown="handleReset()"/>
                <g id="arrowUp" xlink:href="#dirArrow" transform="translate(30 24)" onmousedown="handlePan(0,-1)">
                  <use xlink:href="#rim" fill="#404040">
                        <set attributeName="fill" to="#808080" begin="arrowUp.mouseover" end="arrowUp.mouseout"/>
                  </use>
                  <path fill="none" stroke="white" stroke-width="1.5" d="M0,-3.0v7 M-2.5,-0.5L0,-3.0L2.5,-0.5"/>
                </g>
                <g id="arrowRight" xlink:href="#dirArrow" transform="rotate(90) translate(36 -43)" onmousedown="handlePan(1,0)">
                  <use xlink:href="#rim" fill="#404040">
                        <set attributeName="fill" to="#808080" begin="arrowRight.mouseover" end="arrowRight.mouseout"/>
                  </use>
                  <path fill="none" stroke="white" stroke-width="1.5" d="M0,-3.0v7 M-2.5,-0.5L0,-3.0L2.5,-0.5"/>
                </g>
                <g id="arrowDown" xlink:href="#dirArrow" transform="rotate(180) translate(-30 -48)" onmousedown="handlePan(0,1)">
                  <use xlink:href="#rim" fill="#404040">
                        <set attributeName="fill" to="#808080" begin="arrowDown.mouseover" end="arrowDown.mouseout"/>
                  </use>
                  <path fill="none" stroke="white" stroke-width="1.5" d="M0,-3.0v7 M-2.5,-0.5L0,-3.0L2.5,-0.5"/>
                </g>
                <g id="arrowLeft" xlink:href="#dirArrow" transform="rotate(270) translate(-36 17)" onmousedown="handlePan(-1,0)">
                  <use xlink:href="#rim" fill="#404040">
                        <set attributeName="fill" to="#808080" begin="arrowLeft.mouseover" end="arrowLeft.mouseout"/>
                  </use>
                  <path fill="none" stroke="white" stroke-width="1.5" d="M0,-3.0v7 M-2.5,-0.5L0,-3.0L2.5,-0.5"/>
                </g>
        </g>
        <svg viewBox="0 0 15 15" width="100%" height="30px" preserveAspectRatio="xMaxYMin meet">
         <g id="arrow_out" transform="scale(0.3 0.3)">
          <a xlink:href="class_i_control__inherit__graph_org.svg" target="_base">
           <rect id="button" ry="5" rx="5" y="6" x="6" height="38" width="38"
                fill="#f2f5e9" fill-opacity="0.5" stroke="#606060" stroke-width="1.0"/>
           <path id="arrow"
             d="M 11.500037,31.436501 C 11.940474,20.09759 22.043105,11.32322 32.158766,21.979434 L 37.068811,17.246167 C 37.068811,17.246167 37.088388,32 37.088388,32 L 22.160133,31.978069 C 22.160133,31.978069 26.997745,27.140456 26.997745,27.140456 C 18.528582,18.264221 13.291696,25.230495 11.500037,31.436501 z"
             style="fill:#404040;"/>
          </a>
         </g>
        </svg>
</svg>
